<svg xmlns="http://www.w3.org/2000/svg" xmlns:xlink="http://www.w3.org/1999/xlink" width="500" zoomAndPan="magnify" viewBox="0 0 375 374.999991" height="500" preserveAspectRatio="xMidYMid meet" version="1.0"><defs><clipPath id="affd35953b"><path d="M 13.125 0 L 361.875 0 L 361.875 372 L 13.125 372 Z M 13.125 0 " clip-rule="nonzero"/></clipPath></defs><g clip-path="url(#affd35953b)"><path fill="#1f497d" d="M 305.28125 321.523438 C 309.898438 318.992188 314.375 316.238281 318.648438 313.214844 C 333.660156 302.597656 345.285156 288.265625 351.335938 270.816406 C 353.433594 264.765625 354.859375 258.574219 355.730469 252.3125 C 360.207031 239.710938 361.789062 226.1875 361.007812 212.683594 C 360.324219 200.914062 358.109375 189.292969 354.960938 177.914062 C 358.804688 160.699219 358.828125 142.847656 353.652344 125.871094 C 343.714844 93.265625 317.472656 66.578125 286.429688 53.273438 C 285.421875 52.839844 284.40625 52.425781 283.386719 52.023438 C 282.949219 51.558594 282.527344 51.085938 282.089844 50.628906 C 273.851562 41.996094 264.738281 33.796875 254.414062 27.816406 C 242.257812 16.71875 227.71875 5.714844 211.007812 3.714844 C 202.882812 0.625 194.214844 0.0195312 185.605469 1.644531 C 175.304688 3.585938 165.675781 8.273438 156.671875 13.496094 C 141.867188 22.085938 127.640625 31.953125 114.34375 42.941406 C 111.441406 45.265625 108.621094 47.6875 105.875 50.195312 C 93.382812 61.328125 81.847656 73.5 71.621094 86.613281 C 53.316406 110.082031 39.359375 136.777344 31.925781 165.46875 C 31.679688 165.796875 31.429688 166.121094 31.1875 166.453125 C 25.355469 174.417969 20.242188 183.019531 17.132812 192.433594 C 14.113281 201.574219 13.265625 211.320312 14.359375 220.871094 C 16.269531 237.507812 23.574219 252.902344 33.988281 265.839844 C 37.394531 276.394531 41.894531 286.59375 47.578125 296.210938 C 66.078125 327.507812 96.429688 350.773438 130.636719 362.558594 C 166.734375 375 206.308594 373.652344 242.050781 360.609375 C 260.351562 353.929688 277.542969 344.351562 292.84375 332.289062 C 297.128906 328.910156 301.296875 325.316406 305.28125 321.519531 Z M 36.253906 264.628906 C 27.457031 237.152344 26.296875 207.265625 31.507812 178.957031 C 32.269531 174.828125 33.175781 170.738281 34.210938 166.6875 C 36.003906 164.257812 37.871094 161.878906 39.777344 159.542969 C 40.464844 158.703125 41.164062 157.867188 41.859375 157.03125 C 41.210938 158.996094 40.585938 160.972656 40.007812 162.964844 C 34.777344 180.949219 32.789062 199.941406 35.609375 218.523438 C 36.125 221.914062 36.808594 225.269531 37.648438 228.578125 C 37.125 228.945312 36.910156 229.6875 37.261719 230.269531 C 37.699219 230.996094 38.171875 231.667969 38.675781 232.304688 C 41.863281 243.191406 46.78125 253.527344 53.148438 262.953125 C 53.476562 263.679688 53.804688 264.40625 54.148438 265.128906 C 59.929688 277.226562 67.671875 287.933594 76.804688 297.285156 C 61.730469 288.75 47.566406 278.3125 36.480469 264.910156 C 36.40625 264.816406 36.332031 264.722656 36.253906 264.628906 Z M 92.78125 67.332031 C 96.253906 63.292969 99.921875 59.417969 103.742188 55.703125 C 108.363281 51.453125 113.113281 47.339844 117.988281 43.386719 C 118.628906 42.863281 119.273438 42.347656 119.917969 41.832031 C 122.710938 39.730469 125.558594 37.703125 128.480469 35.785156 C 139.386719 28.628906 151.390625 22.441406 164.03125 18.722656 C 159.125 21.59375 154.300781 24.609375 149.5625 27.730469 C 143.191406 31.933594 136.972656 36.363281 130.917969 41.011719 C 119.796875 49.140625 109.421875 58.355469 99.578125 67.90625 C 88.101562 79.042969 77.359375 91.199219 68.117188 104.328125 C 74.851562 91.082031 83.101562 78.609375 92.78125 67.332031 Z M 210.328125 6.234375 C 213.925781 7.640625 217.363281 9.496094 220.605469 11.722656 C 223.519531 13.726562 226.25 15.96875 228.84375 18.367188 C 228.207031 18.265625 227.570312 18.152344 226.929688 18.070312 C 224.539062 17.765625 222.140625 17.613281 219.742188 17.601562 C 216.046875 16.570312 212.289062 15.777344 208.46875 15.277344 C 207.410156 14.980469 206.351562 14.699219 205.28125 14.449219 C 196.96875 12.488281 188.429688 12.070312 179.96875 12.945312 C 181.832031 12.054688 183.710938 11.195312 185.613281 10.410156 C 193.527344 7.144531 201.875 5.347656 210.328125 6.234375 Z M 350.171875 170.882812 C 349.746094 171.253906 349.316406 171.621094 348.882812 171.984375 C 348.855469 171.320312 348.386719 170.660156 347.636719 170.738281 C 347.273438 170.777344 346.910156 170.828125 346.546875 170.867188 C 346.363281 170.039062 346.175781 169.210938 345.976562 168.382812 C 347.210938 168.773438 348.457031 169.132812 349.71875 169.449219 C 349.871094 169.925781 350.023438 170.402344 350.175781 170.878906 Z M 353.285156 251.40625 C 350.46875 259.261719 346.539062 266.722656 341.449219 273.589844 C 338.695312 277.304688 335.660156 280.789062 332.417969 284.070312 C 333.761719 280.953125 334.910156 277.796875 335.882812 274.613281 C 346.382812 253.628906 351.035156 230.027344 350.742188 206.5 C 353.953125 221.339844 355.234375 236.613281 353.285156 251.40625 Z M 303.59375 305.5 C 312.636719 295.550781 320.230469 284.199219 326.167969 271.945312 C 328.472656 267.1875 330.535156 262.332031 332.351562 257.386719 C 332.652344 257.3125 332.9375 257.132812 333.144531 256.875 C 333.960938 257.355469 335.273438 256.664062 335.0625 255.433594 C 334.835938 254.125 334.609375 252.816406 334.386719 251.503906 C 335.46875 248.160156 336.441406 244.78125 337.308594 241.375 C 337.429688 241.894531 337.546875 242.414062 337.667969 242.9375 C 337.765625 253.5625 336.347656 264.03125 333.273438 274.027344 C 329.5625 281.371094 325.132812 288.382812 319.945312 294.9375 C 314.753906 298.851562 309.257812 302.367188 303.59375 305.5 Z M 244.464844 339.289062 C 237.847656 341.121094 231.105469 342.417969 224.304688 343.261719 C 203.335938 345.28125 182.0625 343.953125 161.808594 338.425781 C 149.175781 334.128906 137.078125 328.25 125.917969 320.957031 C 128.992188 321.882812 132.085938 322.75 135.191406 323.5625 C 144.558594 328.085938 154.207031 332.019531 164.0625 335.203125 C 183.894531 341.613281 205.027344 344.78125 225.78125 341.765625 C 242.203125 339.378906 257.78125 332.847656 271.183594 323.085938 C 272.050781 322.453125 272.910156 321.808594 273.757812 321.148438 C 279.507812 319.289062 285.160156 317.15625 290.679688 314.746094 C 277.3125 326.304688 261.480469 334.574219 244.464844 339.289062 Z M 37.078125 208.359375 C 36.847656 204.652344 36.8125 200.941406 36.9375 197.238281 C 37.125 207.457031 38.554688 217.636719 41.417969 227.476562 C 40.984375 227.59375 40.554688 227.707031 40.121094 227.824219 C 38.515625 221.46875 37.488281 214.957031 37.078125 208.359375 Z M 111.335938 60.769531 C 118.3125 54.375 125.578125 48.308594 133.097656 42.566406 C 155.007812 26.523438 180.289062 14.457031 207.460938 17.714844 C 208.183594 17.914062 208.902344 18.121094 209.617188 18.34375 C 208.882812 18.453125 208.152344 18.574219 207.421875 18.703125 C 205.652344 18.914062 203.882812 19.171875 202.121094 19.476562 C 186.917969 18.121094 171.320312 23.65625 157.816406 30.457031 C 134.6875 42.109375 114.039062 58.945312 97.964844 79.324219 C 84.386719 93.066406 72.511719 108.527344 63.136719 125.367188 C 60.695312 129.0625 58.382812 132.835938 56.207031 136.691406 C 55.703125 137.246094 55.195312 137.800781 54.695312 138.359375 C 56.066406 133.617188 57.609375 128.917969 59.339844 124.289062 C 72.890625 100.4375 91.191406 79.238281 111.335938 60.769531 Z M 338.964844 261.027344 C 339.433594 257.976562 339.769531 254.90625 339.96875 251.824219 C 340.734375 252.421875 342.167969 251.8125 342.046875 250.628906 C 342.40625 250.429688 342.65625 250.074219 342.59375 249.566406 C 341.773438 242.957031 340.851562 236.363281 339.824219 229.785156 C 340.757812 224.59375 341.441406 219.363281 341.882812 214.105469 C 344.085938 209.535156 346.144531 204.894531 348.003906 200.179688 C 349.035156 220.851562 346.199219 241.769531 338.964844 261.027344 Z M 195.652344 329.375 C 175.597656 328.988281 155.574219 326.230469 136.148438 321.183594 C 132.253906 319.304688 128.402344 317.320312 124.609375 315.242188 C 133.410156 318.191406 142.480469 320.402344 151.660156 321.878906 C 161.925781 323.53125 172.296875 324.34375 182.683594 324.457031 C 189.574219 325.371094 196.488281 326.042969 203.390625 326.46875 C 219.890625 327.480469 236.597656 326.820312 252.84375 323.648438 C 259.976562 322.257812 267.070312 320.34375 273.914062 317.792969 C 273.488281 318.132812 273.0625 318.472656 272.632812 318.808594 C 247.890625 326.808594 221.347656 329.871094 195.652344 329.375 Z M 266.25 323.414062 C 265.273438 324.066406 264.285156 324.707031 263.285156 325.328125 C 248.738281 334.359375 232.214844 339.410156 215.117188 340.246094 C 194.476562 341.253906 173.957031 336.550781 154.765625 329.21875 C 152.589844 328.386719 150.421875 327.519531 148.269531 326.625 C 166.753906 330.441406 185.65625 332.238281 204.527344 331.953125 C 225.085938 331.640625 246.152344 329.054688 266.25 323.414062 Z M 118.78125 316 C 116.679688 314.449219 114.613281 312.847656 112.589844 311.1875 C 116.175781 313.386719 119.816406 315.511719 123.515625 317.546875 C 121.933594 317.042969 120.355469 316.53125 118.78125 316 Z M 41.011719 231.117188 C 40.933594 230.847656 40.863281 230.574219 40.785156 230.304688 C 41.246094 230.179688 41.703125 230.0625 42.164062 229.9375 C 42.21875 230.121094 42.269531 230.304688 42.328125 230.488281 C 42.640625 231.453125 42.96875 232.410156 43.304688 233.363281 C 42.480469 232.695312 41.710938 231.949219 41.011719 231.121094 Z M 183.269531 321.910156 C 167.789062 319.867188 152.425781 316.652344 137.578125 311.867188 C 120.535156 306.375 104.113281 298.441406 89.699219 287.949219 C 80.207031 276.007812 72.484375 262.664062 67.066406 248.445312 C 67.210938 248.304688 67.332031 248.125 67.402344 247.886719 C 67.5625 247.363281 67.722656 246.835938 67.886719 246.308594 C 67.945312 246.214844 68 246.113281 68.039062 245.992188 C 68.347656 245.078125 68.664062 244.167969 68.96875 243.253906 C 70.117188 242.808594 71.269531 242.375 72.417969 241.941406 C 71.96875 243.265625 71.523438 244.589844 71.066406 245.914062 C 70.53125 247.480469 72.972656 248.125 73.535156 246.59375 C 74.246094 244.648438 74.941406 242.695312 75.640625 240.746094 C 75.910156 240.644531 76.179688 240.542969 76.453125 240.441406 C 76.9375 241.269531 78.4375 241.371094 78.816406 240.175781 L 79.027344 239.503906 C 79.574219 239.308594 80.128906 239.125 80.675781 238.929688 C 90.015625 256.167969 102.980469 271.414062 118.976562 282.808594 C 120.386719 283.816406 121.824219 284.773438 123.269531 285.703125 C 124.203125 288.3125 125.167969 290.914062 126.1875 293.492188 C 126.777344 294.992188 129.199219 294.394531 128.652344 292.8125 C 128.101562 291.222656 127.578125 289.621094 127.042969 288.027344 C 128.511719 288.886719 129.996094 289.707031 131.496094 290.496094 C 131.980469 293.222656 132.464844 295.945312 132.953125 298.671875 C 133.242188 300.296875 135.675781 299.59375 135.417969 297.992188 C 135.097656 295.980469 134.746094 293.976562 134.398438 291.96875 C 161.148438 305.035156 192.300781 306.90625 221.390625 299.8125 C 257.230469 291.070312 291.40625 269.503906 312.609375 239.035156 C 315.300781 235.171875 317.765625 231.125 319.953125 226.933594 C 320.394531 228.984375 320.839844 231.035156 321.28125 233.085938 C 320.464844 238.351562 319.351562 243.59375 317.910156 248.789062 C 314.050781 262.671875 308.089844 276.1875 300.1875 288.40625 C 287.75 298.433594 273.144531 305.632812 258.042969 310.699219 C 240.65625 316.539062 222.4375 319.738281 204.183594 321.164062 C 197.234375 321.707031 190.25 321.964844 183.269531 321.910156 Z M 104.355469 302.835938 C 103.054688 301.949219 101.765625 301.046875 100.484375 300.132812 C 99.070312 298.691406 97.679688 297.226562 96.324219 295.734375 C 111.277344 305.179688 127.882812 311.960938 144.878906 316.738281 C 149.765625 318.113281 154.703125 319.339844 159.679688 320.429688 C 153.738281 319.714844 147.828125 318.734375 141.980469 317.445312 C 131.375 315.105469 120.960938 311.6875 111.039062 307.226562 C 108.785156 305.796875 106.554688 304.335938 104.355469 302.835938 Z M 129.917969 55.378906 C 145.992188 43.867188 163.683594 33.929688 182.371094 27.359375 C 182.695312 27.246094 183.023438 27.136719 183.351562 27.023438 C 182.492188 27.449219 181.632812 27.878906 180.78125 28.328125 C 179.445312 28.785156 178.121094 29.265625 176.8125 29.773438 C 174.023438 30.847656 171.296875 32.042969 168.609375 33.328125 C 164.621094 35.15625 160.71875 37.179688 156.910156 39.328125 C 148.085938 44.308594 139.554688 49.84375 131.335938 55.769531 C 119.171875 64.535156 107.683594 74.242188 97.011719 84.769531 C 98.003906 83.433594 99.015625 82.117188 100.046875 80.808594 C 109.285156 71.488281 119.320312 62.972656 129.917969 55.382812 Z M 249.144531 41.890625 C 249.59375 42.484375 250.039062 43.082031 250.484375 43.675781 C 248.820312 43.46875 247.152344 43.296875 245.484375 43.148438 C 242.039062 39.910156 238.453125 36.828125 234.628906 34.066406 C 232.613281 32.609375 230.53125 31.277344 228.382812 30.09375 C 224.507812 27.179688 220.355469 24.660156 215.855469 22.796875 C 214.113281 22.078125 212.355469 21.480469 210.582031 20.992188 C 212.445312 20.828125 214.3125 20.722656 216.179688 20.679688 C 228.15625 25.519531 239.117188 33.09375 249.144531 41.890625 Z M 51.753906 244.738281 C 50.808594 242.925781 49.929688 241.082031 49.097656 239.226562 C 49.945312 239.496094 50.8125 239.722656 51.691406 239.914062 C 52.363281 242.179688 53.070312 244.4375 53.839844 246.675781 C 53.59375 246.78125 53.34375 246.882812 53.097656 246.988281 C 53.0625 247.007812 53.03125 247.027344 53 247.046875 C 52.578125 246.28125 52.15625 245.515625 51.753906 244.738281 Z M 258.414062 54.617188 C 259.980469 56.851562 261.519531 59.105469 263.046875 61.367188 C 260.847656 58.925781 258.632812 56.503906 256.371094 54.125 C 253.777344 51.398438 251.160156 48.671875 248.46875 46.019531 C 249.851562 46.175781 251.230469 46.347656 252.605469 46.542969 C 254.566406 49.21875 256.507812 51.90625 258.414062 54.617188 Z M 330.183594 224.585938 C 330.0625 223.007812 329.921875 221.429688 329.757812 219.859375 C 329.953125 216.902344 330.082031 213.941406 330.148438 210.976562 C 330.179688 211.113281 330.214844 211.246094 330.25 211.382812 C 330.460938 215.777344 330.4375 220.183594 330.183594 224.585938 Z M 105.007812 94.15625 C 105.230469 93.902344 105.453125 93.648438 105.679688 93.398438 C 127.59375 76.171875 151.839844 61.976562 178.550781 53.550781 C 198.503906 47.253906 219.953125 44.109375 240.996094 45.378906 C 242.515625 47.042969 244.003906 48.726562 245.476562 50.417969 C 252.101562 58.023438 258.472656 65.859375 264.554688 73.910156 C 271.933594 83.667969 278.933594 93.753906 285.515625 104.113281 C 284.242188 107.832031 283 111.566406 281.789062 115.308594 C 281.378906 114.992188 280.808594 114.882812 280.355469 115.1875 C 272.367188 120.601562 267.878906 129.558594 268.054688 139.175781 C 268.101562 141.859375 268.4375 144.515625 268.851562 147.160156 C 266.613281 153.964844 264.464844 160.800781 262.398438 167.664062 C 259.175781 173.09375 255.734375 178.394531 252.085938 183.558594 C 251.679688 179.117188 250.933594 174.714844 249.847656 170.410156 C 247.023438 159.222656 241.921875 147.300781 233.324219 139.332031 C 230.007812 136.257812 225.964844 133.640625 221.507812 132.703125 C 219.277344 130.734375 216.820312 129.042969 214.113281 127.84375 C 210.238281 126.128906 206.019531 125.742188 202.160156 127.011719 C 202.289062 125.933594 202.414062 124.855469 202.539062 123.777344 C 202.679688 122.546875 200.644531 121.988281 200.15625 123.132812 C 199.246094 125.253906 198.367188 127.394531 197.515625 129.542969 C 192.972656 133.121094 190.074219 138.546875 187.441406 143.578125 C 185.121094 148.015625 183.082031 152.605469 181.332031 157.300781 C 180.613281 158.21875 179.941406 159.179688 179.320312 160.175781 C 174.3125 168.242188 173.25 177.769531 173.976562 187.128906 C 173.65625 188.574219 173.375 190.027344 173.136719 191.492188 C 171.828125 193.195312 170.449219 194.84375 169 196.433594 C 168.257812 196.019531 167.519531 195.59375 166.773438 195.148438 C 166.324219 194.878906 165.867188 194.609375 165.417969 194.339844 C 165.230469 194.09375 164.964844 193.925781 164.652344 193.882812 C 160.226562 191.261719 155.667969 188.714844 150.722656 187.277344 C 145.796875 185.847656 140.398438 185.851562 136.007812 188.800781 C 132.792969 190.957031 130.75 194.15625 129.457031 197.683594 C 128.824219 197.171875 128.210938 196.640625 127.628906 196.078125 C 126.9375 192.828125 126.25 189.574219 125.558594 186.320312 C 125.214844 184.699219 122.804688 185.394531 123.09375 187 C 123.097656 187.011719 123.097656 187.023438 123.101562 187.039062 C 122.371094 185.398438 121.628906 183.769531 120.859375 182.148438 C 120.707031 181.632812 120.5625 181.113281 120.40625 180.59375 C 119.9375 179.023438 117.492188 179.683594 117.941406 181.277344 C 117.957031 181.34375 117.976562 181.410156 117.996094 181.476562 C 117.535156 181.652344 117.1875 182.042969 117.253906 182.613281 C 118.21875 190.636719 119.179688 198.660156 120.144531 206.683594 C 120.105469 206.6875 120.066406 206.691406 120.023438 206.699219 C 118.628906 202.832031 117.179688 198.984375 115.671875 195.15625 C 115.515625 194.769531 115.246094 194.519531 114.9375 194.390625 C 114.382812 192.699219 113.816406 191.015625 113.234375 189.332031 C 112.695312 187.78125 110.421875 188.394531 110.765625 190.011719 C 110.957031 190.898438 111.132812 191.78125 111.316406 192.667969 C 110.582031 190.53125 109.839844 188.398438 109.078125 186.273438 C 108.53125 184.738281 106.21875 185.332031 106.613281 186.953125 C 106.765625 187.582031 106.925781 188.207031 107.082031 188.832031 C 101.242188 187.546875 95.921875 190.738281 92.917969 195.496094 L 101.71875 167.617188 C 103.863281 160.824219 106.011719 154.027344 108.15625 147.230469 C 108.589844 145.851562 106.511719 144.96875 105.820312 146.246094 C 105.230469 147.328125 104.652344 148.417969 104.074219 149.507812 C 104.144531 149.257812 104.214844 149.003906 104.28125 148.753906 C 104.582031 147.6875 103.570312 147.035156 102.738281 147.203125 C 102.316406 146.289062 100.796875 146.171875 100.34375 147.382812 C 98.9375 151.121094 97.554688 154.871094 96.167969 158.613281 C 96.527344 157.015625 96.882812 155.414062 97.226562 153.8125 C 97.324219 153.347656 97.144531 152.917969 96.847656 152.617188 C 97.390625 150.75 97.925781 148.882812 98.441406 147.007812 C 98.511719 146.746094 98.488281 146.503906 98.40625 146.285156 C 98.554688 145.789062 98.707031 145.296875 98.859375 144.800781 C 98.949219 144.5 98.941406 144.234375 98.863281 144.011719 C 99.421875 142.152344 99.984375 140.296875 100.546875 138.4375 C 100.960938 137.066406 98.886719 136.15625 98.210938 137.453125 C 97.003906 139.761719 95.824219 142.089844 94.660156 144.421875 C 95.160156 143.210938 95.652344 141.992188 96.160156 140.78125 C 96.714844 139.457031 94.433594 138.484375 93.820312 139.796875 L 80.972656 167.40625 C 82.308594 161.308594 83.628906 155.207031 84.921875 149.101562 C 85.261719 147.496094 82.796875 146.808594 82.453125 148.421875 C 80.347656 158.363281 78.164062 168.285156 75.945312 178.203125 L 68.144531 194.960938 C 68.011719 194.1875 67.882812 193.414062 67.761719 192.636719 C 66.828125 186.5625 66.355469 180.46875 66.304688 174.394531 C 68.308594 166.339844 70.851562 158.414062 73.832031 150.710938 C 80.722656 132.90625 89.933594 116 100.707031 100.257812 C 102.113281 98.207031 103.546875 96.171875 105.003906 94.152344 Z M 295.503906 197.707031 C 292.894531 197.667969 290.285156 197.496094 287.691406 197.207031 C 292.714844 196.507812 297.738281 195.792969 302.753906 195.042969 C 303.097656 195.113281 303.441406 195.1875 303.789062 195.25 C 301.042969 196.121094 298.277344 196.941406 295.503906 197.707031 Z M 67.171875 203.09375 C 67.511719 204.578125 67.871094 206.058594 68.257812 207.535156 C 68.105469 207.988281 67.957031 208.445312 67.800781 208.898438 C 66.292969 211.285156 64.714844 213.628906 63.046875 215.914062 C 62.492188 216.675781 61.914062 217.425781 61.335938 218.175781 C 61.3125 217.363281 61.300781 216.546875 61.289062 215.734375 C 63.25 211.519531 65.210938 207.308594 67.171875 203.09375 Z M 106.148438 191.253906 C 107.015625 196.40625 107.882812 201.558594 108.75 206.714844 C 107.125 203.171875 105.449219 199.648438 103.710938 196.15625 C 103.023438 194.773438 101.144531 195.808594 101.375 197.144531 C 102.082031 201.214844 102.839844 205.277344 103.628906 209.332031 C 100.839844 209.839844 98.058594 210.375 95.28125 210.941406 C 92.707031 207.203125 91.890625 202.566406 94.429688 197.875 C 96.722656 193.640625 101.253906 190.390625 106.148438 191.253906 Z M 272.246094 129.222656 C 273.542969 125.8125 275.613281 122.738281 278.21875 120.210938 C 275.632812 127.277344 273.140625 134.382812 270.742188 141.515625 C 270.453125 137.355469 270.726562 133.199219 272.246094 129.222656 Z M 248.089844 200 C 248.074219 200.003906 248.058594 200.003906 248.042969 200.007812 C 248.03125 199.957031 248.019531 199.90625 248.011719 199.855469 C 248 199.320312 247.976562 198.785156 247.960938 198.246094 C 247.964844 198.246094 247.96875 198.242188 247.972656 198.238281 C 248.023438 198.828125 248.050781 199.414062 248.089844 200 Z M 225.402344 257.648438 C 223.632812 257.90625 221.828125 257.9375 220.035156 257.734375 C 220.324219 257.359375 220.605469 256.976562 220.867188 256.582031 C 221.195312 256.09375 221.503906 255.59375 221.804688 255.085938 C 223 254.578125 224.160156 253.984375 225.269531 253.324219 C 227.554688 251.96875 229.628906 250.367188 231.507812 248.582031 C 230.800781 249.832031 230.058594 251.066406 229.289062 252.28125 C 228.164062 254.050781 226.890625 255.988281 225.398438 257.648438 Z M 233.804688 153.75 C 233.71875 153.632812 233.640625 153.515625 233.554688 153.398438 C 232.582031 152.128906 231.566406 150.855469 230.511719 149.605469 C 229.605469 148.363281 228.652344 147.167969 227.640625 146.019531 C 228.738281 146.773438 229.792969 147.589844 230.796875 148.453125 C 231.863281 150.179688 232.851562 151.953125 233.804688 153.746094 Z M 217.097656 257.203125 C 216.578125 257.078125 216.0625 256.941406 215.550781 256.789062 C 216.316406 256.699219 217.078125 256.5625 217.832031 256.386719 C 217.59375 256.671875 217.351562 256.949219 217.097656 257.203125 Z M 238.082031 234.101562 C 237.261719 235.4375 236.351562 236.886719 235.328125 238.265625 C 236.769531 235.296875 237.957031 232.210938 239 229.257812 C 239.019531 229.210938 239.03125 229.160156 239.050781 229.113281 C 239.339844 228.808594 239.640625 228.511719 239.929688 228.207031 C 239.375 230.191406 238.765625 232.15625 238.082031 234.101562 Z M 211.238281 254.207031 C 210.886719 253.820312 210.539062 253.429688 210.203125 253.023438 C 210.234375 253.019531 210.269531 253.019531 210.300781 253.011719 C 210.335938 253.007812 210.363281 253 210.394531 252.996094 C 212.601562 253.75 214.902344 254.097656 217.203125 253.929688 C 215.742188 254.265625 214.238281 254.425781 212.71875 254.359375 C 212.210938 254.339844 211.722656 254.28125 211.242188 254.207031 Z M 222.582031 243.570312 C 222.382812 243.503906 222.183594 243.441406 221.988281 243.367188 C 222.664062 242.972656 223.328125 242.5625 223.980469 242.136719 C 223.527344 242.625 223.0625 243.101562 222.582031 243.570312 Z M 211.230469 235.339844 C 211.109375 235.21875 210.984375 235.097656 210.863281 234.976562 C 203.84375 228.058594 198.210938 219.769531 194.164062 210.789062 C 192.859375 207.894531 191.722656 204.886719 190.773438 201.804688 C 196.023438 200.035156 200.167969 196.246094 199.28125 189.773438 C 199.207031 189.230469 198.554688 188.832031 198.046875 188.832031 C 195.015625 188.851562 192.003906 189.125 189.035156 189.625 C 189.027344 189.121094 189.019531 188.617188 189.019531 188.109375 C 189.214844 186.0625 189.464844 184.015625 189.78125 181.984375 C 193.738281 173.058594 196.371094 163.527344 198.238281 153.945312 C 199.0625 152.210938 199.945312 150.511719 200.886719 148.847656 C 202.472656 148.746094 204.09375 148.824219 205.746094 149.121094 C 211.121094 150.082031 216.132812 152.71875 220.578125 156.183594 C 221.316406 158.59375 221.960938 161.03125 222.519531 163.476562 C 227.734375 186.320312 224.863281 211.0625 214.261719 231.988281 C 213.824219 232.847656 213.328125 233.785156 212.785156 234.757812 C 212.273438 234.964844 211.753906 235.160156 211.230469 235.339844 Z M 215.503906 143.660156 C 216.09375 144.652344 216.621094 145.6875 217.078125 146.71875 C 217.855469 148.464844 218.558594 150.25 219.207031 152.058594 C 215.570312 149.648438 211.628906 147.804688 207.449219 146.863281 C 205.792969 146.488281 204.152344 146.308594 202.535156 146.292969 C 203.707031 145.320312 204.972656 144.433594 206.359375 143.671875 C 207.53125 143.027344 208.773438 142.46875 210.054688 142.015625 C 211.460938 142.199219 212.855469 142.539062 214.210938 143.074219 C 214.65625 143.25 215.082031 143.449219 215.5 143.660156 Z M 238.613281 186.371094 C 238.457031 188.980469 238.199219 191.582031 237.832031 194.167969 C 237.902344 187.332031 237.109375 180.496094 235.5625 173.828125 C 236.355469 175.222656 237.089844 176.644531 237.78125 178.089844 C 238.21875 180.824219 238.492188 183.589844 238.613281 186.371094 Z M 226.988281 156.78125 C 227.472656 157.800781 227.925781 158.839844 228.367188 159.878906 C 226.640625 158.054688 224.792969 156.3125 222.832031 154.726562 C 222.035156 152.082031 221.117188 149.433594 220.015625 146.898438 C 222.210938 148.988281 224.027344 151.519531 225.640625 154.054688 C 226.105469 154.957031 226.558594 155.863281 226.988281 156.78125 Z M 196.894531 191.417969 C 197.042969 195.75 193.945312 198.183594 190.074219 199.40625 C 189.824219 198.496094 189.597656 197.578125 189.382812 196.65625 C 189.261719 195.171875 189.167969 193.6875 189.109375 192.203125 C 191.671875 191.753906 194.273438 191.492188 196.890625 191.417969 Z M 196.742188 236.089844 C 194.910156 232.445312 193.515625 228.554688 192.355469 224.792969 C 191.523438 222.097656 190.820312 219.367188 190.222656 216.617188 C 192.007812 223.371094 194.40625 229.949219 197.355469 236.226562 C 197.152344 236.179688 196.941406 236.140625 196.742188 236.089844 Z M 198.746094 239.089844 C 199.171875 239.9375 199.609375 240.777344 200.054688 241.613281 C 199.453125 240.773438 198.886719 239.910156 198.351562 239.019531 C 198.484375 239.039062 198.613281 239.074219 198.746094 239.089844 Z M 191.546875 211.136719 C 195.578125 220.390625 201.328125 228.957031 208.4375 236.136719 C 205.8125 236.738281 203.113281 236.96875 200.425781 236.726562 C 196.464844 228.625 193.46875 219.996094 191.546875 211.136719 Z M 216.820312 232.585938 C 227.980469 210.097656 230.589844 183.53125 224.121094 159.28125 C 224.113281 159.257812 224.105469 159.230469 224.097656 159.207031 C 226.664062 161.613281 228.984375 164.246094 231.003906 166.917969 C 233.648438 175.03125 235.121094 183.542969 235.269531 192.058594 C 235.351562 196.636719 235.023438 201.332031 234.148438 205.910156 C 233.90625 206.175781 233.667969 206.453125 233.425781 206.722656 C 232.835938 207.367188 233.054688 208.164062 233.566406 208.597656 C 232.117188 214.5625 229.65625 220.242188 225.808594 225.078125 C 223.34375 228.175781 220.195312 230.855469 216.671875 232.875 C 216.71875 232.78125 216.769531 232.679688 216.820312 232.585938 Z M 205.121094 245.1875 C 205.074219 245.179688 205.023438 245.175781 204.976562 245.167969 C 204.429688 244.214844 203.898438 243.269531 203.378906 242.351562 C 202.816406 241.351562 202.273438 240.34375 201.742188 239.324219 C 204.699219 239.40625 207.660156 239.011719 210.523438 238.207031 C 210.5625 238.246094 210.605469 238.285156 210.644531 238.328125 C 209.058594 240.777344 207.203125 243.21875 205.121094 245.1875 Z M 214.609375 236.765625 C 218.894531 234.917969 222.800781 232.171875 225.941406 228.8125 C 225.164062 230.15625 224.363281 231.484375 223.523438 232.789062 C 221.777344 235.496094 219.886719 238.414062 217.6875 241 C 216.371094 240.070312 215.113281 239.011719 213.933594 237.929688 C 214.167969 237.539062 214.390625 237.152344 214.609375 236.765625 Z M 224.460938 235.996094 C 227.960938 230.851562 230.929688 225.359375 233.363281 219.632812 C 233.855469 218.480469 234.316406 217.316406 234.765625 216.144531 C 232.8125 223.046875 230.304688 229.785156 227.527344 236.402344 C 225.980469 237.65625 224.386719 238.84375 222.730469 239.925781 C 222.109375 240.328125 221.472656 240.726562 220.824219 241.105469 C 222.125 239.421875 223.320312 237.671875 224.460938 235.996094 Z M 241.9375 196.90625 C 241.574219 197.351562 241.191406 197.785156 240.820312 198.230469 C 241.203125 194.421875 241.339844 190.589844 241.191406 186.738281 C 241.269531 186.980469 241.359375 187.21875 241.433594 187.460938 C 241.769531 190.605469 241.9375 193.761719 241.941406 196.90625 Z M 206.59375 247.902344 C 206.875 247.917969 207.15625 247.921875 207.441406 247.921875 C 207.175781 247.964844 206.917969 247.992188 206.660156 248.015625 C 206.640625 247.976562 206.617188 247.941406 206.59375 247.902344 Z M 208.664062 245.320312 C 210.097656 243.710938 211.402344 241.925781 212.578125 240.117188 C 213.664062 241.082031 214.792969 242.019531 215.976562 242.871094 C 215.601562 243.25 215.21875 243.621094 214.824219 243.976562 C 212.828125 244.691406 210.765625 245.179688 208.664062 245.320312 Z M 240.035156 204.152344 C 240.605469 203.671875 241.183594 203.203125 241.761719 202.742188 C 241.527344 206.570312 241.058594 210.382812 240.367188 214.15625 C 239.644531 216.105469 238.863281 218.03125 238.019531 219.925781 C 236.472656 223.402344 234.714844 226.855469 232.746094 230.1875 C 235.949219 221.714844 238.585938 213.011719 240.039062 204.152344 Z M 194.605469 147.101562 C 194.792969 146.667969 194.992188 146.21875 195.191406 145.757812 C 195.414062 145.617188 195.636719 145.476562 195.863281 145.34375 C 195.425781 145.917969 195.007812 146.507812 194.605469 147.101562 Z M 181.839844 183.554688 C 181.753906 184.960938 181.683594 186.367188 181.636719 187.773438 C 181.601562 187.359375 181.546875 186.949219 181.511719 186.535156 C 181.480469 186.128906 181.453125 185.71875 181.425781 185.3125 C 181.554688 184.722656 181.703125 184.140625 181.839844 183.554688 Z M 205.28125 250.597656 C 205.28125 250.597656 205.28125 250.601562 205.28125 250.601562 C 205.261719 250.597656 205.246094 250.597656 205.226562 250.597656 C 205.242188 250.597656 205.261719 250.597656 205.28125 250.597656 Z M 204.757812 250.558594 C 204.628906 250.546875 204.503906 250.535156 204.375 250.515625 C 204.503906 250.535156 204.628906 250.546875 204.757812 250.558594 Z M 209.582031 250.046875 C 210.476562 249.773438 211.386719 249.40625 212.3125 248.914062 C 213.71875 248.160156 215.011719 247.21875 216.21875 246.152344 C 217.238281 245.765625 218.234375 245.332031 219.203125 244.867188 C 219.625 245.082031 220.046875 245.28125 220.480469 245.46875 C 218.277344 247.285156 215.832031 248.796875 213.105469 249.710938 C 212.199219 250.015625 211.28125 250.226562 210.359375 250.386719 C 210.097656 250.28125 209.839844 250.167969 209.582031 250.046875 Z M 223.011719 246.671875 C 223.066406 246.625 223.117188 246.574219 223.171875 246.523438 C 222.636719 247.761719 222.089844 248.996094 221.503906 250.207031 C 220.566406 250.644531 219.582031 250.992188 218.542969 251.214844 C 217.535156 251.433594 216.53125 251.519531 215.539062 251.5 C 218.265625 250.328125 220.773438 248.640625 223.011719 246.671875 Z M 242.125 218.390625 C 241.867188 219.933594 241.5625 221.464844 241.230469 222.996094 C 241.109375 223.132812 240.980469 223.265625 240.859375 223.402344 C 241.328125 221.746094 241.746094 220.074219 242.125 218.390625 Z M 209.925781 138.109375 C 209.707031 138.09375 209.484375 138.078125 209.265625 138.074219 C 209.335938 138.019531 209.402344 137.960938 209.476562 137.90625 C 209.628906 137.96875 209.777344 138.039062 209.925781 138.109375 Z M 204.925781 138.597656 C 204.628906 138.683594 204.332031 138.773438 204.035156 138.878906 C 203.003906 139.242188 202.050781 139.722656 201.15625 140.289062 C 200.925781 140.355469 200.691406 140.421875 200.460938 140.496094 C 200.519531 140.085938 200.574219 139.675781 200.632812 139.265625 C 202.265625 138.363281 204.046875 137.75 205.980469 137.542969 C 205.617188 137.882812 205.265625 138.234375 204.925781 138.597656 Z M 197.710938 141.535156 C 197.511719 141.625 197.316406 141.714844 197.121094 141.804688 C 197.328125 141.617188 197.539062 141.4375 197.753906 141.257812 C 197.738281 141.351562 197.722656 141.441406 197.710938 141.535156 Z M 180.066406 198.675781 C 180.183594 198.523438 180.296875 198.367188 180.410156 198.210938 C 180.535156 198.9375 180.667969 199.65625 180.804688 200.378906 C 180.597656 200.363281 180.394531 200.347656 180.199219 200.328125 C 180.152344 199.777344 180.105469 199.226562 180.066406 198.675781 Z M 225.550781 247.515625 C 225.667969 247.246094 225.78125 246.972656 225.898438 246.699219 C 226.078125 246.699219 226.261719 246.707031 226.4375 246.699219 C 226.148438 246.980469 225.851562 247.25 225.550781 247.515625 Z M 226.992188 244.113281 C 227.316406 243.351562 227.636719 242.59375 227.964844 241.84375 C 228.042969 241.660156 228.125 241.476562 228.203125 241.292969 C 229.757812 239.425781 231.207031 237.445312 232.554688 235.398438 C 232.996094 235 233.4375 234.601562 233.875 234.199219 C 234.183594 233.917969 234.476562 233.621094 234.78125 233.332031 C 233.257812 236.953125 231.425781 240.429688 229.148438 243.539062 C 229.136719 243.554688 229.121094 243.570312 229.109375 243.589844 C 228.441406 243.851562 227.734375 244.027344 226.992188 244.113281 Z M 185.339844 160.410156 C 185.304688 160.554688 185.265625 160.695312 185.230469 160.839844 C 185.195312 160.894531 185.15625 160.949219 185.121094 161.003906 C 185.179688 160.835938 185.242188 160.667969 185.300781 160.496094 C 185.3125 160.46875 185.328125 160.441406 185.339844 160.410156 Z M 183.703125 168.164062 C 183.628906 168.585938 183.539062 169.011719 183.46875 169.433594 C 182.644531 171.664062 181.886719 173.917969 181.199219 176.191406 C 181.496094 174.449219 181.847656 172.714844 182.242188 170.992188 C 182.707031 170.039062 183.195312 169.09375 183.703125 168.164062 Z M 181.316406 202.96875 C 181.667969 204.636719 182.046875 206.300781 182.460938 207.957031 C 182.835938 211.242188 183.332031 214.511719 183.949219 217.761719 C 183.246094 215.910156 182.582031 214.046875 181.960938 212.164062 C 181.304688 209.109375 180.800781 206.019531 180.449219 202.910156 C 180.738281 202.933594 181.027344 202.953125 181.316406 202.96875 Z M 230.945312 245.492188 C 230.988281 245.46875 231.03125 245.449219 231.070312 245.429688 C 230.921875 245.585938 230.777344 245.738281 230.625 245.894531 C 230.730469 245.757812 230.839844 245.628906 230.945312 245.492188 Z M 211.585938 258.109375 C 211.800781 258.289062 212.007812 258.46875 212.226562 258.640625 C 212.628906 258.957031 213.042969 259.238281 213.460938 259.503906 C 213.441406 259.511719 213.417969 259.515625 213.398438 259.523438 C 212.632812 259.054688 211.894531 258.519531 211.191406 257.953125 C 211.320312 258.011719 211.457031 258.054688 211.585938 258.109375 Z M 308.257812 178.792969 C 306.28125 175.308594 306.296875 171.121094 307.722656 167.460938 C 307.910156 168.363281 308.097656 169.265625 308.285156 170.167969 C 308.023438 170.464844 307.875 170.863281 307.972656 171.308594 C 308.574219 174.109375 309.179688 176.90625 309.78125 179.707031 C 309.488281 179.730469 309.199219 179.75 308.90625 179.777344 C 308.679688 179.457031 308.457031 179.136719 308.261719 178.792969 Z M 271.34375 183.585938 C 271.5625 182.566406 271.761719 181.539062 271.945312 180.511719 C 272.921875 178.75 273.902344 176.984375 274.878906 175.222656 C 274.617188 176.371094 274.367188 177.523438 274.097656 178.671875 C 273.722656 180.257812 273.335938 181.84375 272.945312 183.425781 C 272.414062 183.480469 271.878906 183.53125 271.34375 183.585938 Z M 270.328125 187.929688 C 270.855469 187.777344 271.390625 187.632812 271.921875 187.492188 C 271.667969 188.488281 271.40625 189.488281 271.144531 190.484375 C 270.605469 190.601562 270.0625 190.714844 269.523438 190.832031 C 269.800781 189.867188 270.078125 188.902344 270.328125 187.929688 Z M 273.6875 192.550781 C 273.773438 192.53125 273.855469 192.511719 273.941406 192.496094 C 273.921875 192.507812 273.902344 192.519531 273.882812 192.527344 C 273.820312 192.535156 273.753906 192.542969 273.691406 192.550781 Z M 276.089844 183.109375 C 276.285156 182.378906 276.484375 181.648438 276.675781 180.917969 C 276.699219 180.941406 276.722656 180.964844 276.746094 180.988281 L 276.109375 183.109375 C 276.101562 183.109375 276.097656 183.109375 276.089844 183.109375 Z M 277.542969 177.484375 C 278.554688 173.441406 279.503906 169.378906 280.382812 165.300781 C 281.183594 163.863281 281.980469 162.425781 282.777344 160.988281 C 282.238281 162.78125 281.695312 164.578125 281.15625 166.375 C 280.113281 169.832031 279.070312 173.289062 278.027344 176.746094 C 277.867188 176.992188 277.703125 177.238281 277.542969 177.484375 Z M 265.25 195.917969 C 265.265625 195.917969 265.285156 195.914062 265.300781 195.914062 C 265.28125 195.980469 265.257812 196.042969 265.234375 196.109375 C 265.238281 196.046875 265.242188 195.980469 265.25 195.917969 Z M 315.277344 160.480469 C 315.171875 160.175781 315.0625 159.867188 314.957031 159.5625 C 314.96875 159.554688 314.980469 159.550781 314.992188 159.546875 C 315.085938 159.859375 315.183594 160.167969 315.277344 160.480469 Z M 315.652344 169.703125 C 315.71875 170.976562 315.792969 172.253906 315.867188 173.53125 C 315.566406 173.089844 315.082031 172.96875 314.628906 173.078125 C 314.625 170.949219 314.636719 168.816406 314.65625 166.683594 C 314.992188 167.6875 315.320312 168.695312 315.652344 169.703125 Z M 279.9375 188.589844 C 278.867188 188.820312 277.792969 189.050781 276.722656 189.28125 C 275.957031 189.265625 275.191406 189.226562 274.421875 189.199219 C 274.660156 188.367188 274.890625 187.535156 275.121094 186.699219 C 277.3125 186.203125 279.527344 185.796875 281.761719 185.484375 C 282.117188 185.761719 282.476562 186.03125 282.839844 186.296875 C 281.894531 187.09375 280.925781 187.855469 279.9375 188.589844 Z M 285.132812 153.175781 C 284.695312 153.121094 284.21875 153.273438 283.878906 153.730469 C 283.351562 154.441406 282.832031 155.160156 282.316406 155.878906 C 282.535156 155.1875 282.761719 154.5 282.984375 153.808594 C 285.054688 149.535156 287 145.199219 288.816406 140.808594 C 288.671875 141.339844 288.53125 141.867188 288.386719 142.398438 C 287.300781 145.992188 286.21875 149.582031 285.136719 153.175781 Z M 290.34375 124.496094 C 290.261719 124.402344 290.171875 124.320312 290.066406 124.25 C 291.027344 121.546875 291.964844 118.835938 292.878906 116.113281 C 293.0625 116.429688 293.253906 116.738281 293.4375 117.054688 C 292.40625 119.535156 291.375 122.015625 290.34375 124.496094 Z M 287.570312 118.851562 C 287.640625 118.101562 287.699219 117.351562 287.765625 116.601562 C 288.378906 114.589844 288.964844 112.566406 289.527344 110.539062 C 289.96875 111.257812 290.40625 111.980469 290.84375 112.707031 C 289.726562 114.742188 288.632812 116.789062 287.570312 118.851562 Z M 258.425781 196.101562 C 258.433594 196.101562 258.4375 196.101562 258.445312 196.101562 C 258.425781 196.558594 258.640625 196.917969 258.953125 197.140625 C 258.730469 197.625 258.496094 198.105469 258.269531 198.585938 C 257.847656 198.644531 257.425781 198.703125 257.003906 198.761719 C 257.480469 197.875 257.953125 196.988281 258.425781 196.101562 Z M 262.574219 197.398438 C 262.570312 197.429688 262.566406 197.457031 262.566406 197.488281 C 262.546875 197.492188 262.53125 197.496094 262.515625 197.503906 C 262.535156 197.46875 262.554688 197.433594 262.574219 197.398438 Z M 285.09375 193.632812 C 282.761719 194.203125 280.449219 194.835938 278.164062 195.550781 C 277.308594 195.347656 276.453125 195.136719 275.605469 194.90625 C 278.777344 194.554688 281.941406 194.125 285.09375 193.632812 Z M 312.085938 168 C 311.527344 166.339844 310.957031 164.683594 310.378906 163.03125 C 310.929688 162.390625 311.53125 161.804688 312.183594 161.277344 C 312.136719 163.519531 312.105469 165.757812 312.085938 168 Z M 298.945312 184.496094 C 295.363281 185.269531 291.78125 186.039062 288.199219 186.808594 C 287.78125 186.5625 287.363281 186.308594 286.953125 186.046875 C 287.496094 185.53125 288.042969 185.019531 288.570312 184.484375 C 288.589844 184.460938 288.601562 184.433594 288.621094 184.410156 C 292.269531 184.046875 295.917969 183.679688 299.566406 183.3125 C 300.386719 183.230469 301.207031 183.144531 302.027344 183.058594 C 300.996094 183.527344 299.96875 184.003906 298.945312 184.496094 Z M 290.785156 143.300781 C 292.761719 136.746094 294.738281 130.195312 296.710938 123.648438 C 296.773438 123.441406 296.835938 123.238281 296.894531 123.039062 C 297.210938 123.59375 297.535156 124.144531 297.847656 124.703125 C 295.679688 138.496094 291.382812 151.941406 285.09375 164.425781 C 284.769531 165.070312 284.421875 165.707031 284.085938 166.347656 C 286.417969 158.691406 288.652344 151.007812 290.785156 143.300781 Z M 272.25 196.597656 C 272.285156 196.605469 272.320312 196.621094 272.359375 196.632812 C 272.316406 196.636719 272.273438 196.644531 272.234375 196.648438 C 272.238281 196.632812 272.242188 196.613281 272.25 196.597656 Z M 311.8125 158.394531 C 310.957031 158.960938 310.164062 159.613281 309.429688 160.328125 C 308.960938 159.007812 308.492188 157.6875 308.015625 156.371094 C 307.457031 154.828125 305.210938 155.425781 305.550781 157.050781 L 306.886719 163.460938 C 304.90625 166.589844 303.898438 170.355469 304.230469 174.078125 C 304.429688 176.296875 305.117188 178.308594 306.148438 180.082031 C 305.609375 180.144531 305.074219 180.203125 304.554688 180.257812 C 297.074219 181.007812 289.589844 181.757812 282.105469 182.507812 C 281.277344 181.8125 280.476562 181.089844 279.703125 180.335938 C 280.015625 179.367188 280.332031 178.394531 280.640625 177.421875 C 290.128906 162.484375 296.675781 145.710938 299.828125 128.296875 C 299.960938 128.542969 300.097656 128.78125 300.230469 129.023438 C 304.449219 138.667969 308.316406 148.464844 311.8125 158.394531 Z M 259.46875 188.636719 C 259.355469 188.855469 259.242188 189.078125 259.125 189.300781 C 259.019531 189.347656 258.910156 189.386719 258.804688 189.4375 C 258.878906 189.164062 258.957031 188.890625 259.03125 188.617188 C 259.179688 188.628906 259.324219 188.636719 259.46875 188.636719 Z M 253.535156 199.242188 C 253.054688 199.308594 252.570312 199.375 252.089844 199.445312 C 252.207031 198.144531 252.292969 196.847656 252.351562 195.542969 C 253.183594 195.066406 254.03125 194.613281 254.886719 194.167969 C 254.433594 195.859375 253.976562 197.546875 253.535156 199.242188 Z M 243.203125 169.730469 C 241.851562 165.394531 240.207031 161.148438 238.289062 157.027344 C 238.273438 156.984375 238.265625 156.941406 238.253906 156.894531 C 241.566406 161.945312 243.664062 167.632812 244.796875 173.5625 C 244.296875 172.273438 243.765625 170.996094 243.203125 169.730469 Z M 209.394531 134.898438 C 208.039062 134.414062 206.652344 134.050781 205.230469 133.871094 C 206.957031 133.460938 208.613281 133.742188 210.15625 134.449219 C 209.898438 134.59375 209.648438 134.746094 209.394531 134.898438 Z M 198.636719 134.851562 C 198.453125 134.9375 198.269531 135.023438 198.089844 135.121094 C 198.34375 134.4375 198.601562 133.757812 198.863281 133.078125 C 198.789062 133.667969 198.710938 134.257812 198.636719 134.851562 Z M 182.828125 225.460938 C 181.285156 223.058594 180.054688 220.414062 179.128906 217.675781 C 178.957031 216.039062 178.84375 214.398438 178.78125 212.75 C 179.796875 217.085938 181.144531 221.339844 182.828125 225.460938 Z M 216.550781 260.980469 C 216.910156 261.101562 217.277344 261.210938 217.644531 261.300781 C 217.269531 261.214844 216.898438 261.113281 216.53125 260.996094 C 216.539062 260.992188 216.542969 260.988281 216.550781 260.984375 Z M 218.292969 261.433594 C 218.199219 261.417969 218.109375 261.398438 218.015625 261.378906 C 218.109375 261.398438 218.203125 261.417969 218.292969 261.433594 Z M 245.09375 226.378906 C 245.617188 225.222656 246.117188 224.054688 246.582031 222.875 C 246.175781 224.855469 245.71875 226.828125 245.164062 228.777344 C 243.75 233.769531 241.847656 238.617188 239.449219 243.21875 C 239.308594 243.488281 239.15625 243.757812 239.011719 244.027344 C 241.59375 238.355469 243.628906 232.441406 245.09375 226.375 Z M 266.480469 200.078125 C 266.65625 200.054688 266.832031 200.03125 267.007812 200.007812 C 266.800781 200.113281 266.597656 200.222656 266.390625 200.328125 C 266.421875 200.246094 266.449219 200.160156 266.480469 200.078125 Z M 332.480469 206.507812 C 333.449219 210.257812 334.304688 214.035156 335.03125 217.835938 C 334.199219 214.371094 333.371094 210.90625 332.542969 207.441406 C 332.519531 207.132812 332.507812 206.820312 332.480469 206.507812 Z M 332.796875 192.226562 C 333.171875 192.046875 333.546875 191.867188 333.917969 191.6875 C 334.816406 195.28125 335.644531 198.894531 336.398438 202.523438 C 335.148438 199.15625 333.964844 195.769531 332.828125 192.367188 C 332.816406 192.320312 332.808594 192.273438 332.796875 192.226562 Z M 333.269531 189.125 C 332.925781 189.289062 332.578125 189.449219 332.230469 189.605469 C 332.058594 188.828125 331.871094 188.058594 331.695312 187.28125 C 332.019531 187.136719 332.339844 186.984375 332.660156 186.835938 C 332.867188 187.597656 333.070312 188.363281 333.269531 189.125 Z M 335.421875 175.472656 C 334.644531 175.515625 333.96875 176.160156 333.542969 176.867188 C 333.503906 176.929688 333.476562 177 333.449219 177.066406 C 333.160156 177.128906 332.875 177.191406 332.585938 177.253906 C 332.433594 176.761719 332.285156 176.269531 332.132812 175.78125 C 333.210938 175.546875 334.289062 175.328125 335.367188 175.121094 C 335.386719 175.238281 335.40625 175.355469 335.421875 175.472656 Z M 330.074219 177.792969 C 329.976562 177.816406 329.878906 177.835938 329.78125 177.855469 C 329.71875 177.351562 329.652344 176.851562 329.578125 176.347656 C 329.597656 176.34375 329.613281 176.339844 329.628906 176.335938 C 329.777344 176.820312 329.929688 177.308594 330.074219 177.792969 Z M 276.054688 133.875 C 275.304688 136.425781 274.574219 138.976562 273.855469 141.535156 C 273.105469 144.054688 272.398438 146.589844 271.726562 149.132812 C 271.636719 148.5625 271.550781 147.988281 271.460938 147.414062 C 272.949219 142.886719 274.488281 138.378906 276.054688 133.878906 Z M 269.945312 153.910156 C 269.425781 154.933594 268.914062 155.957031 268.382812 156.96875 C 268.832031 155.542969 269.296875 154.121094 269.753906 152.699219 C 269.820312 153.101562 269.882812 153.507812 269.945312 153.910156 Z M 268.335938 162.402344 C 267.957031 163.929688 267.585938 165.453125 267.21875 166.980469 C 265.019531 172.761719 263.074219 178.636719 261.375 184.585938 C 260.957031 184.628906 260.539062 184.671875 260.121094 184.710938 C 261.628906 179.332031 263.171875 173.960938 264.785156 168.609375 C 265.996094 166.558594 267.183594 164.488281 268.335938 162.402344 Z M 257.390625 184.984375 C 257.105469 185.015625 256.816406 185.042969 256.53125 185.074219 C 255.242188 185.199219 254.824219 186.691406 255.886719 187.457031 C 256.113281 187.621094 256.347656 187.761719 256.578125 187.890625 C 256.304688 188.882812 256.03125 189.871094 255.761719 190.863281 C 254.644531 191.410156 253.535156 191.984375 252.441406 192.582031 C 252.460938 190.898438 252.429688 189.214844 252.355469 187.53125 C 254.894531 184.03125 257.347656 180.46875 259.695312 176.839844 C 258.910156 179.550781 258.144531 182.265625 257.386719 184.984375 Z M 249.886719 192.8125 C 249.808594 192.277344 249.726562 191.746094 249.640625 191.210938 C 249.722656 191.097656 249.8125 190.988281 249.894531 190.878906 C 249.898438 191.523438 249.898438 192.167969 249.886719 192.8125 Z M 249.003906 187.820312 C 248.820312 186.941406 248.628906 186.0625 248.421875 185.183594 C 248.414062 181.363281 248.117188 177.550781 247.453125 173.78125 C 246.074219 165.976562 242.996094 158.5 238.042969 152.277344 C 237.039062 151.019531 235.949219 149.800781 234.789062 148.640625 C 234.753906 148.582031 234.726562 148.519531 234.691406 148.460938 C 233.515625 146.484375 232.070312 144.679688 230.390625 143.152344 C 229.554688 141.933594 228.6875 140.734375 227.789062 139.558594 C 227.105469 138.660156 226.378906 137.777344 225.628906 136.910156 C 227.636719 137.957031 229.5 139.316406 231.144531 140.796875 C 239.433594 148.28125 244.324219 159.53125 247.136719 170.148438 C 248.582031 175.585938 249.453125 181.175781 249.765625 186.804688 C 249.515625 187.148438 249.253906 187.480469 249.003906 187.820312 Z M 224.425781 139.425781 C 223.828125 139.195312 223.210938 138.992188 222.582031 138.828125 C 221.226562 138.46875 219.847656 138.269531 218.46875 138.199219 L 218.417969 138.171875 C 217.546875 137.113281 216.601562 136.066406 215.578125 135.117188 C 215.730469 135.089844 215.878906 135.054688 216.03125 135.03125 C 217.484375 134.808594 218.921875 134.84375 220.324219 135.078125 C 221.796875 136.421875 223.160156 137.890625 224.425781 139.425781 Z M 213.101562 133.148438 C 211.023438 131.78125 208.6875 130.941406 206.074219 131.164062 C 204.363281 131.304688 202.839844 131.875 201.476562 132.730469 C 201.59375 131.800781 201.707031 130.871094 201.816406 129.9375 C 205.464844 128.320312 209.597656 128.492188 213.488281 130.359375 C 214.691406 130.933594 215.832031 131.621094 216.929688 132.371094 C 215.601562 132.46875 214.324219 132.742188 213.101562 133.148438 Z M 194.296875 138.125 C 193.886719 138.574219 193.5 139.050781 193.136719 139.554688 C 191.929688 141.21875 190.972656 143.054688 190.15625 144.964844 C 189.265625 146.1875 188.453125 147.464844 187.707031 148.777344 C 187.96875 148.222656 188.234375 147.671875 188.503906 147.125 C 190.433594 143.230469 192.492188 139.058594 195.230469 135.546875 C 194.914062 136.40625 194.601562 137.265625 194.296875 138.125 Z M 149.984375 205.222656 C 150.003906 205.03125 149.980469 204.839844 149.921875 204.65625 C 153.136719 202.882812 156.351562 201.109375 159.570312 199.332031 L 154.664062 205.539062 C 153.101562 205.476562 151.539062 205.378906 149.988281 205.222656 Z M 137.273438 208.710938 C 137.140625 208.726562 137.007812 208.742188 136.871094 208.761719 C 136.722656 207.871094 135.570312 207.183594 134.710938 208.003906 C 134.285156 208.40625 133.851562 208.804688 133.410156 209.199219 C 132.773438 209.285156 132.136719 209.359375 131.503906 209.445312 C 131.34375 208.925781 131.1875 208.40625 131.023438 207.890625 C 134.15625 207.546875 137.292969 207.238281 140.429688 206.96875 C 139.378906 207.546875 138.328125 208.128906 137.273438 208.710938 Z M 97.832031 217.347656 C 99.324219 218.40625 100.964844 219.265625 102.695312 219.925781 C 101.710938 220.539062 100.71875 221.132812 99.714844 221.710938 C 94.457031 222.597656 89.183594 223.386719 83.898438 224.085938 C 84.351562 222.648438 84.804688 221.210938 85.257812 219.773438 C 89.441406 218.925781 93.632812 218.121094 97.832031 217.347656 Z M 123.871094 205.761719 C 123.542969 203.867188 123.210938 201.976562 122.878906 200.082031 C 123.371094 202.09375 123.84375 204.113281 124.3125 206.128906 C 124.1875 206.148438 124.066406 206.164062 123.945312 206.179688 C 123.917969 206.039062 123.894531 205.898438 123.871094 205.761719 Z M 67.972656 223.671875 C 68.019531 223.609375 68.0625 223.542969 68.109375 223.476562 C 68.644531 223.355469 69.179688 223.226562 69.71875 223.105469 C 69.652344 223.324219 69.585938 223.546875 69.523438 223.769531 C 69.40625 224.175781 69.300781 224.585938 69.183594 224.992188 C 68.683594 224.945312 68.183594 224.890625 67.6875 224.835938 C 67.78125 224.449219 67.875 224.0625 67.96875 223.671875 Z M 70.320312 220.351562 C 70.433594 220.1875 70.550781 220.023438 70.664062 219.859375 C 70.621094 220.007812 70.578125 220.15625 70.535156 220.304688 C 70.460938 220.320312 70.390625 220.335938 70.320312 220.351562 Z M 68.230469 228.4375 C 68.039062 229.125 67.847656 229.8125 67.65625 230.5 C 67.21875 230.449219 66.777344 230.394531 66.339844 230.339844 C 66.484375 229.75 66.628906 229.160156 66.773438 228.570312 C 67.257812 228.523438 67.746094 228.484375 68.230469 228.4375 Z M 73.542969 229.742188 C 73.671875 230.164062 73.816406 230.585938 73.972656 231 C 73.691406 230.988281 73.414062 230.964844 73.136719 230.949219 C 73.273438 230.546875 73.40625 230.144531 73.542969 229.742188 Z M 78.3125 224.410156 C 78.269531 224.542969 78.222656 224.671875 78.179688 224.804688 C 77.734375 224.855469 77.289062 224.914062 76.84375 224.964844 C 76.535156 224.230469 76.238281 223.488281 75.945312 222.746094 C 75.984375 222.636719 76.019531 222.527344 76.058594 222.417969 C 76.164062 222.15625 76.273438 221.898438 76.378906 221.640625 C 77.398438 221.417969 78.414062 221.195312 79.4375 220.980469 C 79.058594 222.125 78.691406 223.269531 78.3125 224.410156 Z M 77.527344 218.773438 C 77.691406 218.355469 77.855469 217.9375 78.023438 217.519531 C 78.945312 217.285156 79.871094 217.046875 80.796875 216.820312 C 80.652344 217.273438 80.5 217.726562 80.351562 218.179688 C 79.410156 218.378906 78.46875 218.574219 77.527344 218.777344 Z M 72.546875 212.464844 C 72.5 212.539062 72.449219 212.613281 72.402344 212.691406 C 72.378906 212.621094 72.359375 212.554688 72.339844 212.488281 C 72.417969 212.34375 72.496094 212.199219 72.574219 212.054688 C 72.566406 212.191406 72.554688 212.328125 72.546875 212.464844 Z M 109.667969 222.921875 C 109.464844 222.964844 109.261719 222.996094 109.058594 223.035156 C 109.03125 222.902344 109.003906 222.773438 108.972656 222.640625 C 109.195312 222.597656 109.417969 222.554688 109.636719 222.511719 C 109.648438 222.648438 109.65625 222.785156 109.667969 222.921875 Z M 82.070312 229.867188 C 82.25 229.300781 82.429688 228.730469 82.609375 228.160156 C 83.972656 228.160156 85.335938 228.132812 86.699219 228.089844 C 85.171875 228.71875 83.628906 229.3125 82.070312 229.867188 Z M 81.730469 213.957031 C 80.875 214.164062 80.019531 214.378906 79.164062 214.589844 C 80.636719 210.761719 82.046875 206.910156 83.402344 203.039062 L 91.164062 183.492188 C 90.550781 185.6875 89.929688 187.882812 89.296875 190.074219 C 86.824219 198.050781 84.304688 206.011719 81.730469 213.957031 Z M 105.292969 226.304688 C 102.582031 227.304688 99.828125 228.203125 97.042969 229.011719 C 98.253906 228.332031 99.46875 227.667969 100.671875 226.976562 C 102.214844 226.777344 103.757812 226.550781 105.292969 226.304688 Z M 109.351562 218.796875 C 109.242188 218.863281 109.132812 218.933594 109.023438 219 C 108.941406 218.992188 108.859375 218.980469 108.777344 218.96875 C 108.964844 218.835938 109.148438 218.699219 109.339844 218.566406 C 109.34375 218.644531 109.347656 218.71875 109.351562 218.796875 Z M 64.417969 238.1875 C 64.441406 238.085938 64.46875 237.988281 64.492188 237.886719 C 64.589844 237.875 64.6875 237.863281 64.789062 237.851562 C 64.742188 237.957031 64.699219 238.0625 64.652344 238.171875 C 64.574219 238.179688 64.496094 238.183594 64.417969 238.1875 Z M 124.894531 208.613281 C 125.023438 209.179688 125.140625 209.746094 125.265625 210.308594 C 125.070312 210.339844 124.875 210.367188 124.679688 210.394531 C 124.582031 209.824219 124.480469 209.253906 124.382812 208.679688 C 124.554688 208.660156 124.722656 208.636719 124.894531 208.613281 Z M 125.804688 212.777344 C 125.9375 213.378906 126.070312 213.984375 126.199219 214.589844 C 125.964844 214.730469 125.726562 214.871094 125.484375 215.007812 C 125.363281 214.300781 125.238281 213.589844 125.113281 212.878906 C 125.34375 212.847656 125.574219 212.808594 125.804688 212.777344 Z M 109.160156 215.585938 C 108.671875 215.941406 108.179688 216.292969 107.683594 216.640625 C 107.613281 216.304688 107.546875 215.972656 107.476562 215.640625 C 108.035156 215.546875 108.589844 215.457031 109.148438 215.367188 C 109.152344 215.4375 109.15625 215.511719 109.160156 215.585938 Z M 105.410156 218.183594 C 105.394531 218.195312 105.378906 218.203125 105.363281 218.214844 C 104.105469 217.816406 102.878906 217.285156 101.710938 216.640625 C 102.792969 216.449219 103.875 216.246094 104.957031 216.058594 C 105.105469 216.765625 105.261719 217.472656 105.410156 218.183594 Z M 63.539062 221.890625 C 63.328125 221.941406 63.113281 221.988281 62.898438 222.035156 C 62.445312 222.144531 61.996094 222.257812 61.542969 222.363281 C 61.535156 222.269531 61.527344 222.175781 61.523438 222.085938 C 62.242188 221.867188 62.964844 221.660156 63.683594 221.445312 C 63.636719 221.59375 63.589844 221.742188 63.542969 221.890625 Z M 107.949219 211.140625 C 108.203125 211.710938 108.457031 212.28125 108.707031 212.851562 C 108.125 212.945312 107.542969 213.039062 106.964844 213.136719 C 106.847656 212.550781 106.730469 211.964844 106.617188 211.378906 C 107.058594 211.300781 107.503906 211.21875 107.949219 211.140625 Z M 106.125 208.882812 C 105.929688 207.871094 105.738281 206.859375 105.546875 205.851562 C 105.996094 206.816406 106.4375 207.785156 106.878906 208.753906 C 106.628906 208.796875 106.378906 208.835938 106.125 208.882812 Z M 104.46875 213.578125 C 102.539062 213.910156 100.609375 214.25 98.679688 214.597656 C 98.132812 214.148438 97.613281 213.671875 97.125 213.167969 C 99.453125 212.699219 101.785156 212.246094 104.121094 211.820312 C 104.238281 212.40625 104.351562 212.992188 104.46875 213.578125 Z M 95.300781 215.210938 C 92.242188 215.78125 89.1875 216.371094 86.136719 216.980469 C 86.300781 216.464844 86.464844 215.949219 86.625 215.433594 C 89.089844 214.867188 91.558594 214.316406 94.035156 213.796875 C 94.433594 214.292969 94.855469 214.761719 95.300781 215.210938 Z M 64.636719 218.503906 C 64.480469 218.546875 64.328125 218.59375 64.175781 218.636719 C 64.425781 218.300781 64.671875 217.964844 64.917969 217.628906 C 64.824219 217.917969 64.730469 218.210938 64.636719 218.503906 Z M 58.1875 226.738281 C 57.96875 226.753906 57.753906 226.773438 57.539062 226.789062 C 57.71875 226.585938 57.894531 226.378906 58.074219 226.175781 C 58.109375 226.363281 58.148438 226.550781 58.1875 226.738281 Z M 71.085938 236.996094 C 72.144531 236.847656 73.203125 236.691406 74.261719 236.527344 C 74.226562 236.632812 74.191406 236.734375 74.152344 236.839844 C 73.085938 237.050781 72.015625 237.242188 70.945312 237.417969 C 70.992188 237.277344 71.039062 237.136719 71.085938 236.996094 Z M 133.074219 214.792969 C 133.003906 214.546875 132.9375 214.300781 132.871094 214.058594 C 134.632812 213.085938 136.398438 212.113281 138.164062 211.136719 C 138.679688 211.074219 139.195312 211.007812 139.710938 210.945312 C 138.128906 212.128906 136.511719 213.257812 134.863281 214.339844 C 134.265625 214.492188 133.671875 214.644531 133.074219 214.792969 Z M 158.78125 204.429688 L 164.660156 196.988281 C 165.378906 197.417969 166.101562 197.839844 166.824219 198.257812 C 163.976562 200.085938 161.28125 202.148438 158.78125 204.429688 Z M 145.851562 203.976562 C 145.015625 204.039062 144.179688 204.097656 143.347656 204.164062 C 140.542969 203.527344 137.8125 202.636719 135.210938 201.359375 C 133.976562 200.753906 132.769531 200.050781 131.609375 199.273438 C 132.800781 195.664062 134.773438 192.375 138.21875 190.441406 C 143.457031 187.5 149.648438 189.210938 154.777344 191.511719 C 157.179688 192.59375 159.460938 193.890625 161.714844 195.226562 Z M 133.09375 203.148438 C 134.246094 203.753906 135.425781 204.285156 136.625 204.757812 C 134.492188 204.960938 132.367188 205.179688 130.238281 205.417969 C 130.28125 205.144531 130.3125 204.867188 130.359375 204.59375 C 130.503906 203.6875 130.679688 202.769531 130.890625 201.859375 C 131.613281 202.316406 132.34375 202.75 133.09375 203.144531 Z M 128.578125 200.550781 L 128.5 200.191406 C 128.546875 200.226562 128.59375 200.265625 128.640625 200.300781 C 128.617188 200.382812 128.597656 200.46875 128.578125 200.550781 Z M 111.410156 205.589844 C 111.378906 205.5 111.347656 205.410156 111.3125 205.320312 C 111.246094 205.132812 111.140625 204.980469 111.015625 204.851562 C 110.910156 204.214844 110.804688 203.574219 110.695312 202.9375 C 110.933594 203.824219 111.171875 204.707031 111.410156 205.589844 Z M 91.039062 208.324219 C 91.425781 209.464844 91.914062 210.527344 92.484375 211.523438 C 90.828125 211.875 89.171875 212.234375 87.519531 212.605469 C 88.46875 209.601562 89.414062 206.597656 90.363281 203.59375 C 90.3125 205.1875 90.523438 206.789062 91.039062 208.324219 Z M 100.710938 161.589844 C 100.917969 161.171875 101.128906 160.753906 101.339844 160.335938 C 100.542969 162.863281 99.746094 165.394531 98.945312 167.921875 C 99.535156 165.808594 100.121094 163.699219 100.710938 161.589844 Z M 71.242188 198.832031 C 70.753906 200.234375 70.269531 201.640625 69.785156 203.046875 C 69.492188 201.789062 69.214844 200.527344 68.957031 199.261719 C 70.410156 196.140625 71.863281 193.019531 73.316406 189.898438 C 72.632812 192.878906 71.9375 195.851562 71.242188 198.832031 Z M 59.113281 235.992188 C 58.851562 236.023438 58.589844 236.054688 58.328125 236.085938 C 58.730469 235.601562 59.136719 235.121094 59.535156 234.632812 C 59.398438 235.085938 59.253906 235.535156 59.113281 235.988281 Z M 144.578125 210.375 C 145.089844 210.320312 145.601562 210.257812 146.109375 210.199219 C 144.945312 210.800781 143.777344 211.398438 142.59375 211.964844 C 143.261719 211.445312 143.921875 210.914062 144.578125 210.375 Z M 172.355469 197.976562 C 172.351562 198.03125 172.347656 198.085938 172.339844 198.136719 C 172.289062 198.113281 172.238281 198.089844 172.1875 198.066406 C 172.242188 198.035156 172.296875 198.007812 172.355469 197.976562 Z M 180.875 227.125 C 182.503906 229.617188 184.441406 231.875 186.699219 233.75 C 186.714844 233.78125 186.730469 233.816406 186.746094 233.847656 C 187.65625 235.730469 188.777344 237.726562 190.078125 239.65625 C 190.800781 241.582031 191.5625 243.488281 192.375 245.378906 C 186.925781 241.140625 183.171875 234.90625 181.171875 228.199219 C 181.066406 227.84375 180.972656 227.484375 180.875 227.128906 Z M 250.832031 208.265625 C 251.210938 206.332031 251.519531 204.378906 251.765625 202.417969 C 252.566406 202.324219 253.363281 202.207031 254.15625 202.082031 C 254.496094 202.175781 254.859375 202.140625 255.160156 201.929688 C 255.671875 201.839844 256.175781 201.730469 256.679688 201.628906 C 254.796875 204.757812 252.816406 207.828125 250.726562 210.820312 C 250.773438 209.96875 250.8125 209.117188 250.832031 208.265625 Z M 257.957031 205.714844 C 258.855469 204.097656 259.753906 202.476562 260.65625 200.855469 C 261.238281 200.777344 261.824219 200.699219 262.410156 200.621094 C 262.382812 201.308594 262.359375 201.996094 262.34375 202.683594 C 260.886719 203.625 259.484375 204.644531 258.140625 205.738281 C 258.082031 205.730469 258.019531 205.722656 257.957031 205.714844 Z M 277.054688 198.660156 C 277.726562 198.570312 278.394531 198.480469 279.066406 198.386719 C 281.867188 198.996094 284.695312 199.453125 287.539062 199.765625 C 286.066406 200.121094 284.589844 200.460938 283.109375 200.789062 C 277.179688 202.09375 271.199219 203.164062 265.183594 204.011719 C 268.902344 201.808594 272.910156 200.074219 277.054688 198.660156 Z M 336.308594 209.378906 C 336.667969 210.289062 337.027344 211.199219 337.394531 212.105469 C 337.34375 212.882812 337.285156 213.65625 337.222656 214.429688 C 336.917969 212.746094 336.625 211.0625 336.308594 209.378906 Z M 335.015625 185.746094 C 335.582031 185.480469 336.144531 185.207031 336.703125 184.933594 C 337.097656 188.546875 337.375 192.160156 337.535156 195.777344 C 336.757812 192.417969 335.914062 189.074219 335.015625 185.746094 Z M 332.960938 162.722656 C 333.078125 163.242188 333.199219 163.765625 333.3125 164.289062 C 332.648438 163.492188 332.023438 162.664062 331.417969 161.820312 C 331.929688 162.125 332.441406 162.429688 332.960938 162.722656 Z M 334.59375 170.640625 C 334.714844 171.300781 334.828125 171.960938 334.945312 172.625 C 333.75 172.855469 332.558594 173.097656 331.371094 173.355469 C 330.71875 171.3125 330.039062 169.273438 329.339844 167.246094 C 331.089844 168.375 332.84375 169.507812 334.59375 170.640625 Z M 323.171875 168.183594 C 323.144531 168.121094 323.125 168.058594 323.097656 168 C 322.648438 166.109375 322.195312 164.222656 321.742188 162.332031 C 321.761719 162.34375 321.777344 162.355469 321.792969 162.367188 C 322.234375 164.308594 322.695312 166.25 323.171875 168.183594 Z M 286.851562 101.226562 C 286.800781 101.253906 286.753906 101.285156 286.710938 101.320312 C 279.753906 90.433594 272.324219 79.847656 264.449219 69.597656 C 270.851562 77.410156 276.890625 85.53125 282.535156 93.828125 C 283.125 94.695312 283.710938 95.566406 284.292969 96.441406 C 285.15625 98.03125 286.007812 99.625 286.851562 101.226562 Z M 195.136719 27.902344 C 205.046875 26.691406 215.015625 28.078125 224.011719 32.484375 C 228.273438 34.574219 232.230469 37.175781 235.953125 40.09375 C 236.808594 40.941406 237.652344 41.804688 238.484375 42.679688 C 215.289062 41.667969 191.730469 45.886719 170.035156 53.734375 C 150.523438 60.792969 132.40625 70.84375 115.566406 82.800781 C 127.714844 70.433594 140.96875 59.105469 154.628906 48.667969 C 162.964844 42.296875 171.78125 36.046875 181.160156 31.011719 C 185.726562 29.5625 190.382812 28.480469 195.136719 27.902344 Z M 66.292969 198.945312 C 64.746094 202.269531 63.199219 205.597656 61.652344 208.921875 C 61.546875 209.148438 61.441406 209.371094 61.335938 209.597656 C 61.582031 200.953125 62.582031 192.3125 64.230469 183.769531 C 64.625 188.839844 65.308594 193.902344 66.292969 198.945312 Z M 53.390625 230.464844 C 53.425781 230.472656 53.457031 230.484375 53.488281 230.488281 C 55.203125 230.929688 56.925781 231.324219 58.65625 231.671875 C 57.25 233.40625 55.832031 235.132812 54.375 236.824219 C 54.152344 237.085938 54.054688 237.449219 54.066406 237.808594 C 53.972656 237.792969 53.875 237.785156 53.777344 237.769531 C 53.753906 237.761719 53.730469 237.757812 53.707031 237.753906 C 52.972656 235.1875 52.304688 232.601562 51.699219 230.003906 C 52.261719 230.160156 52.824219 230.320312 53.390625 230.464844 Z M 58.683594 240.761719 C 58.726562 241.835938 58.988281 242.886719 59.480469 243.78125 C 59.4375 243.972656 59.394531 244.164062 59.355469 244.355469 C 58.300781 244.789062 57.246094 245.230469 56.195312 245.671875 C 55.597656 243.925781 55.027344 242.171875 54.492188 240.410156 C 55.875 240.597656 57.277344 240.710938 58.683594 240.761719 Z M 113.804688 236.792969 C 114.46875 240.746094 115.132812 244.699219 115.796875 248.652344 C 115.035156 244.71875 114.371094 240.761719 113.804688 236.792969 Z M 115.140625 229.394531 C 115.242188 229.367188 115.339844 229.339844 115.441406 229.316406 C 116.113281 231.085938 116.773438 232.863281 117.417969 234.644531 C 117.808594 239.222656 118.117188 243.808594 118.335938 248.402344 C 117.269531 242.0625 116.207031 235.730469 115.140625 229.394531 Z M 129.1875 235.339844 C 129.101562 233.121094 129.0625 230.902344 129.046875 228.6875 C 130.136719 234.484375 131.136719 240.300781 132.039062 246.128906 C 131.132812 242.523438 130.191406 238.921875 129.1875 235.339844 Z M 155.746094 211.242188 C 159.074219 210.242188 162.398438 209.214844 165.707031 208.136719 C 167.042969 207.703125 166.855469 205.613281 165.363281 205.625 C 164.574219 205.632812 163.777344 205.636719 162.980469 205.644531 C 165.246094 203.789062 167.390625 201.792969 169.421875 199.6875 C 169.695312 199.832031 169.964844 199.980469 170.242188 200.121094 C 170.867188 200.4375 171.515625 200.71875 172.167969 200.980469 C 172.125 202.03125 172.105469 203.082031 172.101562 204.132812 C 170.730469 205.535156 169.289062 206.894531 167.765625 208.203125 C 162.6875 212.578125 156.894531 216.050781 150.597656 218.308594 C 152.125 215.8125 153.851562 213.453125 155.746094 211.242188 Z M 176.386719 217.535156 C 176.488281 217.855469 176.601562 218.175781 176.710938 218.496094 C 177.078125 221.777344 177.667969 225.015625 178.53125 228.125 C 177.445312 224.925781 176.59375 221.644531 175.960938 218.328125 C 175.589844 216.398438 175.300781 214.449219 175.085938 212.492188 C 175.441406 214.1875 175.863281 215.875 176.386719 217.535156 Z M 192.597656 248.703125 C 191.734375 248.351562 190.855469 247.882812 189.96875 247.246094 C 187.398438 245.414062 185.4375 242.8125 183.816406 240.007812 C 186.089844 243.40625 188.980469 246.367188 192.601562 248.703125 Z M 198.300781 251.84375 C 198.695312 252.449219 199.085938 253.054688 199.496094 253.648438 C 202.097656 257.386719 205.492188 261.609375 210.28125 262.359375 C 210.492188 262.394531 210.699219 262.410156 210.90625 262.429688 C 211.816406 262.921875 212.769531 263.347656 213.773438 263.675781 C 215.703125 264.3125 217.550781 264.414062 219.289062 264.109375 C 219.675781 264.128906 220.0625 264.132812 220.453125 264.109375 C 220.941406 264.085938 221.40625 264.023438 221.867188 263.945312 C 217.953125 265.6875 213.667969 266.148438 209.328125 264.140625 C 204.269531 261.800781 200.761719 257.050781 198.0625 251.878906 C 198.140625 251.867188 198.222656 251.855469 198.300781 251.84375 Z M 250.023438 218.125 C 250.136719 217.328125 250.230469 216.53125 250.320312 215.730469 C 250.683594 215.242188 251.054688 214.757812 251.410156 214.265625 C 251.859375 214.835938 252.679688 215.085938 253.230469 214.375 C 254.984375 212.125 256.9375 210.140625 259.03125 208.375 C 259.457031 208.414062 259.878906 208.453125 260.304688 208.488281 C 256.957031 215.945312 253.078125 223.175781 249.070312 230.179688 C 249.738281 226.203125 250.035156 222.148438 250.023438 218.125 Z M 295.714844 200.269531 C 297.363281 200.289062 299.007812 200.261719 300.65625 200.183594 C 292.058594 203.53125 282.953125 205.578125 273.730469 206.15625 C 271.480469 206.296875 269.226562 206.347656 266.976562 206.316406 C 276.675781 204.878906 286.273438 202.855469 295.714844 200.269531 Z M 306.019531 197.203125 C 307.234375 196.8125 308.445312 196.410156 309.652344 196 C 309.71875 196.003906 309.785156 196 309.847656 196.007812 C 309.222656 196.335938 308.585938 196.652344 307.949219 196.964844 C 307.304688 197.054688 306.660156 197.132812 306.015625 197.203125 Z M 326.265625 158.390625 C 327.527344 160.730469 328.984375 162.949219 330.617188 165.027344 C 329.730469 164.449219 328.839844 163.878906 327.953125 163.300781 C 327.34375 161.613281 326.722656 159.933594 326.082031 158.257812 C 326.140625 158.300781 326.203125 158.347656 326.265625 158.390625 Z M 319.488281 151.246094 C 319.96875 153.777344 320.476562 156.300781 321.015625 158.820312 C 320.0625 158.203125 319.101562 157.582031 318.144531 156.964844 C 318.101562 156.808594 318.058594 156.652344 318.011719 156.496094 C 317.765625 155.660156 317.03125 155.449219 316.425781 155.664062 C 314.101562 148.5 311.394531 141.460938 308.355469 134.601562 C 306.117188 129.542969 303.691406 124.566406 301.113281 119.667969 C 301.214844 118.792969 301.300781 117.917969 301.382812 117.042969 C 305.519531 123.816406 309.429688 130.722656 313.09375 137.757812 C 315.390625 142.164062 317.558594 146.660156 319.488281 151.246094 Z M 296.648438 109.742188 C 296.492188 109.871094 296.359375 110.039062 296.269531 110.257812 C 296.21875 110.378906 296.167969 110.5 296.117188 110.621094 C 294.621094 108.023438 293.078125 105.453125 291.496094 102.910156 C 291.519531 102.367188 291.175781 101.910156 290.734375 101.679688 C 289.363281 99.5 287.960938 97.335938 286.53125 95.191406 C 286.078125 94.355469 285.613281 93.527344 285.15625 92.695312 C 289.160156 98.207031 293 103.839844 296.691406 109.570312 C 296.675781 109.628906 296.664062 109.683594 296.648438 109.742188 Z M 207.464844 23.921875 C 203.4375 23.71875 199.410156 23.988281 195.425781 24.605469 C 198.023438 23.675781 200.660156 22.859375 203.34375 22.191406 C 206.71875 22.628906 210 23.433594 213.171875 24.582031 C 211.300781 24.246094 209.398438 24.019531 207.464844 23.921875 Z M 164.601562 38.210938 C 158.585938 42.355469 152.78125 46.808594 147.128906 51.292969 C 138.574219 58.074219 130.195312 65.230469 122.175781 72.789062 C 126.699219 67.769531 131.445312 62.960938 136.441406 58.425781 C 145.007812 50.652344 154.417969 43.703125 164.601562 38.210938 Z M 69.066406 156.261719 C 68.21875 158.679688 67.417969 161.113281 66.660156 163.566406 C 66.917969 160.082031 67.316406 156.609375 67.839844 153.160156 C 71.261719 144.363281 75.484375 135.875 80.320312 127.761719 C 82.460938 124.175781 84.710938 120.664062 87.0625 117.214844 C 79.933594 129.671875 73.832031 142.726562 69.066406 156.261719 Z M 63.828125 173.730469 C 60.679688 186.390625 58.871094 199.382812 58.757812 212.332031 C 57.789062 200.5 58.484375 188.558594 60.832031 176.871094 C 61.726562 172.425781 62.84375 168.035156 64.167969 163.710938 C 63.933594 167.042969 63.820312 170.382812 63.828125 173.730469 Z M 53.210938 227.058594 C 53.207031 227.066406 53.207031 227.070312 53.203125 227.078125 C 53.175781 227.078125 53.148438 227.078125 53.117188 227.082031 Z M 44.664062 189.667969 C 44.605469 201.761719 45.726562 213.851562 48.132812 225.699219 C 47.148438 225.953125 46.164062 226.210938 45.179688 226.46875 C 43.421875 214.289062 43.300781 201.914062 44.664062 189.667969 Z M 45.960938 231.324219 C 45.824219 230.5625 45.695312 229.796875 45.570312 229.03125 C 46.605469 228.757812 47.640625 228.472656 48.683594 228.203125 C 49.335938 231.195312 50.0625 234.171875 50.882812 237.125 C 49.796875 236.824219 48.742188 236.457031 47.730469 236.015625 C 47.101562 234.464844 46.515625 232.902344 45.964844 231.324219 Z M 58.683594 247.464844 C 58.203125 249.722656 57.742188 251.980469 57.304688 254.246094 C 56.246094 252.617188 55.234375 250.949219 54.253906 249.257812 C 55.734375 248.675781 57.207031 248.066406 58.683594 247.464844 Z M 94.363281 235.292969 C 95.0625 234.910156 95.761719 234.523438 96.457031 234.140625 C 100.402344 233.171875 104.34375 232.1875 108.277344 231.179688 C 110.425781 240.449219 112.78125 249.667969 115.355469 258.828125 C 116.59375 264.113281 117.992188 269.363281 119.574219 274.558594 C 120.304688 276.960938 121.085938 279.347656 121.890625 281.722656 C 119.1875 279.871094 116.558594 277.902344 114.019531 275.808594 C 101.59375 265.570312 91.335938 252.910156 83.550781 238.855469 C 87.308594 238.996094 91.0625 237.113281 94.363281 235.292969 Z M 120.46875 267.296875 C 120.929688 267.117188 121.304688 266.71875 121.308594 266.148438 C 121.320312 258.773438 121.097656 251.402344 120.660156 244.042969 C 121.550781 246.738281 122.40625 249.445312 123.230469 252.164062 C 125.441406 260.6875 127.441406 269.265625 129.195312 277.898438 C 129.410156 278.972656 129.621094 280.046875 129.832031 281.125 C 130.195312 283.179688 130.5625 285.238281 130.929688 287.292969 C 129.183594 286.332031 127.46875 285.320312 125.777344 284.261719 C 123.925781 278.632812 122.160156 272.976562 120.46875 267.296875 Z M 133.113281 284.8125 C 133.257812 284.722656 133.386719 284.613281 133.492188 284.476562 C 133.578125 284.980469 133.664062 285.484375 133.75 285.988281 C 133.871094 286.695312 134.554688 286.96875 135.175781 286.878906 C 135.40625 287.644531 135.617188 288.417969 135.851562 289.179688 C 136.347656 290.777344 138.597656 290.101562 138.320312 288.5 C 137.636719 284.59375 136.957031 280.6875 136.273438 276.78125 C 137.035156 277.285156 138.441406 276.855469 138.332031 275.746094 C 137.796875 270.304688 137.167969 264.871094 136.472656 259.449219 C 137.238281 260.066406 138.773438 259.367188 138.550781 258.074219 C 138.390625 257.148438 138.222656 256.222656 138.058594 255.300781 C 138.835938 255.625 139.980469 255.183594 139.90625 254.160156 C 139.152344 243.972656 137.636719 233.855469 135.371094 223.90625 C 136.292969 223.644531 137.222656 223.398438 138.144531 223.136719 C 139.746094 222.683594 139.066406 220.347656 137.464844 220.667969 C 136.558594 220.851562 135.65625 221.054688 134.746094 221.242188 C 134.523438 220.316406 134.292969 219.394531 134.054688 218.472656 C 136.617188 217.46875 139.152344 216.390625 141.648438 215.242188 C 144.445312 214.496094 147.234375 213.722656 150.015625 212.925781 C 150.179688 213.1875 150.429688 213.390625 150.738281 213.460938 C 149.265625 215.511719 147.925781 217.660156 146.742188 219.90625 C 146.230469 220.863281 147.074219 222.101562 148.183594 221.785156 C 157.335938 219.15625 165.390625 214.085938 172.171875 207.597656 C 172.386719 212.769531 173.113281 217.929688 174.363281 222.972656 C 175.75 228.5625 177.796875 233.996094 180.464844 239.097656 C 183.015625 243.964844 186.453125 249.085938 191.808594 251.121094 C 193.046875 251.59375 194.25 251.851562 195.414062 251.949219 C 197.261719 255.621094 199.402344 259.1875 202.28125 262.128906 C 205.421875 265.34375 209.402344 267.527344 213.90625 267.964844 C 218.160156 268.375 222.378906 266.96875 225.960938 264.738281 C 229.574219 262.488281 232.640625 259.585938 235.363281 256.347656 C 239.121094 253.660156 242.03125 249.855469 244.109375 245.75 C 245.21875 243.558594 246.148438 241.277344 246.925781 238.9375 C 252.109375 230.226562 257.101562 221.386719 261.382812 212.191406 C 261.925781 211.03125 262.453125 209.859375 262.96875 208.6875 C 278.722656 209.585938 294.605469 206.347656 308.78125 199.421875 C 310.121094 199.230469 311.457031 199.007812 312.785156 198.753906 C 313.042969 203.53125 313.371094 208.308594 313.769531 213.078125 C 313.878906 214.429688 315.941406 214.917969 316.28125 213.417969 C 316.414062 212.824219 316.535156 212.230469 316.660156 211.636719 C 317.476562 215.421875 318.289062 219.203125 319.105469 222.988281 C 315.371094 230.667969 310.65625 237.898438 305.34375 244.503906 C 282.441406 272.972656 248.03125 292.59375 212.210938 299.164062 C 194.578125 302.394531 176.242188 302.339844 158.777344 298.136719 C 150.109375 296.050781 141.753906 292.925781 133.875 288.871094 C 133.632812 287.515625 133.367188 286.167969 133.113281 284.816406 Z M 326.234375 243.671875 C 325.589844 239.238281 324.941406 234.804688 324.296875 230.375 C 324.316406 230.230469 324.335938 230.085938 324.351562 229.941406 C 324.71875 231.636719 325.113281 233.324219 325.523438 235.011719 C 325.484375 235.480469 325.453125 235.953125 325.40625 236.425781 C 325.351562 236.992188 325.703125 237.382812 326.160156 237.5625 C 326.214844 237.78125 326.269531 238 326.324219 238.214844 C 326.4375 238.652344 326.753906 238.929688 327.128906 239.054688 C 327.296875 239.703125 327.464844 240.351562 327.632812 241 C 327.703125 241.324219 327.773438 241.648438 327.84375 241.976562 C 327.714844 244.175781 327.519531 246.371094 327.253906 248.558594 C 326.914062 246.929688 326.574219 245.300781 326.234375 243.671875 Z M 332.832031 221.941406 C 333.050781 222.894531 333.269531 223.84375 333.488281 224.792969 C 333.191406 225.34375 332.890625 225.894531 332.59375 226.441406 C 332.699219 224.941406 332.777344 223.441406 332.832031 221.941406 Z M 331.605469 157.007812 C 330.28125 156.355469 328.796875 155.957031 327.152344 155.890625 C 326.109375 155.109375 325.085938 154.296875 324.09375 153.449219 C 323.816406 153.214844 323.441406 153.125 323.078125 153.15625 C 322.917969 152.75 322.757812 152.347656 322.589844 151.949219 C 322.238281 150.722656 321.886719 149.5 321.523438 148.277344 C 321.371094 147.753906 321.019531 147.476562 320.632812 147.394531 C 317.886719 141.285156 314.78125 135.335938 311.585938 129.542969 C 308.460938 123.867188 305.160156 118.285156 301.730469 112.789062 C 301.886719 110.46875 301.996094 108.148438 302.03125 105.824219 C 302.042969 104.953125 301.300781 104.519531 300.605469 104.59375 C 300.625 104.503906 300.648438 104.414062 300.667969 104.328125 C 301.039062 102.726562 298.589844 102.042969 298.203125 103.648438 C 297.992188 104.515625 297.773438 105.378906 297.554688 106.246094 C 291.105469 96.371094 284.195312 86.796875 276.828125 77.582031 C 276.328125 76.957031 275.8125 76.347656 275.308594 75.726562 C 270.253906 67.460938 264.90625 59.371094 259.296875 51.46875 C 265.855469 58.074219 271.976562 65.015625 277.695312 71.78125 C 290.855469 87.355469 302.847656 103.910156 313.566406 121.253906 C 319.210938 130.386719 324.609375 139.742188 329.527344 149.332031 C 330.257812 151.875 330.953125 154.433594 331.605469 157.011719 Z M 94.429688 90.996094 C 106.828125 78.214844 120.421875 66.597656 134.96875 56.328125 C 133.550781 57.605469 132.148438 58.902344 130.773438 60.222656 C 120.753906 69.863281 111.699219 80.566406 103.507812 91.847656 C 95.648438 98.0625 88.085938 104.660156 80.804688 111.523438 C 83.167969 106.59375 85.792969 101.78125 88.660156 97.113281 C 90.558594 95.046875 92.480469 93.003906 94.429688 90.996094 Z M 79.699219 116.097656 C 84.601562 111.378906 89.648438 106.777344 94.824219 102.324219 C 86.84375 112.375 79.683594 123.039062 73.652344 134.382812 C 72.429688 136.679688 71.265625 139.011719 70.148438 141.363281 C 72.082031 133.324219 74.707031 125.4375 77.960938 117.796875 C 78.542969 117.234375 79.117188 116.660156 79.699219 116.097656 Z M 65.449219 152.257812 C 61.308594 162.929688 58.332031 174.035156 56.84375 185.417969 C 55.378906 196.621094 55.429688 207.941406 56.921875 219.085938 C 56.605469 219.765625 56.289062 220.441406 55.976562 221.121094 C 54.664062 221.535156 53.355469 221.945312 52.046875 222.371094 C 50.988281 222.71875 50.792969 224.308594 51.835938 224.75 C 51.429688 224.851562 51.027344 224.953125 50.621094 225.054688 C 46.859375 206.457031 46.25 187.265625 48.535156 168.402344 C 50.644531 160.070312 53.421875 151.894531 56.816406 143.984375 C 58.050781 141.101562 59.371094 138.257812 60.75 135.441406 C 64.878906 130.988281 69.082031 126.613281 73.371094 122.324219 C 69.6875 132.027344 67.015625 142.0625 65.449219 152.257812 Z M 46.078125 167.605469 C 42.40625 182.019531 40.726562 196.933594 41.285156 211.734375 C 40.453125 205.410156 40.230469 198.992188 40.6875 192.546875 C 41.367188 182.933594 43.429688 173.503906 46.488281 164.394531 C 46.339844 165.460938 46.210938 166.535156 46.078125 167.605469 Z M 59.519531 257.53125 C 60.496094 253.71875 61.460938 249.90625 62.421875 246.089844 C 62.5 246.109375 62.574219 246.132812 62.65625 246.148438 C 64.351562 252.902344 66.628906 259.546875 69.550781 266.027344 C 70.832031 268.875 72.230469 271.65625 73.730469 274.378906 C 68.523438 269.210938 63.753906 263.597656 59.519531 257.53125 Z M 72.945312 267.28125 C 75.714844 272.359375 78.777344 277.28125 82.105469 282.019531 C 81.550781 281.554688 81 281.085938 80.453125 280.613281 C 77.671875 276.34375 75.15625 271.894531 72.945312 267.28125 Z M 322.257812 241.941406 C 322.417969 241.207031 322.566406 240.46875 322.714844 239.734375 C 322.851562 240.363281 322.988281 240.996094 323.125 241.625 C 323.804688 245.976562 324.511719 250.328125 325.273438 254.667969 C 325.375 255.238281 325.734375 255.515625 326.148438 255.578125 C 326.074219 255.953125 326 256.332031 325.917969 256.707031 C 321.007812 266.414062 314.503906 275.234375 306.574219 282.816406 C 313.824219 270.058594 319.105469 256.152344 322.253906 241.941406 Z M 331.628906 235.5 C 331.757812 234.585938 331.890625 233.671875 332.003906 232.753906 C 332.796875 231.363281 333.582031 229.96875 334.359375 228.566406 C 334.53125 229.308594 334.699219 230.046875 334.871094 230.789062 C 334.199219 233.976562 333.394531 237.144531 332.453125 240.289062 C 332.179688 238.691406 331.902344 237.097656 331.628906 235.5 Z M 341.554688 182.53125 C 342.21875 182.191406 342.886719 181.847656 343.546875 181.503906 C 344.992188 185.566406 346.339844 189.710938 347.558594 193.917969 C 345.988281 198.316406 344.226562 202.664062 342.324219 206.949219 C 342.65625 198.8125 342.402344 190.648438 341.554688 182.53125 Z M 276.164062 53.414062 C 275.464844 52.734375 274.761719 52.058594 274.054688 51.390625 C 274.175781 51.425781 274.296875 51.464844 274.417969 51.503906 C 275 52.140625 275.589844 52.769531 276.164062 53.414062 Z M 300.367188 84.140625 C 300.398438 84.179688 300.425781 84.21875 300.457031 84.257812 C 302.144531 86.726562 303.796875 89.226562 305.40625 91.757812 C 312.335938 104.035156 318.296875 116.863281 323.191406 130.082031 C 323.929688 132.070312 324.644531 134.078125 325.339844 136.101562 C 321.054688 128.457031 316.503906 120.96875 311.785156 113.628906 C 300.464844 96.027344 287.8125 79.273438 273.980469 63.566406 C 269.175781 58.113281 264.214844 52.730469 259.011719 47.601562 C 262.203125 48.207031 265.371094 48.921875 268.511719 49.761719 C 280.109375 60.230469 290.699219 71.945312 300.367188 84.140625 Z M 255.71875 44.433594 C 254.175781 42.980469 252.613281 41.546875 251.023438 40.144531 C 248.808594 37.171875 246.539062 34.167969 244.179688 31.203125 C 249.90625 34.707031 255.367188 38.667969 260.527344 42.890625 C 261.820312 43.949219 263.097656 45.03125 264.367188 46.121094 C 261.503906 45.464844 258.617188 44.90625 255.71875 44.433594 Z M 240.414062 30.828125 C 240.921875 31.441406 241.410156 32.070312 241.917969 32.691406 C 238.46875 30.082031 234.910156 27.628906 231.203125 25.375 C 229.222656 24.171875 227.199219 23.03125 225.140625 21.957031 C 229.382812 23.484375 233.511719 25.320312 237.515625 27.417969 C 238.496094 28.546875 239.464844 29.683594 240.414062 30.828125 Z M 231.9375 21.941406 C 232.164062 21.984375 232.390625 22.027344 232.613281 22.070312 C 232.71875 22.175781 232.824219 22.28125 232.925781 22.390625 C 232.59375 22.242188 232.269531 22.085938 231.9375 21.941406 Z M 173.125 28.1875 C 154.726562 35.851562 137.394531 46.203125 121.632812 58.382812 C 120.4375 59.304688 119.25 60.246094 118.070312 61.191406 C 132.464844 47.726562 149.121094 36.640625 167.078125 28.9375 C 174.289062 25.84375 181.925781 23.359375 189.742188 22.324219 C 184.0625 23.945312 178.5 25.949219 173.125 28.1875 Z M 80.425781 106.507812 C 78.765625 109.734375 77.21875 113.007812 75.792969 116.332031 C 74.242188 117.84375 72.703125 119.363281 71.179688 120.898438 C 69.105469 122.984375 67.058594 125.097656 65.027344 127.222656 C 65.105469 127.078125 65.1875 126.933594 65.269531 126.789062 C 69.917969 119.746094 75.007812 112.992188 80.425781 106.507812 Z M 48.761719 151.519531 C 45.726562 158.425781 43.203125 165.574219 41.351562 172.882812 C 42.066406 168.644531 42.96875 164.441406 44.058594 160.292969 C 44.867188 157.207031 45.785156 154.167969 46.789062 151.164062 C 47.710938 150.078125 48.628906 148.992188 49.5625 147.917969 C 49.285156 149.117188 49.015625 150.316406 48.761719 151.519531 Z M 86.203125 288.714844 C 86.914062 289.253906 87.632812 289.789062 88.355469 290.316406 C 88.738281 290.789062 89.125 291.261719 89.511719 291.730469 C 88.570312 290.953125 87.636719 290.171875 86.710938 289.378906 C 86.539062 289.160156 86.371094 288.933594 86.199219 288.710938 Z M 244.542969 322.476562 C 230.617188 324.503906 216.441406 324.785156 202.398438 323.851562 C 206.746094 323.542969 211.082031 323.128906 215.402344 322.605469 C 233.433594 320.429688 251.347656 316.480469 268.222656 309.664062 C 277.84375 305.773438 287.144531 300.929688 295.660156 294.984375 C 291.023438 301.289062 285.832031 307.167969 280.109375 312.464844 C 268.875 317.59375 256.734375 320.707031 244.542969 322.476562 Z M 302.128906 290.121094 C 305.699219 287.226562 309.09375 284.113281 312.257812 280.753906 C 316.371094 276.386719 320.011719 271.660156 323.199219 266.65625 C 322.492188 268.726562 321.707031 270.773438 320.816406 272.789062 C 314.292969 287.558594 303.078125 299.542969 289.230469 307.730469 C 288.652344 308.070312 288.070312 308.394531 287.484375 308.722656 C 292.917969 302.996094 297.808594 296.75 302.128906 290.121094 Z M 328.34375 257.550781 C 329.023438 256.1875 329.675781 254.804688 330.292969 253.410156 C 330.394531 253.875 330.496094 254.34375 330.59375 254.8125 C 329.222656 258.671875 327.699219 262.476562 326.03125 266.214844 C 326.957031 263.359375 327.71875 260.46875 328.34375 257.554688 Z M 333.378906 245.652344 C 333.714844 244.695312 334.042969 243.738281 334.351562 242.773438 C 334.058594 243.859375 333.757812 244.941406 333.441406 246.019531 C 333.421875 245.898438 333.398438 245.777344 333.378906 245.652344 Z M 342.433594 171.382812 C 341.773438 169.75 341.105469 168.132812 340.421875 166.527344 C 340.390625 166.457031 340.363281 166.390625 340.332031 166.320312 C 341.25 166.703125 342.171875 167.070312 343.105469 167.414062 C 343.417969 168.660156 343.714844 169.910156 344 171.164062 C 343.476562 171.230469 342.953125 171.308594 342.433594 171.382812 Z M 338.828125 162.871094 C 338.507812 162.152344 338.183594 161.4375 337.859375 160.71875 C 334.15625 144.714844 328.429688 129.25 321.167969 114.515625 C 330.296875 130.195312 337.609375 146.910156 342.3125 164.375 C 341.136719 163.90625 339.972656 163.402344 338.828125 162.871094 Z M 261.480469 38.046875 C 264.734375 41.246094 267.921875 44.511719 271.046875 47.835938 C 270.644531 47.722656 270.246094 47.609375 269.847656 47.5 C 264.609375 42.785156 259.152344 38.335938 253.429688 34.261719 C 249.007812 31.109375 244.378906 28.210938 239.578125 25.652344 C 238.871094 24.839844 238.160156 24.03125 237.433594 23.234375 C 238.953125 23.664062 240.460938 24.144531 241.960938 24.691406 C 246.394531 26.507812 250.621094 28.804688 254.636719 31.429688 C 256.976562 33.632812 259.257812 35.859375 261.480469 38.046875 Z M 50.859375 142.660156 C 50.636719 142.910156 50.410156 143.160156 50.1875 143.410156 C 49.933594 143.703125 49.675781 143.996094 49.417969 144.289062 C 50.234375 142.367188 51.089844 140.460938 51.972656 138.566406 C 51.585938 139.925781 51.214844 141.292969 50.859375 142.660156 Z M 44.566406 237.285156 C 45.359375 240.828125 46.292969 244.339844 47.375 247.8125 C 45.53125 243.972656 43.921875 240.027344 42.554688 236.003906 C 43.199219 236.46875 43.871094 236.898438 44.566406 237.285156 Z M 52.992188 256.105469 C 52.203125 254.105469 51.476562 252.085938 50.789062 250.058594 C 52.511719 253.222656 54.367188 256.308594 56.351562 259.316406 C 56.28125 259.703125 56.203125 260.089844 56.132812 260.476562 C 55.910156 261.71875 57.28125 262.417969 58.09375 261.894531 C 61.386719 266.640625 64.980469 271.183594 68.828125 275.496094 C 73.785156 281.054688 79.144531 286.246094 84.796875 291.101562 C 85.359375 291.824219 85.9375 292.535156 86.519531 293.242188 C 74.457031 284.667969 63.816406 274.15625 55.398438 261.75 C 54.550781 259.890625 53.742188 258.011719 52.992188 256.105469 Z M 103.140625 306.242188 C 105.734375 308.679688 108.410156 311.027344 111.164062 313.28125 C 111.050781 313.238281 110.933594 313.191406 110.820312 313.152344 C 107.675781 310.730469 104.628906 308.183594 101.703125 305.511719 C 102.179688 305.757812 102.660156 306 103.140625 306.242188 Z M 279.4375 316.464844 C 280.097656 315.882812 280.753906 315.296875 281.40625 314.703125 C 286.871094 312.195312 292.113281 309.222656 297.011719 305.710938 C 301.355469 302.597656 305.34375 299.078125 308.941406 295.21875 C 305.230469 300.097656 301.195312 304.722656 296.839844 309.035156 C 291.1875 311.828125 285.371094 314.292969 279.4375 316.464844 Z M 348.1875 179.023438 C 348.472656 178.863281 348.765625 178.714844 349.050781 178.554688 C 349.832031 178.121094 349.933594 176.75 349.050781 176.347656 C 348.730469 176.199219 348.417969 176.042969 348.105469 175.890625 C 349.085938 175.132812 350.050781 174.351562 350.996094 173.546875 C 351.4375 175.007812 351.867188 176.476562 352.28125 177.949219 C 351.496094 181.347656 350.566406 184.722656 349.515625 188.074219 C 349.148438 185.042969 348.710938 182.023438 348.1875 179.023438 Z M 345.242188 165.445312 C 337.78125 136.496094 323.199219 109.683594 305.007812 85.960938 C 300.847656 78.914062 296.375 72.054688 291.582031 65.417969 C 290.933594 64.523438 290.28125 63.632812 289.621094 62.742188 C 301.636719 76.59375 312.398438 91.519531 321.742188 107.300781 C 331.757812 124.21875 340.160156 142.089844 346.738281 160.617188 C 347.433594 162.582031 348.109375 164.5625 348.769531 166.546875 C 347.582031 166.210938 346.40625 165.847656 345.242188 165.449219 Z M 183.640625 15.175781 C 185.933594 15.035156 188.195312 15.007812 190.425781 15.082031 C 180.84375 16.089844 171.503906 18.777344 162.597656 22.546875 C 165.996094 20.480469 169.445312 18.457031 172.949219 16.542969 C 176.476562 15.867188 180.039062 15.394531 183.640625 15.175781 Z M 84.320312 301.164062 C 75.867188 293.488281 68.523438 284.714844 62.539062 275.078125 C 71.378906 285.125 81.675781 293.609375 92.957031 300.542969 C 96.109375 303.859375 99.425781 307.019531 102.894531 310.011719 C 96.777344 307.46875 90.757812 304.683594 84.867188 301.648438 C 84.683594 301.484375 84.5 301.328125 84.320312 301.164062 Z M 109.523438 315.382812 C 118.472656 322.222656 128.222656 328.035156 138.441406 332.691406 C 135.726562 331.71875 133.03125 330.691406 130.363281 329.601562 C 117.175781 324.199219 104.53125 317.21875 93.195312 308.546875 C 98.554688 311.019531 104.003906 313.296875 109.523438 315.382812 Z M 226.621094 345.605469 C 232.21875 345.003906 237.789062 344.167969 243.316406 343.113281 C 238.515625 344.238281 233.65625 345.113281 228.761719 345.707031 C 225.0625 346.15625 221.347656 346.453125 217.628906 346.613281 C 220.640625 346.367188 223.636719 346.027344 226.621094 345.605469 Z M 260.195312 336.550781 C 274.371094 330.578125 287.027344 321.941406 297.890625 311.386719 C 302.695312 309.011719 307.386719 306.410156 311.925781 303.554688 C 312.390625 303.265625 312.851562 302.960938 313.3125 302.664062 C 301.625 315.253906 287.496094 325.53125 272.007812 332.980469 C 268.089844 334.273438 264.148438 335.464844 260.195312 336.550781 Z M 321.726562 296.777344 C 322.375 296.285156 323.019531 295.78125 323.65625 295.277344 C 323.488281 295.550781 323.332031 295.828125 323.160156 296.101562 C 317.808594 304.554688 311.285156 312.25 304.046875 319.238281 C 298.882812 322.066406 293.550781 324.632812 288.101562 326.941406 C 300.859375 318.796875 312.304688 308.621094 321.726562 296.777344 Z M 346.886719 275.296875 C 339.859375 291.863281 327.351562 304.816406 312.304688 314.371094 C 318.941406 307.125 324.785156 299.179688 329.34375 290.496094 C 336.558594 284.027344 342.953125 276.675781 348.050781 268.402344 C 349.113281 266.679688 350.085938 264.921875 351.011719 263.144531 C 349.9375 267.261719 348.574219 271.320312 346.886719 275.296875 Z M 356.753906 239 C 357.023438 223.949219 354.460938 208.710938 350.277344 194.070312 C 351.542969 190.464844 352.679688 186.816406 353.667969 183.121094 C 356.851562 195.628906 358.832031 208.425781 358.640625 221.335938 C 358.554688 227.324219 357.925781 233.234375 356.753906 239 Z M 353.125 171.65625 C 353.300781 171.492188 353.476562 171.328125 353.648438 171.164062 C 353.570312 171.625 353.480469 172.078125 353.394531 172.535156 C 353.304688 172.242188 353.214844 171.949219 353.125 171.65625 Z M 291.921875 58.644531 C 321.46875 73.539062 345.761719 100.9375 353.058594 133.648438 C 355.628906 145.167969 355.761719 156.601562 354.171875 167.828125 C 353.359375 167.667969 352.550781 167.496094 351.746094 167.308594 C 349.960938 161.859375 348.003906 156.472656 345.933594 151.164062 C 338.703125 132.640625 329.699219 114.820312 319.054688 98.023438 C 309.773438 83.375 299.25 69.472656 287.621094 56.59375 C 289.0625 57.25 290.5 57.925781 291.921875 58.644531 Z M 243.480469 22.566406 C 240.316406 21.25 237.0625 20.160156 233.730469 19.339844 C 229.664062 15.265625 225.289062 11.570312 220.496094 8.535156 C 229.714844 11.644531 238.015625 17.125 245.644531 23.433594 C 244.929688 23.132812 244.207031 22.84375 243.480469 22.566406 Z M 164.386719 12.164062 C 173.617188 7.371094 183.734375 3.476562 194.257812 3.273438 C 196.445312 3.230469 198.597656 3.378906 200.714844 3.679688 C 191.925781 4.675781 183.570312 8.1875 175.757812 12.242188 C 174.585938 12.847656 173.417969 13.46875 172.257812 14.09375 C 163.152344 15.859375 154.320312 18.972656 145.886719 22.96875 C 151.910156 19.078125 158.078125 15.441406 164.386719 12.164062 Z M 77.351562 83.527344 C 69.878906 94.722656 63.585938 106.703125 58.578125 119.203125 C 53.515625 127.929688 49.160156 137.039062 45.710938 146.527344 C 45.222656 147.738281 44.75 148.957031 44.285156 150.179688 C 41.464844 153.457031 38.6875 156.773438 36 160.160156 C 44.226562 132.109375 58.789062 106.164062 77.351562 83.527344 Z M 16.457031 211.863281 C 16.664062 197.164062 22.40625 184.121094 30.296875 172.261719 C 29.15625 177.425781 28.21875 182.648438 27.519531 187.929688 C 24.378906 211.539062 25.636719 235.949219 31.929688 258.9375 C 22.292969 245.203125 16.214844 228.746094 16.457031 211.863281 Z M 230.996094 361.578125 C 195.460938 372.144531 157.25 370.964844 122.84375 356.910156 C 89.796875 343.40625 61.523438 318.71875 45.3125 286.753906 C 42.71875 281.640625 40.4375 276.390625 38.460938 271.035156 C 38.800781 271.40625 39.132812 271.78125 39.476562 272.148438 C 52.050781 285.460938 67.601562 295.667969 83.839844 303.992188 C 99.097656 317.519531 117.414062 327.753906 136.695312 334.773438 C 148.398438 339.035156 160.703125 342.351562 173.246094 344.480469 C 194.503906 349.871094 216.835938 350.894531 238.433594 346.765625 C 250.480469 344.464844 262.230469 340.546875 273.292969 335.210938 C 281.222656 332.566406 289.097656 329.503906 296.6875 325.90625 C 292.128906 329.785156 287.367188 333.410156 282.5 336.789062 C 266.777344 347.703125 249.339844 356.121094 230.996094 361.578125 Z M 230.996094 361.578125 " fill-opacity="1" fill-rule="nonzero"/></g></svg>