<svg xmlns="http://www.w3.org/2000/svg" xmlns:xlink="http://www.w3.org/1999/xlink" width="500" zoomAndPan="magnify" viewBox="0 0 375 374.999991" height="500" preserveAspectRatio="xMidYMid meet" version="1.0"><defs><clipPath id="2c41ae19d8"><path d="M 47.1875 44 L 185 44 L 185 200 L 47.1875 200 Z M 47.1875 44 " clip-rule="nonzero"/></clipPath><clipPath id="bb0ebac945"><path d="M 177 0 L 327.6875 0 L 327.6875 148 L 177 148 Z M 177 0 " clip-rule="nonzero"/></clipPath></defs><path fill="#cc9900" d="M 267.875 271.445312 C 269.371094 271.867188 270.925781 272.09375 272.476562 272.1875 C 273.109375 272.222656 273.851562 271.5625 273.765625 270.898438 C 270.855469 248.648438 265.972656 226.671875 259.097656 205.308594 C 257.378906 199.960938 255.539062 194.65625 253.578125 189.394531 C 252.382812 186.191406 251.183594 182.976562 249.761719 179.867188 C 250.203125 177.601562 250.75 175.359375 251.488281 173.15625 C 252.148438 171.179688 252.980469 169.160156 254.03125 167.273438 C 255.683594 166.203125 257.453125 165.324219 259.304688 164.667969 C 264.136719 163.457031 269.410156 163.992188 273.96875 165.9375 C 285.613281 170.902344 291.746094 183.820312 295.714844 195.046875 C 296.179688 196.371094 296.617188 197.703125 297.039062 199.042969 C 298.929688 211.738281 300.675781 224.460938 302.464844 237.171875 C 302.4375 239.207031 302.363281 241.246094 302.238281 243.28125 C 302.1875 244.082031 302.757812 244.488281 303.375 244.515625 C 303.21875 245.597656 303.054688 246.675781 302.863281 247.75 C 302.695312 248.695312 303.46875 249.320312 304.199219 249.359375 C 304.289062 249.984375 304.378906 250.613281 304.46875 251.238281 C 304.691406 252.800781 306.84375 252.195312 306.996094 250.894531 C 307.929688 243.132812 308.085938 235.28125 307.496094 227.484375 C 307.570312 224.835938 307.578125 222.183594 307.5 219.535156 C 307.246094 210.796875 306.3125 201.945312 303.898438 193.523438 C 302.105469 187.269531 299.390625 181.160156 295.492188 175.917969 C 292.839844 165.90625 288.300781 156.515625 279.175781 150.941406 C 273.441406 147.445312 266.296875 145.636719 259.664062 147.285156 C 253.933594 148.707031 249.632812 152.71875 246.960938 157.765625 C 245.742188 159.117188 244.613281 160.511719 243.578125 161.859375 C 242.539062 163.207031 241.582031 164.609375 240.664062 166.035156 C 237.882812 163.238281 234.605469 161.039062 230.773438 160.171875 C 226.742188 159.261719 222.507812 160.058594 219.011719 162.238281 C 217.390625 163.25 215.953125 164.503906 214.644531 165.886719 C 213.496094 165.792969 212.328125 165.800781 211.148438 165.941406 C 204.753906 166.71875 199.867188 171.023438 196.816406 176.503906 C 195.355469 179.125 194.269531 181.941406 193.453125 184.84375 C 192.199219 182.953125 190.785156 181.179688 189.046875 179.71875 C 181.996094 173.777344 171.511719 175.066406 164.457031 180.332031 C 163.773438 180.84375 163.128906 181.386719 162.496094 181.945312 C 161.410156 182.066406 160.308594 182.316406 159.195312 182.722656 C 151.699219 185.445312 147.089844 192.992188 144.242188 200.027344 C 142.746094 203.730469 141.558594 207.511719 140.617188 211.34375 C 140.4375 211.972656 140.277344 212.609375 140.113281 213.246094 C 139.757812 212.761719 139.410156 212.273438 139.050781 211.796875 C 137.769531 210.113281 136.390625 208.234375 134.75 206.726562 C 132.730469 203.882812 129.867188 201.710938 126.136719 201.820312 C 121.613281 201.953125 117.847656 205.269531 115.191406 208.644531 C 114.925781 208.984375 114.675781 209.335938 114.425781 209.683594 C 110.003906 210.542969 106.003906 213.457031 103.03125 217.082031 C 102.789062 217.378906 102.558594 217.683594 102.324219 217.984375 C 100.375 219.480469 98.628906 221.222656 97.210938 222.902344 C 92.457031 228.542969 89.554688 235.484375 87.734375 242.574219 C 85.726562 250.414062 84.941406 258.546875 84.484375 266.605469 C 83.960938 275.886719 84.066406 285.203125 84.792969 294.46875 C 84.9375 296.304688 85.113281 298.136719 85.304688 299.972656 C 84.546875 305.070312 83.886719 310.183594 83.332031 315.289062 C 82.03125 327.203125 81.308594 339.183594 81.171875 351.167969 C 81.140625 354.089844 81.140625 357.015625 81.179688 359.941406 C 81.214844 362.675781 81.109375 365.492188 81.449219 368.210938 C 81.699219 370.214844 82.441406 372.449219 84.476562 373.285156 C 86.09375 373.949219 87.828125 373.027344 88.640625 371.5625 C 89.496094 370.023438 89.117188 368.191406 87.324219 367.636719 C 85.792969 367.160156 85.113281 369.457031 86.492188 370.054688 C 86.351562 370.222656 86.292969 370.496094 86.109375 370.664062 C 85.617188 371.125 85.183594 370.878906 84.789062 370.371094 C 83.601562 368.839844 83.882812 366.230469 83.839844 364.433594 C 83.699219 358.800781 83.6875 353.164062 83.808594 347.527344 C 84.019531 337.414062 84.675781 327.308594 85.71875 317.246094 C 86.644531 333.582031 89.09375 349.832031 93.078125 365.695312 C 93.71875 368.246094 94.402344 370.785156 95.121094 373.316406 C 95.574219 374.910156 98.015625 374.242188 97.605469 372.632812 C 94.207031 359.269531 92.0625 345.613281 91.144531 331.871094 C 92.65625 337.578125 94.410156 343.226562 96.410156 348.785156 C 97.195312 350.972656 98.019531 353.144531 98.878906 355.304688 C 99.210938 356.148438 100.3125 356.652344 101.03125 355.875 C 104.457031 352.160156 104.167969 346.273438 100.800781 342.730469 C 99.554688 326.667969 99.730469 310.503906 101.351562 294.472656 C 103.289062 275.320312 107.296875 256.371094 113.253906 238.070312 C 114.746094 233.480469 116.363281 228.933594 118.101562 224.433594 C 118.617188 223.097656 119.117188 221.722656 119.652344 220.351562 C 120.136719 220.886719 120.601562 221.449219 121.039062 222.015625 C 123.59375 225.34375 125.886719 228.914062 128.152344 232.445312 C 131.199219 237.203125 134.058594 242.078125 136.753906 247.046875 C 136.957031 250.878906 137.34375 254.703125 137.925781 258.496094 C 139.347656 267.722656 141.917969 276.796875 145.585938 285.398438 C 146.28125 302.511719 148.78125 319.5625 153.097656 336.136719 C 153.722656 338.527344 154.386719 340.910156 155.082031 343.28125 C 155.511719 344.730469 157.492188 344.351562 157.613281 342.9375 C 157.671875 342.257812 157.71875 341.578125 157.773438 340.898438 C 157.824219 341.039062 157.871094 341.179688 157.925781 341.320312 C 158.441406 342.691406 160.332031 342.457031 160.457031 340.976562 C 160.75 337.503906 160.964844 334.023438 161.105469 330.542969 C 161.417969 331.363281 161.730469 332.1875 162.050781 333.003906 C 162.867188 335.074219 163.71875 337.128906 164.597656 339.171875 C 165.125 340.394531 167 339.707031 167 338.523438 C 166.996094 329.59375 166.542969 320.664062 165.664062 311.777344 C 165.867188 312.042969 166.066406 312.3125 166.269531 312.574219 C 166.933594 313.429688 168.582031 312.734375 168.46875 311.664062 C 166.589844 294.027344 164.585938 276.316406 160.304688 259.074219 C 158.414062 251.449219 156.039062 243.894531 153.035156 236.617188 C 153.117188 236.242188 153.191406 235.863281 153.273438 235.488281 C 155.21875 226.824219 157.789062 218.300781 160.984375 210.015625 C 163.199219 204.269531 167.128906 195.351562 174.699219 196.191406 C 175.21875 196.25 175.722656 196.367188 176.210938 196.519531 C 179.367188 198.898438 181.945312 202.492188 183.71875 205.449219 C 185.304688 208.089844 186.769531 210.824219 188.148438 213.605469 C 187.058594 223.652344 187.273438 233.839844 188.738281 243.84375 C 190.390625 255.152344 193.691406 266.246094 198.539062 276.605469 C 200.078125 281.632812 201.890625 286.582031 203.96875 291.421875 C 204.808594 293.378906 205.699219 295.3125 206.625 297.230469 C 207.214844 298.453125 208.964844 297.761719 209.023438 296.582031 C 209.058594 295.90625 209.078125 295.230469 209.105469 294.558594 C 209.617188 295.109375 210.425781 295.144531 210.933594 294.730469 C 211.902344 296.191406 212.917969 297.621094 213.96875 299.027344 C 214.863281 300.222656 216.535156 299.503906 216.324219 298.035156 C 216.097656 296.476562 215.839844 294.921875 215.59375 293.367188 C 216.304688 293.457031 217.113281 292.9375 217.117188 292.109375 C 217.125 290.824219 217.109375 289.535156 217.085938 288.25 C 218.003906 289.4375 218.9375 290.613281 219.914062 291.757812 C 221.304688 293.386719 222.753906 294.964844 224.25 296.496094 C 224.867188 297.128906 226.253906 296.914062 226.402344 295.929688 C 229.535156 275.058594 225.347656 254.109375 217.960938 234.5625 C 214.207031 224.617188 209.683594 214.976562 204.820312 205.535156 C 204.636719 205.175781 204.445312 204.824219 204.257812 204.464844 C 204.28125 204.320312 204.300781 204.175781 204.324219 204.03125 C 204.695312 203.121094 205.074219 202.21875 205.476562 201.324219 C 208.023438 195.644531 211.25 188.183594 217.703125 186.136719 C 222.75 184.539062 227.417969 187.152344 230.914062 190.65625 C 227.523438 207.390625 229.496094 224.757812 233.785156 241.207031 C 235.082031 246.191406 236.589844 251.117188 238.214844 256.003906 C 239.574219 260.082031 240.691406 264.394531 243.382812 267.828125 C 244.253906 268.945312 245.394531 270.140625 246.691406 271.03125 C 246.949219 271.386719 247.359375 271.617188 247.765625 271.671875 C 249.015625 272.308594 250.378906 272.613281 251.78125 272.28125 C 251.929688 272.246094 252.058594 272.195312 252.199219 272.152344 C 252.378906 272.507812 252.558594 272.859375 252.738281 273.214844 C 252.960938 274.210938 253.175781 275.210938 253.40625 276.207031 C 253.742188 277.664062 255.878906 277.28125 255.933594 275.867188 C 256.0625 272.53125 256.089844 269.195312 256.066406 265.859375 C 256.152344 265 256.179688 264.140625 256.199219 263.335938 C 259.210938 267.121094 263.027344 270.078125 267.871094 271.445312 Z M 86.539062 369.835938 C 86.527344 369.839844 86.53125 369.90625 86.53125 369.960938 C 86.492188 369.910156 86.472656 369.863281 86.539062 369.835938 Z M 238.097656 201.648438 C 239.183594 204.15625 240.070312 206.761719 240.800781 209.40625 C 241.734375 212.785156 242.558594 216.195312 243.289062 219.621094 C 243.445312 223.859375 243.652344 228.09375 243.910156 232.324219 C 243.972656 236.753906 244.113281 241.179688 244.335938 245.601562 C 242.171875 238.457031 240.503906 231.160156 239.359375 223.773438 C 238.226562 216.464844 237.625 209.007812 238.097656 201.648438 Z M 236.355469 193.203125 C 235.550781 192.0625 234.660156 190.925781 233.699219 189.855469 C 233.898438 188.953125 234.113281 188.054688 234.34375 187.160156 C 235.183594 188.957031 235.925781 190.792969 236.601562 192.652344 C 236.554688 192.894531 236.511719 193.132812 236.46875 193.371094 C 236.429688 193.316406 236.394531 193.261719 236.355469 193.203125 Z M 212.761719 291.792969 C 212.835938 292.234375 212.898438 292.679688 212.96875 293.121094 C 212.441406 292.316406 211.929688 291.503906 211.429688 290.683594 C 211.4375 289.121094 211.425781 287.554688 211.390625 285.996094 C 211.566406 286.371094 211.75 286.75 211.929688 287.125 C 212.214844 288.679688 212.5 290.234375 212.761719 291.792969 Z M 155.945312 327.097656 C 152.828125 316.25 150.722656 305.117188 149.652344 293.878906 C 149.683594 293.941406 149.714844 294.003906 149.746094 294.066406 C 150.746094 296.929688 151.777344 299.777344 152.835938 302.617188 C 153.761719 306.863281 154.828125 311.078125 156.03125 315.253906 C 156.085938 319.203125 156.058594 323.152344 155.945312 327.097656 Z M 118.734375 216.027344 C 118.609375 215.9375 118.472656 215.867188 118.34375 215.78125 C 118.875 214.667969 119.46875 213.523438 120.148438 212.429688 C 120.3125 212.476562 120.472656 212.53125 120.632812 212.585938 C 120.1875 213.265625 119.789062 213.957031 119.433594 214.625 C 119.191406 215.085938 118.960938 215.554688 118.734375 216.027344 Z M 88.378906 304.265625 C 88.300781 303.652344 88.222656 303.042969 88.148438 302.429688 C 88.054688 301.636719 87.972656 300.847656 87.890625 300.058594 C 88.417969 296.566406 88.988281 293.078125 89.613281 289.601562 C 89.1875 293.28125 88.84375 296.972656 88.59375 300.667969 C 88.511719 301.867188 88.441406 303.066406 88.378906 304.265625 Z M 97.644531 246.203125 C 94.105469 257.183594 91.210938 268.40625 88.875 279.75 C 89.742188 269.898438 91.167969 260.09375 93.175781 250.410156 C 94.96875 241.746094 96.726562 232.6875 100.964844 224.832031 C 101.835938 223.21875 102.871094 221.523438 104.0625 219.90625 C 105.953125 218.457031 108.082031 217.222656 110.355469 216.726562 C 109.511719 218.484375 108.726562 220.269531 107.941406 222.046875 C 107.613281 222.785156 107.296875 223.53125 106.976562 224.273438 C 102.996094 231.15625 100.074219 238.65625 97.640625 246.203125 Z M 164.910156 184.449219 C 166.992188 184.566406 168.953125 185.238281 170.765625 186.222656 C 170.332031 186.34375 169.90625 186.488281 169.488281 186.648438 C 167.484375 185.71875 165.378906 185.058594 163.246094 184.800781 C 163.367188 184.683594 163.484375 184.566406 163.609375 184.449219 C 164.039062 184.429688 164.472656 184.425781 164.910156 184.449219 Z M 215.5625 168.601562 C 215.726562 168.628906 215.890625 168.652344 216.054688 168.683594 C 215.886719 168.664062 215.714844 168.640625 215.542969 168.625 C 215.550781 168.617188 215.554688 168.609375 215.5625 168.605469 Z M 241.042969 170.378906 C 241.789062 171.300781 242.476562 172.25 243.113281 173.1875 C 243.0625 173.917969 243.019531 174.644531 242.988281 175.375 C 242.480469 176.207031 241.992188 177.054688 241.550781 177.921875 C 240.921875 179.148438 240.359375 180.40625 239.839844 181.679688 C 238.996094 180.609375 238.089844 179.597656 237.105469 178.648438 C 237.78125 176.945312 238.507812 175.265625 239.320312 173.621094 C 239.859375 172.523438 240.441406 171.445312 241.042969 170.378906 Z M 246.3125 168.167969 C 246.839844 165.121094 247.710938 162.035156 249.09375 159.253906 C 250.726562 157.484375 252.496094 155.828125 254.417969 154.449219 C 262.671875 148.542969 270.066406 151.6875 276.113281 157.78125 C 275.339844 157.320312 274.542969 156.898438 273.714844 156.527344 C 270.203125 154.953125 266.371094 154.386719 262.574219 155.113281 C 258.847656 155.828125 255.445312 157.824219 252.683594 160.378906 C 249.59375 163.238281 247.445312 166.722656 245.972656 170.503906 C 246.078125 169.722656 246.179688 168.941406 246.3125 168.167969 Z M 252.484375 246.0625 C 252.269531 244.699219 252.042969 243.339844 251.808594 241.980469 C 251.824219 241.402344 251.828125 240.828125 251.839844 240.253906 C 252.078125 242.1875 252.292969 244.125 252.484375 246.0625 Z M 249.066406 227.792969 C 248.394531 224.695312 247.675781 221.605469 246.914062 218.527344 C 246.820312 217.46875 246.738281 216.40625 246.65625 215.347656 C 246.679688 214.605469 246.699219 213.859375 246.730469 213.117188 C 247.300781 215.359375 247.84375 217.613281 248.34375 219.875 C 248.433594 220.277344 248.507812 220.6875 248.597656 221.089844 C 248.792969 223.320312 248.949219 225.554688 249.0625 227.792969 Z M 251.558594 165.503906 C 252.320312 164.472656 253.171875 163.503906 254.097656 162.617188 C 253.53125 163.320312 253.007812 164.058594 252.523438 164.824219 C 252.195312 165.039062 251.875 165.269531 251.558594 165.503906 Z M 242.871094 186.269531 C 242.476562 185.558594 242.0625 184.863281 241.621094 184.183594 C 241.996094 183.164062 242.410156 182.15625 242.855469 181.164062 C 242.851562 181.746094 242.847656 182.332031 242.847656 182.910156 C 242.84375 184.03125 242.863281 185.148438 242.871094 186.269531 Z M 241.535156 195.714844 C 242.015625 197.113281 242.464844 198.523438 242.917969 199.933594 C 242.921875 201.273438 242.929688 202.617188 242.941406 203.960938 C 242.6875 203.105469 242.449219 202.246094 242.1875 201.394531 C 241.273438 198.425781 240.34375 195.457031 239.296875 192.53125 C 239.414062 191.945312 239.542969 191.359375 239.675781 190.773438 C 240.347656 192.402344 240.960938 194.058594 241.53125 195.714844 Z M 251.816406 223.902344 C 251.597656 222.800781 251.347656 221.707031 251.113281 220.609375 C 250.976562 219.085938 250.816406 217.5625 250.644531 216.039062 C 251.402344 219.726562 251.984375 223.453125 252.425781 227.199219 C 252.222656 226.101562 252.035156 225 251.820312 223.902344 Z M 245.613281 191.761719 C 245.613281 191.527344 245.601562 191.292969 245.601562 191.058594 C 245.597656 189.601562 245.609375 188.125 245.660156 186.640625 C 245.773438 184.089844 246.019531 181.550781 246.539062 179.078125 C 246.722656 179.449219 246.894531 179.828125 247.074219 180.203125 C 246.878906 181.3125 246.699219 182.421875 246.550781 183.53125 C 246.191406 186.265625 245.890625 189.011719 245.613281 191.761719 Z M 247.535156 175.457031 C 247.960938 174.265625 248.492188 173.140625 249.125 172.097656 C 248.664062 173.433594 248.269531 174.792969 247.929688 176.167969 C 247.800781 175.929688 247.667969 175.691406 247.535156 175.457031 Z M 257.6875 162.433594 C 258.542969 161.617188 259.480469 160.890625 260.527344 160.292969 C 265.808594 157.273438 271.761719 158.789062 276.445312 162.101562 C 275.296875 161.746094 274.136719 161.449219 272.957031 161.226562 C 268.207031 160.332031 263.320312 160.628906 258.792969 162.132812 C 258.421875 162.226562 258.050781 162.324219 257.6875 162.433594 Z M 290.679688 174.167969 C 291.539062 175.089844 292.355469 176.046875 293.117188 177.046875 C 293.347656 177.910156 293.558594 178.777344 293.757812 179.644531 C 292.785156 177.792969 291.753906 175.964844 290.679688 174.167969 Z M 216.332031 171.292969 C 215.203125 171.4375 214.085938 171.675781 212.988281 172.019531 C 213.191406 171.714844 213.402344 171.417969 213.609375 171.117188 C 214.515625 171.09375 215.425781 171.152344 216.332031 171.292969 Z M 194.222656 195.539062 C 194.484375 194.578125 194.761719 193.621094 195.054688 192.667969 C 195.648438 193.738281 196.234375 194.808594 196.8125 195.886719 C 195.980469 199.042969 195.257812 202.226562 194.640625 205.433594 C 194.457031 204.953125 194.261719 204.472656 194.0625 203.988281 C 193.980469 201.167969 194.007812 198.347656 194.222656 195.542969 Z M 195.453125 217.390625 C 195.613281 217.679688 195.773438 217.964844 195.929688 218.253906 C 195.898438 218.839844 195.871094 219.421875 195.847656 220.007812 C 195.667969 219.625 195.484375 219.246094 195.300781 218.863281 C 195.347656 218.371094 195.398438 217.878906 195.453125 217.390625 Z M 198.433594 225.804688 C 198.453125 225.671875 198.472656 225.535156 198.492188 225.398438 C 198.636719 225.917969 198.785156 226.4375 198.925781 226.960938 C 198.761719 226.574219 198.597656 226.191406 198.433594 225.804688 Z M 196.605469 210.777344 C 196.542969 210.59375 196.480469 210.414062 196.414062 210.230469 C 196.953125 206.839844 197.613281 203.464844 198.402344 200.121094 C 198.46875 199.832031 198.542969 199.542969 198.613281 199.253906 C 198.644531 199.308594 198.671875 199.367188 198.703125 199.421875 C 197.789062 203.164062 197.089844 206.957031 196.605469 210.777344 Z M 191.363281 210.382812 C 191.539062 210.664062 191.707031 210.953125 191.878906 211.234375 C 191.902344 211.578125 191.921875 211.921875 191.949219 212.269531 C 191.710938 211.820312 191.476562 211.371094 191.230469 210.921875 C 191.1875 210.847656 191.144531 210.773438 191.105469 210.695312 C 191.132812 210.5 191.15625 210.300781 191.183594 210.105469 C 191.242188 210.199219 191.304688 210.289062 191.363281 210.382812 Z M 189.054688 207.078125 C 188.523438 206.167969 187.976562 205.261719 187.421875 204.367188 C 187.988281 205.1875 188.546875 206.019531 189.09375 206.855469 C 189.082031 206.929688 189.066406 207.003906 189.054688 207.078125 Z M 201.820312 261.855469 C 202.789062 267.816406 204.058594 273.726562 205.621094 279.558594 C 203 273.589844 200.988281 267.355469 199.613281 260.960938 C 198.664062 256.527344 198.019531 252.023438 197.683594 247.496094 C 198.894531 252.328125 200.273438 257.121094 201.820312 261.859375 Z M 200.542969 202.902344 C 200.820312 203.429688 201.101562 203.953125 201.375 204.480469 C 200.582031 206.535156 199.855469 208.617188 199.210938 210.714844 C 199.535156 208.226562 199.945312 205.75 200.457031 203.296875 C 200.484375 203.164062 200.515625 203.03125 200.542969 202.902344 Z M 199.652344 195.796875 C 199.613281 195.730469 199.578125 195.664062 199.542969 195.597656 C 200.167969 193.269531 200.847656 190.953125 201.636719 188.683594 C 202.464844 186.308594 203.460938 183.933594 204.796875 181.78125 C 202.765625 186.214844 201.078125 190.808594 199.742188 195.46875 C 199.710938 195.574219 199.683594 195.6875 199.652344 195.796875 Z M 210.050781 171.972656 C 209.65625 172.601562 209.28125 173.242188 208.902344 173.882812 C 202.921875 177.625 200.089844 184.679688 198.121094 191.210938 C 198.003906 191.597656 197.898438 191.984375 197.785156 192.371094 C 197.597656 192.023438 197.410156 191.675781 197.222656 191.332031 C 196.863281 190.683594 196.507812 190.03125 196.144531 189.375 C 197.089844 186.726562 198.175781 184.144531 199.457031 181.6875 C 201.117188 178.503906 203.265625 175.40625 206.304688 173.394531 C 207.539062 172.574219 208.886719 171.984375 210.285156 171.605469 C 210.207031 171.726562 210.128906 171.847656 210.050781 171.972656 Z M 189.78125 203.183594 C 186.9375 199 183.878906 194.957031 180.554688 191.191406 C 179.894531 190.445312 179.195312 189.703125 178.464844 188.988281 C 183.871094 190.941406 187.601562 196.46875 190.121094 201.53125 C 190.003906 202.082031 189.894531 202.632812 189.78125 203.183594 Z M 175.496094 189.6875 C 177.226562 191.273438 178.804688 193.019531 180.296875 194.832031 C 178.738281 193.152344 177.058594 191.578125 175.207031 190.152344 C 174.414062 189.539062 173.582031 188.957031 172.71875 188.410156 C 173.089844 188.351562 173.464844 188.304688 173.851562 188.285156 C 174.421875 188.734375 174.96875 189.203125 175.496094 189.6875 Z M 145.476562 204.671875 C 146.890625 200.796875 148.429688 196.816406 150.746094 193.382812 C 152.347656 191.007812 154.542969 189.023438 157.167969 187.984375 C 153.863281 192.683594 151.496094 198.113281 149.503906 203.433594 C 147.46875 208.878906 145.894531 214.492188 144.765625 220.195312 C 143.933594 218.828125 143.0625 217.484375 142.160156 216.15625 C 142.363281 215.125 142.578125 214.09375 142.820312 213.066406 C 143.585938 210.230469 144.46875 207.429688 145.476562 204.671875 Z M 143.890625 264.511719 C 143.484375 262.648438 143.113281 260.777344 142.765625 258.894531 C 143.289062 260.007812 143.808594 261.125 144.316406 262.246094 C 144.660156 264.246094 145.054688 266.238281 145.5 268.21875 C 145.46875 269.152344 145.449219 270.085938 145.433594 271.019531 C 144.886719 268.859375 144.367188 266.691406 143.890625 264.511719 Z M 140.433594 234.894531 C 140.433594 232.683594 140.5 230.476562 140.636719 228.277344 C 141.183594 229.613281 141.722656 230.953125 142.246094 232.300781 C 142.464844 232.972656 142.675781 233.648438 142.890625 234.324219 C 142.765625 236.078125 142.679688 237.835938 142.636719 239.597656 C 141.921875 238.019531 141.1875 236.449219 140.433594 234.890625 Z M 155 294.8125 C 155.105469 296.050781 155.207031 297.289062 155.300781 298.527344 C 154.941406 297.953125 154.597656 297.371094 154.253906 296.792969 C 153.898438 294.933594 153.5625 293.070312 153.257812 291.203125 C 153.816406 292.417969 154.394531 293.621094 155 294.8125 Z M 152.675781 275.769531 C 152.144531 274.347656 151.597656 272.925781 151.035156 271.511719 C 150.984375 270.707031 150.941406 269.898438 150.902344 269.089844 C 151.476562 271.046875 152.027344 273.015625 152.550781 274.992188 C 152.59375 275.25 152.636719 275.511719 152.675781 275.769531 Z M 145.179688 241.890625 C 145.789062 244.011719 146.378906 246.136719 146.9375 248.273438 C 146.894531 248.644531 146.851562 249.015625 146.8125 249.386719 C 146.292969 248.082031 145.761719 246.78125 145.21875 245.488281 C 145.1875 244.289062 145.171875 243.089844 145.179688 241.894531 Z M 145.960938 254.289062 C 146.066406 254.5625 146.160156 254.835938 146.261719 255.109375 C 146.207031 255.746094 146.152344 256.382812 146.101562 257.023438 C 145.960938 255.90625 145.832031 254.785156 145.722656 253.667969 C 145.800781 253.875 145.882812 254.082031 145.960938 254.289062 Z M 149.363281 281.625 C 149.558594 283.332031 149.769531 285.042969 150.003906 286.746094 C 149.648438 285.644531 149.296875 284.542969 148.953125 283.4375 C 148.910156 282.351562 148.878906 281.269531 148.855469 280.1875 C 149.019531 280.667969 149.195312 281.144531 149.363281 281.625 Z M 158.382812 307.566406 C 158.390625 307.574219 158.398438 307.582031 158.40625 307.59375 C 158.453125 308.511719 158.496094 309.433594 158.535156 310.351562 C 158.515625 310.304688 158.496094 310.253906 158.480469 310.203125 C 158.449219 309.324219 158.421875 308.445312 158.382812 307.566406 Z M 142.664062 246.039062 C 142.746094 248.636719 142.914062 251.234375 143.167969 253.820312 C 142.601562 252.675781 142.023438 251.535156 141.441406 250.402344 C 141.0625 247.390625 140.785156 244.367188 140.613281 241.34375 C 141.316406 242.898438 142 244.464844 142.664062 246.039062 Z M 148.1875 238.925781 C 147.355469 236.804688 146.492188 234.691406 145.609375 232.589844 C 145.75 230.988281 145.914062 229.386719 146.121094 227.792969 C 146.703125 228.917969 147.269531 230.042969 147.816406 231.171875 C 148.230469 232.035156 148.632812 232.902344 149.03125 233.777344 C 148.726562 235.488281 148.453125 237.207031 148.1875 238.925781 Z M 143.539062 227.777344 C 143.390625 227.441406 143.242188 227.109375 143.089844 226.777344 C 142.851562 226.089844 142.621094 225.398438 142.375 224.714844 C 142.011719 223.691406 141.648438 222.660156 141.28125 221.628906 C 141.363281 220.996094 141.441406 220.359375 141.539062 219.726562 C 142.425781 221.132812 143.269531 222.5625 144.082031 224.011719 C 143.878906 225.261719 143.699219 226.519531 143.539062 227.777344 Z M 115.941406 212.011719 C 115.914062 212.042969 115.886719 212.070312 115.859375 212.097656 C 115.875 212.070312 115.890625 212.042969 115.910156 212.015625 C 115.921875 212.015625 115.929688 212.015625 115.941406 212.011719 Z M 121.980469 210.347656 C 121.960938 210.339844 121.941406 210.335938 121.925781 210.328125 C 122.214844 210.144531 122.515625 209.972656 122.816406 209.808594 C 122.613281 210.019531 122.410156 210.234375 122.21875 210.453125 C 122.136719 210.421875 122.0625 210.378906 121.980469 210.347656 Z M 131.972656 210.714844 C 133.5 212.460938 134.46875 214.730469 135.5 216.773438 C 135.796875 217.363281 136.085938 217.957031 136.378906 218.546875 C 136.972656 219.832031 137.574219 221.113281 138.144531 222.410156 C 137.796875 224.464844 137.507812 226.53125 137.277344 228.601562 C 135.488281 225.121094 133.617188 221.644531 131.378906 218.453125 C 129.535156 215.824219 127.351562 213.386719 124.640625 211.695312 C 126.722656 209.640625 129.539062 208.472656 131.972656 210.714844 Z M 155.621094 334.796875 C 155.609375 335.003906 155.59375 335.210938 155.582031 335.414062 C 155.289062 334.289062 155.007812 333.164062 154.730469 332.03125 C 155.019531 332.957031 155.316406 333.875 155.621094 334.796875 Z M 158.320312 282.253906 C 158.15625 281.222656 157.984375 280.195312 157.8125 279.167969 C 159.5 286.675781 160.867188 294.25 161.917969 301.871094 C 161.398438 301.035156 160.886719 300.195312 160.390625 299.34375 C 159.894531 293.628906 159.207031 287.925781 158.320312 282.253906 Z M 156.511719 201.875 C 154.996094 205.511719 154.109375 209.390625 153.226562 213.214844 C 152.554688 216.113281 151.960938 219.023438 151.421875 221.949219 C 150.847656 224.449219 150.316406 226.957031 149.828125 229.476562 C 148.863281 227.492188 147.839844 225.539062 146.761719 223.613281 C 147.429688 219.699219 148.296875 215.820312 149.390625 212 C 151.789062 203.628906 155.007812 194.820312 160.421875 187.890625 C 160.601562 187.660156 160.796875 187.4375 160.988281 187.210938 C 162.90625 187.148438 164.800781 187.515625 166.605469 188.171875 C 165.03125 189.230469 163.628906 190.5625 162.449219 192.042969 C 161.285156 193.496094 160.289062 195.054688 159.40625 196.679688 C 158.210938 198.257812 157.273438 200.039062 156.511719 201.875 Z M 169.5 189.480469 C 169.726562 189.605469 169.957031 189.722656 170.179688 189.851562 C 171.429688 190.570312 172.609375 191.375 173.734375 192.242188 C 173.285156 192.070312 172.828125 191.921875 172.359375 191.796875 C 170.347656 191.253906 168.230469 191.277344 166.242188 191.8125 C 167.238281 190.882812 168.320312 190.085938 169.5 189.480469 Z M 194.605469 233.121094 C 194.722656 233.78125 194.84375 234.445312 194.96875 235.105469 C 194.863281 237.316406 194.824219 239.53125 194.863281 241.746094 C 194.691406 238.871094 194.605469 235.996094 194.605469 233.117188 Z M 199.34375 270.101562 C 200.230469 272.976562 201.242188 275.808594 202.386719 278.585938 C 201.867188 277.558594 201.359375 276.523438 200.867188 275.476562 C 200.328125 273.695312 199.816406 271.902344 199.34375 270.101562 Z M 206.652344 291.046875 C 206.652344 291.074219 206.648438 291.101562 206.648438 291.132812 C 206.609375 291.042969 206.570312 290.953125 206.53125 290.859375 C 206.570312 290.921875 206.609375 290.984375 206.652344 291.046875 Z M 209.261719 263.195312 C 208.503906 258.59375 207.550781 254.023438 206.40625 249.503906 C 205.636719 244.710938 204.714844 239.945312 203.636719 235.210938 C 203.546875 234.8125 203.449219 234.417969 203.355469 234.019531 C 203.359375 234.027344 203.367188 234.039062 203.371094 234.050781 C 209.195312 248.542969 212.855469 263.90625 214.082031 279.476562 C 213.558594 278.644531 213.042969 277.804688 212.542969 276.960938 C 211.550781 272.347656 210.457031 267.757812 209.261719 263.191406 Z M 199.554688 219.601562 C 199.753906 218.683594 199.960938 217.769531 200.1875 216.859375 C 200.082031 218.011719 199.996094 219.160156 199.914062 220.3125 C 199.792969 220.078125 199.679688 219.839844 199.554688 219.601562 Z M 201.4375 199.097656 C 202.707031 194.097656 204.367188 189.199219 206.425781 184.472656 C 204.375 189.660156 203.242188 195.253906 202.316406 200.769531 C 202.019531 200.214844 201.734375 199.65625 201.4375 199.097656 Z M 208.472656 180.078125 C 209.148438 178.734375 209.875 177.3125 210.664062 175.882812 C 211.230469 175.554688 211.820312 175.269531 212.421875 175.019531 C 210.832031 176.503906 209.492188 178.300781 208.394531 180.242188 C 208.421875 180.1875 208.445312 180.132812 208.472656 180.078125 Z M 233.746094 180.351562 C 233.714844 180.4375 233.683594 180.523438 233.65625 180.613281 C 233.269531 180.023438 232.871094 179.449219 232.457031 178.886719 C 232.902344 179.363281 233.339844 179.847656 233.746094 180.351562 Z M 235.589844 182.882812 C 236.460938 184.203125 237.25 185.578125 237.964844 186.996094 C 237.84375 187.398438 237.742188 187.808594 237.628906 188.214844 C 236.960938 186.621094 236.214844 185.050781 235.386719 183.527344 C 235.457031 183.3125 235.519531 183.097656 235.589844 182.882812 Z M 250.328125 261.699219 C 250.367188 261.898438 250.40625 262.101562 250.445312 262.300781 C 250.394531 262.1875 250.34375 262.074219 250.296875 261.960938 C 250.308594 261.875 250.320312 261.785156 250.328125 261.699219 Z M 249.144531 184.964844 C 251.082031 189.933594 252.914062 194.945312 254.632812 199.996094 C 261.601562 220.457031 266.769531 241.535156 270.054688 262.898438 C 270.386719 265.082031 270.691406 267.269531 270.984375 269.453125 C 264.441406 268.542969 259.691406 264.269531 256.285156 258.847656 C 256.480469 244.425781 256.039062 229.894531 253.195312 215.730469 C 251.945312 209.523438 250.164062 203.351562 247.695312 197.5 C 247.820312 196.011719 247.941406 194.523438 248.082031 193.035156 C 248.351562 190.226562 248.625 187.40625 249 184.605469 C 249.046875 184.726562 249.097656 184.84375 249.144531 184.960938 Z M 279.15625 165.859375 C 280.179688 166.3125 281.175781 166.816406 282.148438 167.367188 C 282.9375 168.261719 283.699219 169.183594 284.429688 170.132812 C 282.828125 168.550781 281.066406 167.121094 279.15625 165.859375 Z M 299.847656 189.417969 C 301.726562 194.457031 302.921875 199.710938 303.703125 205.027344 C 303.582031 204.546875 303.464844 204.0625 303.335938 203.582031 C 301.957031 198.429688 300.175781 193.382812 298.027344 188.5 C 297.765625 186.828125 297.484375 185.136719 297.167969 183.4375 C 298.183594 185.371094 299.082031 187.371094 299.847656 189.417969 Z M 291.234375 171.011719 C 289.695312 169.515625 288.023438 168.140625 286.246094 166.910156 C 285.421875 165.5625 284.582031 164.230469 283.699219 162.933594 C 279.882812 157.332031 274.636719 151.542969 267.972656 149.488281 C 270.207031 149.816406 272.398438 150.464844 274.4375 151.359375 C 283.144531 155.191406 288.140625 162.605469 291.234375 171.011719 Z M 244.253906 165.277344 C 243.949219 166.605469 243.707031 167.949219 243.519531 169.304688 C 243.175781 168.859375 242.820312 168.417969 242.457031 167.988281 C 243.03125 167.066406 243.632812 166.164062 244.253906 165.277344 Z M 225.429688 162.507812 C 230.878906 161.621094 235.582031 164.5 239.253906 168.34375 C 237.660156 171.082031 236.265625 173.929688 235.066406 176.867188 C 234.058594 176.070312 232.980469 175.34375 231.828125 174.683594 C 227.796875 171.058594 222.984375 167.691406 217.722656 166.390625 C 219.910156 164.4375 222.441406 162.996094 225.429688 162.507812 Z M 203.164062 172.390625 C 205.210938 170.476562 207.710938 169.164062 210.464844 168.632812 C 211.144531 168.503906 211.824219 168.445312 212.5 168.417969 C 212.453125 168.484375 212.402344 168.546875 212.351562 168.613281 C 211.929688 168.652344 211.503906 168.699219 211.082031 168.765625 C 207.347656 169.378906 204.007812 171.429688 201.472656 174.195312 C 202 173.5625 202.558594 172.957031 203.164062 172.390625 Z M 183.242188 179.230469 C 187.503906 180.761719 190.292969 184.46875 192.519531 188.226562 C 192.546875 188.269531 192.570312 188.3125 192.59375 188.355469 C 192.109375 190.738281 191.796875 193.152344 191.605469 195.550781 C 191.40625 196.269531 191.21875 196.992188 191.035156 197.710938 C 188.660156 193.5625 185.578125 189.804688 181.46875 187.542969 C 179.351562 186.375 177 185.753906 174.621094 185.726562 C 172.160156 183.953125 169.453125 182.609375 166.582031 182.089844 C 171.453125 178.75 177.40625 177.132812 183.242188 179.230469 Z M 120.769531 206.617188 C 122.007812 205.660156 123.460938 204.847656 125.015625 204.535156 C 123.132812 205.292969 121.464844 206.644531 120.105469 208.226562 C 119.96875 208.386719 119.84375 208.554688 119.710938 208.71875 C 119.347656 208.976562 118.996094 209.246094 118.648438 209.523438 C 118.378906 209.492188 118.113281 209.453125 117.847656 209.441406 C 118.726562 208.414062 119.683594 207.453125 120.769531 206.617188 Z M 112.398438 212.832031 C 112.183594 213.207031 111.972656 213.578125 111.769531 213.957031 C 111.09375 213.996094 110.421875 214.09375 109.753906 214.246094 C 110.59375 213.6875 111.472656 213.203125 112.398438 212.832031 Z M 88.71875 250.429688 C 89.898438 243.382812 91.796875 236.3125 95.351562 230.066406 C 95.792969 229.289062 96.265625 228.53125 96.757812 227.789062 C 95.179688 231.582031 94.011719 235.570312 93.003906 239.601562 C 90.109375 251.171875 88.03125 262.949219 86.765625 274.816406 C 86.894531 266.675781 87.378906 258.460938 88.71875 250.429688 Z M 90.640625 318.242188 C 90.621094 315.371094 90.644531 312.496094 90.730469 309.625 C 91.355469 288.558594 94.847656 267.59375 101.113281 247.472656 C 103.425781 240.058594 106.113281 232.761719 109.175781 225.625 C 109.71875 224.683594 110.277344 223.746094 110.863281 222.824219 C 112.113281 220.863281 113.46875 218.894531 114.949219 217.03125 C 114.664062 217.683594 114.375 218.335938 114.09375 218.984375 C 112.199219 223.335938 110.4375 227.746094 108.824219 232.207031 C 102.289062 250.242188 98.089844 269.105469 96.242188 288.195312 C 94.402344 307.179688 94.953125 326.375 97.890625 345.222656 C 94.871094 336.40625 92.445312 327.382812 90.640625 318.242188 Z M 99.851562 285.390625 C 98.855469 292.804688 98.160156 300.257812 97.769531 307.726562 C 97.808594 303.984375 97.9375 300.246094 98.164062 296.511719 C 99.28125 277.992188 102.675781 259.617188 108.25 241.917969 C 110.792969 233.855469 113.746094 225.878906 117.242188 218.175781 C 117.375 218.269531 117.507812 218.363281 117.636719 218.460938 C 116.363281 221.449219 115.289062 224.554688 114.179688 227.5625 C 107.292969 246.238281 102.507812 265.667969 99.851562 285.394531 Z M 132.671875 234.800781 C 130.34375 231.011719 127.90625 227.289062 125.363281 223.640625 C 123.964844 221.636719 122.511719 219.511719 120.746094 217.75 C 121.394531 216.324219 122.125 214.953125 123.007812 213.6875 C 127.796875 216.535156 130.972656 222.390625 133.550781 227.121094 C 134.683594 229.199219 135.777344 231.300781 136.839844 233.414062 C 136.660156 236.089844 136.585938 238.769531 136.597656 241.449219 C 135.320312 239.210938 134.019531 236.992188 132.671875 234.800781 Z M 158.378906 333.953125 C 158.363281 334.21875 158.34375 334.484375 158.324219 334.753906 C 158.289062 334.640625 158.25 334.53125 158.210938 334.417969 C 158.410156 330.777344 158.53125 327.132812 158.585938 323.488281 C 158.628906 323.621094 158.679688 323.753906 158.722656 323.886719 C 158.675781 327.246094 158.5625 330.601562 158.378906 333.953125 Z M 164.320312 330.839844 C 164.328125 331.167969 164.332031 331.492188 164.339844 331.820312 C 163.257812 329.058594 162.246094 326.269531 161.292969 323.460938 C 161.304688 322.472656 161.308594 321.484375 161.308594 320.5 C 161.726562 320.34375 162.035156 319.972656 162.007812 319.351562 C 161.859375 316.320312 161.636719 313.296875 161.363281 310.277344 C 161.988281 310.074219 162.507812 309.351562 162.355469 308.65625 C 162.199219 307.933594 162.019531 307.21875 161.855469 306.5 C 162.035156 306.761719 162.203125 307.027344 162.382812 307.289062 C 162.46875 307.417969 162.5625 307.539062 162.652344 307.664062 C 163.539062 315.359375 164.101562 323.09375 164.320312 330.839844 Z M 156.53125 254.828125 C 161.117188 271.375 163.355469 288.460938 165.230469 305.496094 C 165.289062 306.035156 165.34375 306.578125 165.402344 307.117188 C 165.308594 306.984375 165.210938 306.847656 165.117188 306.710938 C 163.714844 294.800781 161.539062 282.976562 158.59375 271.355469 C 156.488281 263.054688 153.996094 254.851562 151.121094 246.785156 C 151.417969 244.921875 151.742188 243.058594 152.097656 241.203125 C 153.789062 245.671875 155.253906 250.226562 156.53125 254.828125 Z M 169.417969 194.503906 C 166.148438 195.933594 163.746094 198.851562 161.957031 201.851562 C 159.878906 205.339844 158.496094 209.222656 157.125 213.03125 C 155.902344 216.417969 154.789062 219.847656 153.773438 223.300781 C 153.800781 223.148438 153.828125 223 153.855469 222.847656 C 154.734375 218.988281 155.703125 215.148438 156.773438 211.335938 C 157.867188 207.453125 158.976562 203.542969 160.6875 199.875 C 161.023438 199.152344 161.394531 198.425781 161.792969 197.703125 C 163.199219 196.019531 164.96875 194.734375 167.257812 194.1875 C 168.445312 193.90625 169.59375 193.875 170.703125 194.039062 C 170.269531 194.167969 169.839844 194.320312 169.417969 194.503906 Z M 192.5 250.332031 C 190.289062 239.789062 189.539062 228.921875 190.308594 218.167969 C 191.019531 219.734375 191.710938 221.304688 192.375 222.886719 C 191.941406 229.199219 191.910156 235.542969 192.285156 241.851562 C 192.5625 246.515625 193.066406 251.15625 193.777344 255.765625 C 193.308594 253.964844 192.878906 252.15625 192.5 250.332031 Z M 214.441406 285.527344 C 214.453125 285.839844 214.457031 286.152344 214.464844 286.464844 C 214.4375 286.402344 214.40625 286.34375 214.375 286.28125 C 214.238281 285.519531 214.109375 284.75 213.964844 283.988281 C 214.105469 284.191406 214.25 284.398438 214.394531 284.601562 C 214.410156 284.910156 214.429688 285.21875 214.441406 285.527344 Z M 213.078125 229.179688 C 220.738281 247.703125 226.070312 267.617188 224.722656 287.816406 C 224.613281 289.460938 224.441406 291.105469 224.242188 292.742188 C 221.605469 289.882812 219.167969 286.859375 216.921875 283.699219 C 216.144531 268.21875 213.03125 252.859375 207.734375 238.289062 C 206.101562 233.785156 204.257812 229.359375 202.222656 225.019531 C 202.398438 220.882812 202.71875 216.753906 203.183594 212.640625 C 203.324219 211.386719 203.480469 210.132812 203.640625 208.871094 C 207.027344 215.527344 210.226562 222.28125 213.078125 229.179688 Z M 221.851562 183.101562 C 214.769531 182.484375 209.664062 187.921875 206.46875 193.582031 C 206.410156 193.691406 206.355469 193.796875 206.296875 193.90625 C 206.667969 192.347656 207.0625 190.796875 207.507812 189.265625 C 209.082031 183.824219 211.65625 177.617188 216.941406 174.835938 C 218.007812 174.273438 219.085938 173.921875 220.160156 173.738281 C 221.441406 173.804688 222.722656 173.996094 223.992188 174.296875 C 227.566406 176.636719 230.429688 180.027344 232.621094 183.808594 C 232.515625 184.167969 232.398438 184.523438 232.296875 184.882812 C 232.027344 185.824219 231.792969 186.769531 231.566406 187.714844 C 228.824219 185.257812 225.582031 183.429688 221.847656 183.101562 Z M 244.429688 264.871094 C 243.378906 263.203125 242.78125 261.378906 242.136719 259.523438 C 241.324219 257.191406 240.535156 254.855469 239.78125 252.503906 C 234.058594 234.722656 230.019531 215.863281 232.417969 197.121094 C 232.589844 195.773438 232.808594 194.429688 233.050781 193.085938 C 234.101562 194.40625 235.039062 195.792969 235.878906 197.238281 C 235.097656 203.640625 235.175781 210.171875 235.835938 216.476562 C 237.242188 229.835938 240.324219 242.988281 244.980469 255.574219 C 245.199219 258.339844 245.4375 261.105469 245.714844 263.867188 C 245.824219 264.929688 245.953125 265.996094 246.070312 267.058594 C 245.460938 266.375 244.910156 265.632812 244.429688 264.871094 Z M 249.1875 269.484375 C 249.335938 268.585938 249.484375 267.6875 249.625 266.789062 C 249.84375 267.269531 250.058594 267.753906 250.285156 268.234375 C 250.53125 268.761719 250.789062 269.28125 251.042969 269.804688 C 250.421875 269.910156 249.78125 269.753906 249.1875 269.484375 Z M 249.1875 269.484375 " fill-opacity="1" fill-rule="nonzero"/><path fill="#cc9900" d="M 287.976562 80.929688 C 284.527344 75.617188 279.09375 71.847656 272.707031 71.242188 C 266.261719 70.628906 259.960938 73.449219 255.15625 77.582031 C 250.53125 81.5625 247.292969 86.816406 245.636719 92.632812 C 245.609375 92.695312 245.582031 92.757812 245.550781 92.816406 C 237.167969 99.589844 231.96875 110.71875 235.378906 121.378906 C 237.367188 127.597656 241.914062 133.046875 247.710938 136.070312 C 249.269531 136.882812 250.921875 137.511719 252.625 137.9375 C 254.996094 140.75 257.898438 143.058594 261.355469 144.144531 C 264.542969 145.144531 267.964844 144.753906 270.917969 143.222656 C 274.160156 141.542969 276.675781 138.730469 279.003906 135.984375 C 284.042969 130.03125 288.488281 123.484375 291.351562 116.195312 C 294.015625 109.417969 295.257812 101.59375 293.339844 94.453125 C 292.957031 93.015625 292.433594 91.625 291.796875 90.289062 C 291.09375 86.964844 289.816406 83.765625 287.976562 80.929688 Z M 254.699219 135.695312 C 254.242188 135.1875 253.839844 134.621094 253.492188 134.066406 C 254.277344 134.355469 255.082031 134.601562 255.898438 134.800781 C 256.59375 135.210938 257.320312 135.574219 258.0625 135.878906 C 256.9375 135.921875 255.816406 135.863281 254.699219 135.695312 Z M 263.253906 132.734375 C 261.074219 132.988281 258.851562 132.839844 256.710938 132.34375 C 253.925781 130.535156 251.683594 127.757812 250.316406 124.8125 C 250.078125 124.292969 249.871094 123.765625 249.683594 123.234375 C 249.324219 121.886719 248.988281 120.535156 248.679688 119.175781 C 247.960938 114.355469 248.683594 109.246094 249.660156 104.503906 C 252.5 101.753906 256.207031 99.933594 260.207031 99.832031 C 261.863281 99.792969 261.871094 97.214844 260.207031 97.257812 C 256.683594 97.34375 253.378906 98.554688 250.542969 100.5 C 250.894531 98.992188 251.269531 97.476562 251.691406 95.972656 C 252.300781 95.933594 252.867188 95.527344 252.839844 94.738281 C 252.761719 92.414062 254.5625 90.773438 256.660156 90.105469 C 259.132812 89.3125 261.613281 89.816406 263.578125 91.523438 C 268.34375 95.664062 269.125 103.367188 269.199219 109.265625 C 269.289062 116.441406 267.734375 123.667969 264.605469 130.136719 C 264.183594 131.011719 263.734375 131.882812 263.253906 132.738281 Z M 249.085938 95.78125 C 248.402344 98.25 247.796875 100.757812 247.28125 103.28125 C 247.09375 103.476562 246.90625 103.671875 246.726562 103.875 C 246.734375 100.636719 247.0625 97.398438 247.839844 94.273438 C 248.535156 93.746094 249.257812 93.253906 249.996094 92.792969 C 249.671875 93.785156 249.363281 94.777344 249.085938 95.777344 Z M 278.457031 117.84375 C 276.449219 123.386719 273.550781 129.15625 267.828125 131.570312 C 267.429688 131.738281 267.015625 131.871094 266.605469 132.007812 C 267.425781 130.328125 268.074219 128.683594 268.558594 127.414062 C 271.347656 120.113281 272.371094 112.078125 271.453125 104.3125 C 270.804688 98.859375 269.128906 91.957031 264.246094 88.75 C 265.683594 88.785156 267.128906 88.949219 268.570312 89.261719 C 273.421875 90.3125 278.246094 92.902344 280.636719 97.429688 C 284.015625 103.820312 280.714844 111.621094 278.460938 117.84375 Z M 251.382812 89.089844 C 251.082031 89.238281 250.777344 89.386719 250.476562 89.546875 C 250.953125 88.917969 251.464844 88.300781 252.011719 87.703125 C 251.796875 88.160156 251.582031 88.621094 251.382812 89.089844 Z M 245.023438 123.199219 C 244.777344 122.625 244.566406 122.035156 244.402344 121.421875 C 244.285156 121 244.199219 120.574219 244.125 120.148438 C 244.398438 121.171875 244.695312 122.191406 245.023438 123.199219 Z M 279.34375 122.46875 C 279.886719 121.285156 280.375 120.078125 280.820312 118.859375 C 283.386719 111.882812 286.578125 103.664062 283.03125 96.46875 C 280.476562 91.277344 275.003906 88.089844 269.523438 86.839844 C 264.609375 85.71875 259.609375 86.046875 254.914062 87.628906 C 255.410156 86.691406 255.941406 85.769531 256.546875 84.890625 C 257.132812 84.046875 257.773438 83.257812 258.472656 82.53125 C 261.222656 80.980469 264.265625 79.976562 267.425781 79.796875 C 273.246094 79.46875 278.574219 82.089844 282.292969 86.5 C 285.976562 90.867188 287.9375 96.71875 287.851562 102.40625 C 287.804688 105.496094 287.175781 108.519531 286.132812 111.410156 C 284.289062 115.324219 281.917969 119.003906 279.34375 122.46875 Z M 289.824219 96.410156 C 288.8125 91.683594 286.5625 87.203125 283.234375 83.699219 C 281.597656 81.972656 279.703125 80.546875 277.636719 79.476562 C 282.664062 81.820312 286.890625 86.148438 289.332031 91.164062 C 289.667969 92.894531 289.828125 94.648438 289.824219 96.410156 Z M 276.40625 74.644531 C 280.179688 75.933594 283.257812 78.601562 285.492188 81.855469 C 284.757812 81.175781 283.988281 80.53125 283.191406 79.929688 C 278.625 76.496094 272.796875 74.421875 267.050781 75.214844 C 263.097656 75.757812 259.707031 77.707031 256.988281 80.417969 C 255.910156 81.03125 254.875 81.722656 253.890625 82.476562 C 259.480469 75.984375 268.046875 71.785156 276.40625 74.644531 Z M 248.484375 133.5625 C 243.390625 130.734375 239.382812 125.855469 237.726562 120.257812 C 236.046875 114.59375 237.085938 108.5 239.902344 103.375 C 240.929688 101.503906 242.179688 99.753906 243.605469 98.15625 C 242.839844 101.03125 242.453125 104.023438 242.414062 107.035156 C 242.398438 108.3125 242.449219 109.589844 242.542969 110.871094 C 241.230469 114.453125 240.902344 118.363281 241.917969 122.105469 C 242.953125 125.910156 245.277344 129.007812 248.289062 131.253906 C 248.800781 132.28125 249.375 133.304688 250 134.308594 C 249.492188 134.082031 248.984375 133.839844 248.484375 133.558594 Z M 276.03125 135.496094 C 273.910156 137.902344 271.496094 140.425781 268.402344 141.535156 C 265.675781 142.511719 262.769531 142.230469 260.210938 140.902344 C 259.710938 140.640625 259.234375 140.347656 258.769531 140.042969 C 260.269531 139.835938 261.613281 138.984375 262.800781 137.773438 C 263.722656 137.515625 264.625 137.203125 265.511719 136.835938 C 266.34375 136.703125 267.179688 136.488281 268.015625 136.175781 C 271.433594 134.898438 274.257812 132.492188 276.6875 129.820312 C 277.304688 129.140625 277.90625 128.441406 278.5 127.734375 C 280.496094 125.695312 282.304688 123.496094 283.886719 121.226562 C 285.808594 118.472656 287.429688 115.425781 288.578125 112.222656 C 289.910156 109.34375 290.964844 106.347656 291.640625 103.246094 C 291.136719 115.347656 283.828125 126.652344 276.03125 135.496094 Z M 276.03125 135.496094 " fill-opacity="1" fill-rule="nonzero"/><g clip-path="url(#2c41ae19d8)"><path fill="#cc9900" d="M 49.019531 180.164062 C 52.722656 179.121094 56.210938 177.496094 59.398438 175.402344 C 59.808594 176.003906 60.253906 176.582031 60.773438 177.097656 C 63.933594 180.230469 67.582031 180.796875 71.207031 179.976562 C 71.277344 184.09375 72.191406 188.070312 74.640625 191.40625 C 76.839844 194.410156 80.019531 196.445312 83.605469 197.167969 C 90.597656 201.160156 99.71875 199.851562 106.144531 195.265625 C 110.054688 193.355469 113.3125 190.320312 115.863281 186.808594 C 117.835938 184.09375 119.3125 181.015625 120.308594 177.761719 C 122.234375 174.597656 123.941406 171.277344 125.273438 167.859375 C 127.191406 162.941406 127.984375 157.464844 126.246094 152.375 C 124.839844 148.246094 122.082031 144.71875 118.664062 142.050781 C 118.34375 141.800781 118.011719 141.570312 117.683594 141.335938 C 117.253906 140.714844 116.808594 140.105469 116.320312 139.515625 C 113.589844 136.179688 110.039062 133.511719 106.101562 131.902344 C 109.324219 128.671875 112.550781 125.441406 115.773438 122.210938 C 116.585938 121.394531 115.957031 120.0625 114.863281 120.011719 C 113.753906 119.964844 112.648438 119.960938 111.542969 119.984375 C 113.578125 116.816406 115.507812 113.582031 117.347656 110.296875 C 117.867188 110.84375 118.492188 111.292969 119.195312 111.585938 C 122.558594 112.976562 126.546875 111.09375 129.191406 109.011719 C 129.699219 108.617188 130.183594 108.183594 130.660156 107.742188 C 131.574219 109.078125 132.542969 110.367188 133.574219 111.605469 C 131.644531 113.246094 129.71875 114.882812 127.789062 116.523438 C 123.941406 119.796875 120.089844 123.074219 116.242188 126.347656 C 115.375 127.085938 116.089844 128.558594 117.152344 128.546875 C 121.285156 128.488281 125.410156 128.109375 129.484375 127.449219 C 128.910156 129.554688 128.605469 131.742188 128.570312 133.914062 C 128.535156 136.265625 128.820312 138.578125 129.363281 140.824219 C 129.285156 142.472656 129.335938 144.132812 129.558594 145.777344 C 129.601562 146.070312 129.648438 146.363281 129.699219 146.652344 C 129.074219 150.085938 129.058594 153.597656 130.214844 156.847656 C 132.433594 163.078125 138.550781 166.5 145.015625 166.085938 C 145.351562 166.0625 145.683594 166.027344 146.015625 165.992188 C 146.855469 166.339844 147.710938 166.652344 148.578125 166.921875 C 149.691406 167.75 150.847656 168.519531 152.0625 169.191406 C 155.292969 170.980469 158.972656 172.089844 162.671875 171.398438 C 166.3125 170.71875 169.148438 168.179688 171.347656 165.339844 C 171.644531 164.957031 171.9375 164.570312 172.226562 164.175781 C 180.941406 158.457031 185.152344 147.367188 184.179688 137.167969 C 183.992188 135.191406 183.613281 133.238281 183.046875 131.351562 C 182.953125 129.679688 182.765625 128.023438 182.472656 126.410156 C 181.277344 119.796875 177.414062 112.238281 171.808594 107.824219 C 173.878906 106.070312 175.851562 104.195312 177.566406 102.125 C 180.222656 98.925781 182.589844 94.988281 182.636719 90.707031 C 182.679688 86.847656 180.53125 83.300781 177.164062 81.460938 C 174.015625 79.742188 170.25 79.378906 166.726562 79.570312 C 163.628906 79.742188 160.542969 80.335938 157.511719 81.085938 C 158.226562 70.914062 158.945312 60.738281 159.660156 50.566406 C 159.777344 48.914062 157.203125 48.921875 157.085938 50.566406 C 156.351562 60.96875 155.621094 71.367188 154.886719 81.769531 C 154.539062 81.863281 154.191406 81.957031 153.847656 82.054688 C 152.355469 82.472656 150.878906 82.9375 149.40625 83.425781 C 146.054688 73.4375 142.703125 63.449219 139.351562 53.464844 C 139.085938 52.675781 138.324219 52.457031 137.703125 52.632812 C 136.964844 51.355469 136.171875 50.105469 135.292969 48.910156 C 134.214844 47.445312 133.042969 46.046875 131.777344 44.734375 C 131.164062 44.101562 130.210938 44.332031 129.753906 44.996094 C 123.535156 54 120.597656 64.976562 120.757812 75.871094 C 120.855469 82.609375 122.101562 89.363281 124.453125 95.703125 C 122.457031 97.015625 120.511719 98.464844 118.910156 100.191406 C 114.347656 97.445312 108.625 98.804688 103.992188 101.359375 C 100.015625 103.554688 96.648438 106.59375 93.523438 109.871094 C 93.210938 109.992188 92.898438 110.121094 92.582031 110.246094 C 90.847656 105.878906 89.109375 101.507812 87.371094 97.140625 L 82.710938 85.417969 C 82.292969 84.367188 80.492188 84.035156 80.226562 85.417969 C 78.511719 94.324219 77.914062 103.410156 78.414062 112.445312 C 74.929688 106.542969 70.511719 101.195312 65.3125 96.726562 C 61.53125 93.480469 57.375 90.695312 52.902344 88.488281 C 52.101562 88.09375 50.886719 88.554688 50.964844 89.601562 C 52.128906 104.714844 53.292969 119.828125 54.453125 134.941406 C 54.746094 138.71875 55.035156 142.496094 55.328125 146.273438 C 55.449219 147.863281 55.460938 149.660156 55.738281 151.363281 C 55.324219 152.398438 54.917969 153.433594 54.53125 154.476562 C 51.613281 162.335938 49.421875 170.441406 47.433594 178.582031 C 47.203125 179.519531 48.046875 180.4375 49.015625 180.164062 Z M 58.640625 152.367188 C 58.558594 152.097656 58.484375 151.828125 58.421875 151.550781 C 60.15625 147.308594 62.132812 143.164062 64.445312 139.183594 C 68.355469 132.457031 73.320312 126.273438 79.257812 121.269531 C 79.457031 122.71875 79.683594 124.164062 79.9375 125.601562 C 72.929688 134.367188 66.484375 143.585938 60.6875 153.1875 C 60.464844 153.558594 60.25 153.9375 60.03125 154.308594 C 59.375 153.90625 58.898438 153.175781 58.644531 152.367188 Z M 113.148438 109.484375 C 111.265625 113.15625 109.253906 116.761719 107.089844 120.277344 C 103.796875 120.636719 100.539062 121.3125 97.367188 122.273438 C 96.800781 120.847656 96.234375 119.425781 95.667969 118 L 93.832031 113.382812 C 93.863281 113.347656 93.894531 113.3125 93.925781 113.277344 C 94.339844 112.832031 94.75 112.390625 95.164062 111.949219 C 100.910156 109.867188 107.054688 108.894531 113.148438 109.484375 Z M 84.554688 194.730469 C 83.539062 194.128906 82.589844 193.421875 81.765625 192.574219 C 80.613281 191.390625 79.777344 190.027344 79.179688 188.5625 C 80.632812 190.503906 82.332031 192.246094 84.320312 193.671875 C 84.945312 194.125 85.609375 194.515625 86.285156 194.882812 C 85.707031 194.875 85.128906 194.816406 84.554688 194.730469 Z M 59.9375 165.800781 C 60.335938 163.800781 60.855469 161.835938 61.492188 159.914062 C 62.195312 158.675781 63.050781 157.519531 63.992188 156.441406 C 64.96875 155.925781 65.855469 155.210938 66.675781 154.503906 C 68.191406 153.191406 69.535156 151.660156 71.121094 150.425781 C 71.71875 149.960938 72.363281 149.519531 73.058594 149.355469 C 73.375 149.277344 73.679688 149.289062 74 149.433594 C 73.9375 149.78125 73.878906 150.132812 73.804688 150.476562 C 72.949219 151.847656 72.234375 153.320312 71.710938 154.902344 C 71.304688 156.128906 71.015625 157.433594 70.863281 158.757812 C 70.109375 160.269531 69.265625 161.730469 68.3125 163.125 C 67.691406 163.601562 67.078125 164.085938 66.449219 164.546875 C 65.484375 165.261719 64.5 165.949219 63.515625 166.640625 C 62.175781 166.933594 60.800781 166.855469 59.9375 165.800781 Z M 109.070312 187.207031 C 106.425781 189.746094 103.28125 191.953125 99.75 193.035156 C 107.464844 188.234375 113.683594 180.828125 118.164062 173 C 117.625 174.660156 116.992188 176.289062 116.277344 177.878906 C 114.332031 181.304688 111.90625 184.484375 109.070312 187.207031 Z M 93.136719 193.527344 C 92.835938 193.472656 92.535156 193.410156 92.238281 193.339844 C 85.417969 190.394531 80.863281 182.992188 79.738281 175.847656 C 80.496094 175.3125 81.230469 174.753906 81.933594 174.1875 C 83.058594 174.480469 84.195312 174.707031 85.300781 174.882812 C 94.4375 176.363281 105.222656 174.5 111.429688 167.027344 C 114.367188 163.492188 116.09375 158.730469 116.152344 154.015625 C 117.839844 157.351562 118.832031 161.058594 119.144531 164.851562 C 117.59375 169.332031 114.976562 173.566406 112.308594 177.253906 C 107.421875 183.996094 101.082031 190.503906 93.140625 193.527344 Z M 112.871094 149.089844 C 114.871094 155.414062 112.574219 162.855469 107.660156 167.199219 C 101.429688 172.703125 92.277344 173.742188 84.367188 172.09375 C 84.769531 171.726562 85.15625 171.363281 85.519531 171.011719 C 86.71875 169.859375 84.894531 168.039062 83.699219 169.191406 C 82.957031 169.90625 82.191406 170.621094 81.402344 171.324219 C 80.699219 171.09375 80.019531 170.832031 79.367188 170.527344 C 79.367188 170.265625 79.367188 170.003906 79.375 169.742188 C 80.382812 165.398438 81.863281 161.144531 83.757812 157.253906 C 85.121094 154.449219 86.820312 151.601562 88.910156 149.128906 C 89.195312 148.84375 89.476562 148.558594 89.761719 148.277344 C 92.371094 150.914062 93.300781 155.691406 90.453125 158.257812 C 89.222656 159.367188 91.046875 161.183594 92.277344 160.078125 C 96.246094 156.496094 95.128906 150.078125 91.5625 146.472656 C 91.664062 146.367188 91.769531 146.265625 91.875 146.160156 C 93.6875 144.640625 95.722656 143.425781 98.027344 142.707031 C 99.148438 142.359375 100.269531 142.160156 101.382812 142.070312 C 103.921875 142.648438 106.34375 143.65625 108.496094 145.136719 C 110.152344 146.28125 111.605469 147.613281 112.871094 149.089844 Z M 77.601562 160.464844 C 77.796875 160.265625 77.996094 160.070312 78.195312 159.871094 C 77.496094 162.875 77.003906 165.929688 76.855469 169.003906 C 76.359375 168.609375 75.910156 168.164062 75.503906 167.675781 C 76.019531 165.558594 76.621094 163.464844 77.285156 161.40625 C 77.382812 161.09375 77.492188 160.78125 77.601562 160.464844 Z M 88.722656 144.496094 C 88.503906 144.402344 88.28125 144.3125 88.054688 144.238281 C 88.785156 143.675781 89.554688 143.164062 90.367188 142.699219 C 89.828125 143.304688 89.273438 143.898438 88.722656 144.496094 Z M 85.609375 146.40625 C 86.019531 146.402344 86.421875 146.453125 86.808594 146.546875 C 85.894531 147.507812 84.972656 148.460938 84.03125 149.402344 C 84.285156 148.6875 84.539062 147.976562 84.792969 147.273438 C 85.058594 146.976562 85.332031 146.691406 85.609375 146.40625 Z M 82.742188 145.238281 C 82.632812 145.476562 82.539062 145.730469 82.460938 145.988281 C 79.820312 149.085938 77.835938 152.765625 76.289062 156.613281 C 76.210938 156.683594 76.128906 156.75 76.050781 156.820312 C 77.046875 153 78.792969 149.308594 81.265625 146.222656 C 81.742188 145.875 82.238281 145.550781 82.742188 145.238281 Z M 76.367188 171.886719 C 76.242188 172.519531 76.128906 173.160156 76.019531 173.808594 C 75.8125 172.972656 75.636719 172.128906 75.492188 171.28125 C 75.777344 171.492188 76.066406 171.695312 76.367188 171.886719 Z M 83.566406 140.136719 C 83.3125 140.25 83.054688 140.363281 82.800781 140.480469 C 83.007812 140.226562 83.222656 139.976562 83.4375 139.730469 C 83.484375 139.867188 83.523438 140.003906 83.566406 140.136719 Z M 75.878906 147.167969 C 75.835938 147.261719 75.800781 147.359375 75.761719 147.453125 C 75.695312 147.40625 75.621094 147.367188 75.546875 147.324219 C 75.667969 147.25 75.785156 147.179688 75.902344 147.109375 C 75.894531 147.128906 75.886719 147.148438 75.878906 147.167969 Z M 77.984375 179.492188 C 77.984375 179.5 77.988281 179.503906 77.988281 179.511719 C 77.988281 179.507812 77.984375 179.503906 77.980469 179.496094 C 77.980469 179.496094 77.980469 179.496094 77.980469 179.492188 Z M 117.296875 150.640625 C 118.234375 152.113281 118.960938 153.65625 119.496094 155.238281 C 118.464844 152.667969 117.089844 150.257812 115.367188 148.097656 C 116.070312 148.890625 116.71875 149.738281 117.296875 150.640625 Z M 96.398438 135.542969 C 93.039062 135.824219 89.796875 136.757812 86.855469 138.3125 C 86.804688 137.769531 86.757812 137.226562 86.691406 136.683594 C 87.101562 136.375 87.515625 136.074219 87.945312 135.792969 C 91.203125 133.671875 94.84375 132.734375 98.472656 132.847656 C 97.789062 133.75 97.101562 134.652344 96.398438 135.542969 Z M 81.519531 133 C 81.851562 134.320312 82.199219 135.636719 82.582031 136.941406 C 80.835938 138.714844 79.324219 140.734375 78.046875 142.890625 C 77.285156 143.316406 76.523438 143.746094 75.777344 144.191406 C 72.039062 146.414062 68.277344 148.839844 65.011719 151.765625 C 68.984375 144.382812 74.707031 137.945312 81.519531 133 Z M 110.871094 141.351562 C 110.65625 141.160156 110.425781 140.992188 110.199219 140.816406 C 111.515625 141.496094 112.769531 142.300781 113.917969 143.226562 C 112.964844 142.515625 111.949219 141.890625 110.871094 141.351562 Z M 99.773438 128.328125 C 99.289062 127.105469 98.800781 125.882812 98.316406 124.660156 C 98.347656 124.648438 98.382812 124.636719 98.417969 124.628906 C 100.679688 123.957031 102.976562 123.457031 105.300781 123.105469 C 103.75 125.507812 102.132812 127.867188 100.453125 130.179688 C 100.226562 129.550781 100.011719 128.917969 99.777344 128.328125 Z M 96.105469 126.035156 C 96.660156 127.429688 97.210938 128.824219 97.765625 130.222656 C 95.964844 130.222656 94.148438 130.457031 92.34375 130.972656 C 90.132812 131.601562 88.117188 132.59375 86.28125 133.84375 C 86.082031 132.664062 85.851562 131.484375 85.582031 130.316406 C 88.839844 128.351562 92.292969 126.714844 95.878906 125.457031 C 95.953125 125.648438 96.03125 125.839844 96.105469 126.035156 Z M 84.917969 127.726562 C 84.632812 126.703125 84.324219 125.6875 83.988281 124.679688 C 84.847656 123.636719 85.703125 122.589844 86.578125 121.558594 C 88.320312 119.507812 90.109375 117.492188 91.914062 115.492188 C 92.917969 118.019531 93.921875 120.542969 94.925781 123.066406 C 91.453125 124.292969 88.097656 125.863281 84.917969 127.726562 Z M 80.878906 130.308594 C 79.777344 131.078125 78.703125 131.882812 77.65625 132.722656 C 78.621094 131.445312 79.59375 130.179688 80.582031 128.921875 C 80.679688 129.382812 80.773438 129.847656 80.878906 130.308594 Z M 59.644531 168.871094 C 59.769531 168.929688 59.890625 168.984375 60.019531 169.03125 C 59.910156 169.105469 59.800781 169.175781 59.695312 169.25 C 59.675781 169.121094 59.660156 168.996094 59.644531 168.871094 Z M 88.199219 115.765625 C 86.425781 117.773438 84.695312 119.816406 82.980469 121.875 C 82.632812 120.972656 82.261719 120.078125 81.875 119.195312 C 84.210938 117.445312 86.6875 115.878906 89.296875 114.527344 C 88.929688 114.941406 88.5625 115.355469 88.199219 115.769531 Z M 57.386719 170.761719 C 55.734375 171.8125 54.058594 172.828125 52.371094 173.816406 C 53.90625 170.695312 55.503906 167.609375 57.164062 164.550781 C 57.097656 164.972656 57.039062 165.398438 57.003906 165.832031 C 56.875 167.457031 57.007812 169.140625 57.386719 170.761719 Z M 62.710938 175.386719 C 65.71875 172.375 68.722656 169.363281 71.730469 166.347656 C 71.886719 166.75 72.0625 167.140625 72.261719 167.523438 C 72.300781 168.230469 72.355469 168.9375 72.421875 169.640625 C 71.875 172.140625 71.449219 174.746094 71.285156 177.335938 C 68.226562 178.058594 64.996094 177.535156 62.710938 175.386719 Z M 74.78125 185.976562 C 74.089844 183.773438 73.84375 181.460938 73.859375 179.144531 C 74.019531 179.078125 74.179688 179.011719 74.335938 178.941406 C 74.648438 179.894531 74.992188 180.835938 75.375 181.765625 C 75.449219 184.90625 76.003906 187.957031 77.351562 190.660156 C 76.203125 189.289062 75.316406 187.683594 74.78125 185.976562 Z M 91.390625 196.898438 C 91.304688 196.890625 91.222656 196.875 91.136719 196.863281 C 91.273438 196.828125 91.414062 196.796875 91.550781 196.757812 C 92.023438 196.847656 92.5 196.921875 92.976562 196.972656 C 92.453125 196.972656 91.925781 196.945312 91.390625 196.898438 Z M 123.199219 166.082031 C 123.132812 166.265625 123.058594 166.445312 122.992188 166.628906 C 123.1875 165.261719 123.296875 163.890625 123.300781 162.515625 C 123.300781 161.222656 123.1875 159.925781 122.980469 158.648438 C 123.261719 155.085938 122.769531 151.539062 121.195312 148.253906 C 122.199219 149.609375 123.039062 151.078125 123.617188 152.652344 C 125.246094 157.066406 124.738281 161.71875 123.199219 166.085938 Z M 111.105469 137.890625 C 109.722656 137.390625 108.308594 136.996094 106.867188 136.710938 C 105.742188 136.367188 104.59375 136.089844 103.4375 135.886719 C 104.097656 135.550781 104.550781 134.894531 104.65625 134.089844 C 106.199219 134.660156 107.699219 135.417969 109.109375 136.367188 C 109.8125 136.84375 110.46875 137.355469 111.105469 137.890625 Z M 111.789062 122.5625 C 109.675781 124.679688 107.558594 126.796875 105.445312 128.917969 C 106.9375 126.851562 108.390625 124.757812 109.800781 122.636719 C 110.460938 122.597656 111.125 122.574219 111.789062 122.5625 Z M 143.277344 85.683594 C 143.019531 85.789062 142.761719 85.898438 142.503906 86.003906 C 142.710938 85.078125 142.890625 84.144531 143.039062 83.203125 C 143.125 84.027344 143.207031 84.855469 143.277344 85.679688 Z M 131.0625 103.601562 C 129.757812 101.40625 128.613281 99.113281 127.632812 96.753906 C 130.796875 94.6875 134.074219 92.792969 137.453125 91.105469 C 137.804688 90.929688 138.164062 90.769531 138.515625 90.597656 C 137.09375 94.640625 135.089844 98.46875 132.464844 101.871094 C 132.019531 102.449219 131.550781 103.03125 131.0625 103.601562 Z M 132.503906 105.875 C 133.941406 104.277344 135.234375 102.53125 136.382812 100.777344 C 138.382812 97.71875 139.960938 94.382812 141.136719 90.921875 C 141.339844 90.332031 141.511719 89.734375 141.6875 89.136719 C 142.285156 88.875 142.878906 88.605469 143.480469 88.355469 C 143.800781 93.238281 143.851562 98.136719 143.652344 103.035156 C 140.941406 105.339844 138.230469 107.644531 135.519531 109.953125 C 134.445312 108.648438 133.445312 107.28125 132.503906 105.875 Z M 180.582031 133.828125 C 179.820312 131.003906 178.539062 128.316406 176.710938 125.875 C 174.164062 122.46875 170.851562 119.679688 167.105469 117.699219 C 170.511719 118.820312 173.636719 120.789062 176.144531 123.710938 C 178.183594 126.085938 179.628906 128.855469 180.546875 131.808594 C 180.578125 132.480469 180.589844 133.15625 180.585938 133.828125 Z M 137.210938 111.882812 C 139.292969 110.109375 141.378906 108.339844 143.460938 106.566406 C 143.304688 108.878906 143.09375 111.183594 142.820312 113.484375 C 141.800781 113.746094 140.804688 114.097656 139.839844 114.535156 C 138.929688 113.6875 138.050781 112.800781 137.210938 111.882812 Z M 142.464844 116.269531 C 142.441406 116.429688 142.417969 116.589844 142.394531 116.75 C 142.265625 116.644531 142.140625 116.535156 142.011719 116.429688 C 142.160156 116.375 142.3125 116.320312 142.464844 116.269531 Z M 146.511719 161.855469 C 145.164062 160.632812 143.851562 159.367188 142.589844 158.054688 C 144.988281 159.871094 147.667969 161.324219 150.480469 162.3125 C 149.636719 162.617188 148.773438 162.867188 147.886719 163.070312 C 147.421875 162.671875 146.960938 162.269531 146.507812 161.855469 Z M 146.078125 120.289062 C 147.300781 119.570312 148.578125 118.9375 149.894531 118.425781 C 150.585938 118.160156 151.289062 117.925781 152 117.714844 C 150.0625 118.648438 148.085938 119.507812 146.078125 120.289062 Z M 140.582031 124.898438 C 139.496094 125.984375 138.503906 127.148438 137.601562 128.386719 C 138.351562 127.1875 139.230469 126.0625 140.195312 125.011719 C 140.324219 124.972656 140.453125 124.9375 140.582031 124.898438 Z M 134.691406 140.265625 C 134.660156 139.917969 134.660156 139.578125 134.648438 139.234375 C 136.121094 135.542969 137.992188 131.90625 140.496094 128.8125 C 140.058594 130.78125 139.707031 132.769531 139.457031 134.757812 C 138.734375 140.472656 138.78125 146.78125 141.402344 152.046875 C 142.402344 154.058594 143.878906 155.84375 145.714844 157.140625 C 139.847656 153.324219 135.34375 147.21875 134.691406 140.265625 Z M 148.886719 158.6875 C 149.65625 158.71875 150.621094 158.335938 151.351562 158.121094 C 152.953125 157.644531 154.515625 157.007812 156 156.242188 C 160.1875 154.070312 163.710938 150.804688 166.234375 146.871094 C 165.203125 149.265625 163.871094 151.519531 162.304688 153.503906 C 160.015625 156.402344 157.195312 158.910156 153.984375 160.703125 C 151.917969 160.222656 149.886719 159.445312 147.953125 158.433594 C 148.265625 158.570312 148.582031 158.675781 148.886719 158.6875 Z M 168.132812 140.679688 C 167.484375 140.367188 166.53125 140.519531 166.191406 141.394531 C 163.988281 147.089844 159.484375 151.738281 154 154.363281 C 152.644531 155.011719 151.222656 155.515625 149.765625 155.886719 C 149.613281 155.921875 149.460938 155.960938 149.308594 155.996094 C 149.253906 156.007812 149.03125 156.023438 148.921875 156.042969 C 148.789062 155.960938 148.453125 155.800781 148.347656 155.746094 C 147.804688 155.457031 147.273438 155.132812 146.789062 154.753906 C 144.945312 153.320312 143.6875 151.25 142.925781 149.0625 C 141.179688 144.03125 141.417969 138.359375 142.269531 133.171875 C 142.707031 130.488281 143.304688 127.789062 144.101562 125.15625 C 147.230469 122.617188 152.359375 119.832031 155.152344 123.910156 C 156.085938 125.265625 158.320312 123.980469 157.378906 122.609375 C 156.445312 121.25 155.210938 120.234375 153.773438 119.699219 C 155.011719 119.089844 156.230469 118.449219 157.433594 117.78125 C 159.636719 118.894531 161.65625 120.359375 163.320312 122.105469 C 168.183594 127.203125 169.367188 134.089844 168.132812 140.679688 Z M 170.957031 139.511719 C 171.75 133.324219 170.402344 126.839844 166.515625 121.878906 C 165.695312 120.828125 164.769531 119.863281 163.769531 118.972656 C 167.234375 120.40625 170.421875 122.609375 172.992188 125.398438 C 176.816406 129.542969 179.003906 134.863281 178.890625 140.519531 C 178.847656 142.847656 178.46875 145.121094 177.855469 147.339844 C 175.929688 151.808594 172.867188 155.8125 168.722656 158.417969 C 165.464844 160.464844 161.753906 161.386719 157.996094 161.257812 C 164.992188 156.203125 169.882812 147.886719 170.957031 139.511719 Z M 145.105469 115.875 C 145.113281 115.792969 145.121094 115.710938 145.132812 115.628906 C 145.171875 115.625 145.207031 115.617188 145.246094 115.609375 C 145.199219 115.699219 145.148438 115.785156 145.105469 115.875 Z M 140.992188 118.894531 C 139.171875 120.203125 137.53125 121.761719 136.09375 123.492188 C 135.238281 123.707031 134.375 123.90625 133.515625 124.09375 C 134.246094 122.683594 135.15625 121.371094 136.269531 120.199219 C 137.25 119.164062 138.332031 118.316406 139.480469 117.632812 C 139.976562 118.0625 140.476562 118.484375 140.992188 118.894531 Z M 135.539062 153.695312 C 137.273438 156.074219 139.214844 158.292969 141.273438 160.394531 C 137.90625 157.898438 135.171875 154.613281 133.546875 150.707031 C 134.167969 151.730469 134.832031 152.726562 135.539062 153.691406 Z M 150.914062 164.921875 C 152.164062 164.507812 153.378906 163.996094 154.546875 163.390625 C 160.109375 164.390625 165.898438 163.527344 170.867188 160.085938 C 171.523438 159.628906 172.152344 159.144531 172.753906 158.636719 C 172.347656 159.3125 171.933594 159.980469 171.507812 160.636719 C 171.15625 161.1875 170.789062 161.742188 170.410156 162.289062 C 165.945312 165.058594 160.632812 166.101562 155.425781 165.683594 C 153.90625 165.5625 152.394531 165.296875 150.914062 164.921875 Z M 158.957031 113.953125 C 157.878906 113.984375 156.804688 114.089844 155.734375 114.242188 C 154.59375 113.835938 153.433594 113.5 152.253906 113.269531 C 151.519531 113.125 150.777344 113.023438 150.035156 112.953125 C 150.285156 112.628906 150.546875 112.316406 150.816406 112.007812 C 151.082031 111.933594 151.332031 111.769531 151.527344 111.480469 L 152.015625 110.753906 C 153.789062 109.066406 155.878906 107.746094 158.335938 107.113281 C 161.527344 106.292969 164.613281 106.785156 167.371094 108.109375 C 164.695312 110.230469 161.886719 112.183594 158.957031 113.953125 Z M 156.5 95.476562 C 157.191406 94.890625 157.878906 94.304688 158.566406 93.71875 C 160.011719 92.492188 161.453125 91.261719 162.898438 90.035156 C 160.660156 93.351562 158.421875 96.667969 156.183594 99.984375 C 156.289062 98.484375 156.394531 96.980469 156.5 95.476562 Z M 153.429688 103.488281 C 153.472656 103.613281 153.539062 103.710938 153.601562 103.808594 C 152.417969 105.566406 151.230469 107.324219 150.046875 109.078125 C 148.875 110.222656 147.835938 111.507812 146.90625 112.875 C 146.421875 112.898438 145.9375 112.941406 145.457031 112.996094 C 145.78125 110.097656 146.007812 107.191406 146.148438 104.28125 C 148.105469 102.617188 150.0625 100.953125 152.019531 99.289062 C 152.492188 100.6875 152.960938 102.089844 153.429688 103.488281 Z M 146.28125 100.800781 C 146.390625 96.320312 146.296875 91.835938 145.984375 87.367188 C 146.585938 87.136719 147.191406 86.917969 147.796875 86.699219 L 151.140625 96.667969 C 149.519531 98.042969 147.902344 99.421875 146.28125 100.800781 Z M 123.300781 125.667969 C 122.472656 125.738281 121.640625 125.789062 120.808594 125.835938 C 125.625 121.738281 130.445312 117.640625 135.265625 113.539062 C 135.984375 114.328125 136.726562 115.09375 137.496094 115.835938 C 137.125 116.078125 136.757812 116.335938 136.402344 116.613281 C 133.675781 118.738281 131.703125 121.566406 130.417969 124.707031 C 128.058594 125.128906 125.6875 125.457031 123.300781 125.667969 Z M 132.308594 126.941406 C 132.8125 126.84375 133.320312 126.753906 133.820312 126.644531 C 133.394531 127.332031 132.988281 128.03125 132.621094 128.746094 C 132.117188 129.730469 131.679688 130.75 131.285156 131.785156 C 131.453125 130.136719 131.789062 128.507812 132.308594 126.941406 Z M 132.964844 156.832031 C 132.5 155.78125 132.207031 154.6875 132.035156 153.574219 C 133.453125 156.328125 135.382812 158.816406 137.734375 160.890625 C 138.636719 161.6875 139.605469 162.410156 140.601562 163.085938 C 137.320312 162.261719 134.460938 160.234375 132.964844 156.832031 Z M 156.292969 168.304688 C 159.613281 168.460938 162.945312 168.0625 166.109375 167.058594 C 165.714844 167.355469 165.308594 167.632812 164.875 167.878906 C 162.1875 169.386719 159.113281 169.277344 156.292969 168.304688 Z M 178.300781 153.78125 C 179.113281 151.925781 179.796875 150.023438 180.316406 148.097656 C 180.628906 147.355469 180.914062 146.601562 181.171875 145.839844 C 180.804688 147.671875 180.273438 149.464844 179.574219 151.160156 C 179.203125 152.058594 178.769531 152.929688 178.304688 153.78125 Z M 173.171875 112.566406 C 175.953125 115.671875 177.90625 119.390625 179.117188 123.378906 C 178.847656 123.007812 178.578125 122.632812 178.289062 122.273438 C 174.867188 118.101562 169.972656 115.296875 164.671875 114.351562 C 164.242188 114.273438 163.808594 114.226562 163.375 114.171875 C 164.78125 113.234375 166.167969 112.273438 167.511719 111.25 C 168.261719 110.683594 169.007812 110.105469 169.75 109.515625 C 170.992188 110.386719 172.144531 111.417969 173.171875 112.566406 Z M 179.511719 87.664062 C 180.988281 91.320312 179.285156 95.28125 177.226562 98.328125 C 175.167969 101.382812 172.414062 103.941406 169.59375 106.308594 C 165.800781 104.074219 161.363281 103.285156 156.511719 104.976562 C 156.238281 105.070312 155.96875 105.179688 155.703125 105.289062 C 160.574219 98.070312 165.445312 90.855469 170.316406 83.636719 C 170.707031 83.054688 170.542969 82.5 170.152344 82.148438 C 174.15625 82.433594 177.960938 83.828125 179.511719 87.664062 Z M 162.34375 82.703125 C 164.09375 82.367188 166.171875 82.097656 168.289062 82.082031 C 164.441406 85.351562 160.597656 88.621094 156.75 91.894531 C 156.941406 89.199219 157.132812 86.507812 157.320312 83.816406 C 158.984375 83.40625 160.660156 83.023438 162.34375 82.703125 Z M 154.695312 84.503906 C 154.46875 87.742188 154.238281 90.984375 154.011719 94.222656 C 153.757812 94.441406 153.503906 94.65625 153.25 94.871094 C 152.242188 91.867188 151.234375 88.863281 150.222656 85.855469 C 151.703125 85.367188 153.195312 84.921875 154.695312 84.503906 Z M 145.765625 84.71875 C 145.589844 82.695312 145.363281 80.675781 145.09375 78.660156 L 146.976562 84.257812 C 146.570312 84.40625 146.171875 84.566406 145.765625 84.71875 Z M 126.234375 93 C 122.976562 83.160156 122.367188 72.398438 124.835938 62.3125 C 126.097656 57.140625 128.175781 52.226562 131.027344 47.746094 C 139.539062 57.382812 142.632812 71.074219 140.363281 83.625 C 140.140625 84.859375 139.851562 86.082031 139.527344 87.296875 C 135.445312 89.140625 131.484375 91.253906 127.695312 93.640625 C 127.363281 93.847656 127.023438 94.0625 126.683594 94.277344 C 126.53125 93.851562 126.375 93.425781 126.234375 93 Z M 125.453125 98.203125 C 126.53125 100.746094 127.796875 103.210938 129.242188 105.5625 C 128.027344 106.746094 126.6875 107.789062 125.183594 108.527344 C 123.277344 109.460938 119.6875 110.042969 118.683594 107.90625 C 118.761719 107.757812 118.847656 107.613281 118.929688 107.464844 C 119.671875 106.082031 120.398438 104.691406 121.109375 103.292969 C 121.359375 102.800781 121.324219 102.191406 120.9375 101.773438 C 120.996094 101.714844 121.050781 101.652344 121.109375 101.59375 C 122.410156 100.296875 123.933594 99.238281 125.453125 98.203125 Z M 101.183594 106.285156 C 105.433594 103.027344 112.171875 99.351562 117.292969 102.210938 C 116.296875 103.726562 115.636719 105.554688 115.914062 107.378906 C 115.789062 107.289062 115.652344 107.21875 115.480469 107.195312 C 109.867188 106.386719 104.304688 106.808594 98.960938 108.160156 C 99.675781 107.507812 100.410156 106.875 101.183594 106.285156 Z M 90.234375 111.269531 C 87.113281 112.714844 84.121094 114.46875 81.296875 116.46875 C 80.730469 110.550781 80.640625 104.582031 81.0625 98.632812 C 81.253906 95.90625 81.566406 93.191406 81.972656 90.488281 C 84.726562 97.417969 87.480469 104.34375 90.234375 111.269531 Z M 57.824219 145.207031 C 57.386719 139.503906 56.945312 133.800781 56.507812 128.097656 C 55.578125 116.007812 54.648438 103.921875 53.714844 91.832031 C 64.59375 97.789062 73.328125 107.273438 78.691406 118.421875 C 78.453125 118.609375 78.207031 118.792969 77.96875 118.988281 C 69.042969 126.277344 62.648438 135.949219 57.894531 146.347656 C 57.875 145.964844 57.851562 145.582031 57.824219 145.207031 Z M 57.082031 155 C 57.53125 155.640625 58.09375 156.15625 58.734375 156.527344 C 56.886719 159.695312 55.105469 162.902344 53.394531 166.148438 C 54.496094 162.390625 55.710938 158.664062 57.082031 155 Z M 57.082031 155 " fill-opacity="1" fill-rule="nonzero"/></g><g clip-path="url(#bb0ebac945)"><path fill="#cc9900" d="M 186.542969 45.652344 C 188.171875 49.71875 189.875 53.753906 191.65625 57.757812 C 191.234375 57.644531 190.78125 57.726562 190.441406 58.074219 C 188.753906 59.785156 188.101562 62.128906 188.277344 64.433594 C 187.675781 64.628906 187.078125 64.839844 186.484375 65.058594 C 182.875 66.390625 179.375 68.378906 177.75 72.074219 C 177.113281 73.527344 176.886719 75.214844 177.679688 76.660156 C 178.65625 78.445312 180.675781 79.144531 182.609375 79.175781 C 184.769531 79.207031 186.992188 78.835938 189.117188 78.5 C 191.25 78.167969 193.363281 77.730469 195.449219 77.191406 C 197.082031 76.773438 198.6875 76.273438 200.28125 75.734375 C 200.441406 76.039062 200.589844 76.351562 200.75 76.65625 C 201.738281 78.554688 202.75 80.4375 203.773438 82.316406 C 203.75 82.339844 203.726562 82.359375 203.703125 82.386719 C 202.816406 82.5625 201.9375 82.800781 201.070312 83.121094 C 194.386719 85.605469 190.660156 91.238281 188.714844 97.769531 C 181.363281 107.667969 183.195312 122.242188 187.976562 133.089844 C 190.621094 139.085938 195.015625 147.394531 202.84375 146.144531 C 203.113281 146.101562 203.371094 146.027344 203.632812 145.96875 C 205.800781 146.875 208.097656 147.464844 210.4375 147.675781 C 213.523438 147.949219 216.648438 147.441406 219.457031 146.128906 C 222.589844 144.667969 225.085938 142.105469 226.933594 139.226562 C 230.769531 133.25 232.425781 125.71875 232.792969 118.703125 C 232.984375 115.089844 232.789062 111.449219 232.226562 107.863281 C 232.101562 106.519531 231.867188 105.1875 231.53125 103.878906 C 231.160156 101.34375 230.394531 98.835938 229.148438 96.410156 C 229.015625 96.148438 228.871094 95.886719 228.722656 95.625 C 227.578125 92.90625 226.226562 90.277344 224.621094 87.804688 C 222.6875 84.820312 220.472656 81.8125 217.546875 79.738281 C 215.75 78.46875 213.742188 77.832031 211.734375 77.914062 C 211.699219 76.457031 211.652344 75 211.59375 73.539062 C 214.792969 75.039062 218.085938 76.359375 221.449219 77.484375 C 221.875 77.625 222.398438 77.464844 222.703125 77.152344 C 226.734375 73.027344 223.804688 68.46875 219.84375 65.46875 C 221.136719 64.503906 222.386719 63.484375 223.605469 62.429688 C 225.476562 66.308594 227.347656 70.1875 229.21875 74.070312 C 229.675781 75.019531 230.929688 74.785156 231.441406 74.070312 C 235.410156 68.542969 238.253906 62.238281 239.894531 55.632812 C 241.277344 60.179688 243.078125 64.605469 245.300781 68.824219 C 246.074219 70.292969 248.296875 68.992188 247.523438 67.527344 C 247.464844 67.414062 247.410156 67.300781 247.355469 67.1875 C 250.039062 68.589844 253.179688 68.996094 256.265625 68.84375 C 261.320312 68.59375 266.285156 67.179688 271.195312 66.070312 C 272.496094 65.777344 273.796875 65.484375 275.097656 65.1875 C 275.488281 67.128906 275.910156 69.058594 276.367188 70.984375 C 276.710938 72.40625 278.898438 72.085938 278.898438 70.640625 C 278.898438 68.539062 278.898438 66.433594 278.894531 64.328125 L 285.296875 62.882812 C 285.261719 63.140625 285.238281 63.402344 285.203125 63.660156 C 285.109375 64.355469 285.371094 65.035156 286.105469 65.242188 C 286.703125 65.414062 287.59375 65.03125 287.6875 64.34375 C 287.773438 63.726562 287.84375 63.105469 287.914062 62.488281 C 294.761719 62.476562 301.601562 61.277344 308.234375 59.492188 C 314.332031 57.851562 320.292969 55.746094 326.242188 53.632812 C 327.792969 53.082031 327.1875 50.78125 325.554688 51.148438 C 314.296875 53.691406 303.039062 56.238281 291.777344 58.78125 C 290.589844 59.050781 289.398438 59.320312 288.210938 59.585938 C 288.539062 55.742188 288.640625 51.878906 288.5 48.023438 C 289.042969 47.765625 289.582031 47.5 290.113281 47.207031 C 298.386719 42.613281 304.777344 33.042969 303.445312 23.328125 C 302.769531 18.40625 300.015625 14.128906 296.4375 10.777344 C 294.546875 9.003906 292.441406 7.449219 290.28125 6.019531 C 288.066406 4.558594 285.773438 3.078125 283.398438 1.890625 C 280.941406 0.664062 277.984375 0.0820312 275.78125 2.140625 C 274.152344 3.664062 273.621094 6.015625 273.316406 8.132812 C 272.386719 14.589844 271.882812 21.113281 271.734375 27.632812 C 271.710938 28.578125 271.722656 29.523438 271.714844 30.472656 C 271.019531 30.75 270.375 31.054688 269.828125 31.367188 C 268.246094 32.277344 266.949219 33.511719 265.648438 34.773438 C 264.046875 36.324219 262.492188 37.921875 260.984375 39.5625 C 257.902344 42.929688 255.027344 46.488281 252.371094 50.199219 C 249.648438 54.003906 247.1875 57.984375 244.960938 62.097656 C 243.285156 58.140625 241.96875 54.039062 241.019531 49.859375 C 241.5625 45.929688 241.683594 41.941406 241.363281 37.988281 C 241.070312 34.371094 240.417969 30.785156 239.402344 27.300781 C 238.980469 25.851562 236.988281 26.226562 236.871094 27.640625 C 236.25 35.117188 236.792969 42.644531 238.402344 49.9375 C 237.710938 54.710938 236.378906 59.398438 234.394531 63.804688 C 233.289062 66.253906 231.988281 68.609375 230.519531 70.855469 C 228.878906 67.457031 227.238281 64.054688 225.601562 60.652344 C 226.632812 59.6875 227.632812 58.683594 228.605469 57.652344 C 229.347656 56.957031 230.039062 56.191406 230.671875 55.367188 C 230.707031 55.328125 230.742188 55.292969 230.773438 55.257812 C 230.773438 55.253906 230.769531 55.253906 230.765625 55.25 C 230.832031 55.164062 230.910156 55.085938 230.976562 54.996094 C 231.832031 53.820312 229.902344 52.328125 228.953125 53.4375 C 228.097656 54.4375 227.199219 55.398438 226.289062 56.34375 C 225.636719 56.898438 224.949219 57.382812 224.230469 57.816406 C 218.242188 45.394531 212.253906 32.976562 206.265625 20.554688 C 203.878906 15.609375 201.496094 10.667969 199.109375 5.722656 C 198.480469 4.410156 196.296875 5.332031 196.757812 6.714844 C 202.46875 23.917969 206.273438 41.734375 208.058594 59.765625 C 206.960938 59.515625 205.886719 59.207031 204.855469 58.835938 C 197.707031 56.292969 192.546875 50.828125 188.820312 44.449219 C 187.554688 41.28125 186.316406 38.097656 185.148438 34.890625 C 183.15625 29.429688 181.304688 23.917969 179.59375 18.363281 C 179.105469 16.78125 176.707031 17.433594 177.109375 19.046875 C 179.375 28.117188 181.820312 37.515625 186.542969 45.652344 Z M 274.296875 34.589844 C 274.28125 33.8125 274.285156 33.03125 274.28125 32.253906 C 274.773438 32.109375 275.269531 31.984375 275.777344 31.898438 C 275.949219 31.867188 276.128906 31.84375 276.3125 31.820312 C 276.3125 37.429688 276.316406 43.042969 276.316406 48.652344 C 275.9375 48.6875 275.554688 48.707031 275.171875 48.730469 C 274.683594 44.035156 274.386719 39.316406 274.296875 34.589844 Z M 278.886719 29.359375 C 278.886719 27.4375 278.886719 25.519531 278.882812 23.601562 C 278.882812 21.144531 278.882812 18.6875 278.882812 16.230469 C 282.910156 25.785156 285.277344 36.023438 285.871094 46.378906 C 283.628906 47.296875 281.292969 47.933594 278.890625 48.320312 C 278.890625 42.863281 278.886719 37.40625 278.886719 31.949219 C 279.921875 32.246094 280.71875 32.925781 280.769531 34.269531 C 280.832031 35.921875 283.410156 35.929688 283.34375 34.269531 C 283.222656 31.085938 281.316406 29.707031 278.886719 29.359375 Z M 276.316406 51.210938 C 276.316406 53.269531 276.316406 55.328125 276.320312 57.382812 L 276.320312 57.496094 C 275.992188 55.433594 275.710938 53.363281 275.464844 51.289062 C 275.75 51.269531 276.03125 51.234375 276.316406 51.210938 Z M 273.808594 57.960938 C 272.007812 57.402344 270.21875 56.714844 268.453125 55.882812 C 265.328125 54.40625 262.453125 52.507812 259.933594 50.1875 C 264.167969 50.96875 268.554688 51.457031 272.894531 51.390625 C 273.15625 53.589844 273.460938 55.777344 273.808594 57.960938 Z M 286.019531 51.667969 C 286.015625 54.417969 285.878906 57.167969 285.625 59.910156 C 283.371094 59.828125 281.125 59.601562 278.894531 59.203125 L 278.894531 50.902344 C 281.3125 50.539062 283.691406 49.960938 285.984375 49.101562 C 286.007812 49.957031 286.019531 50.8125 286.019531 51.667969 Z M 274.886719 17.011719 C 275.140625 14.089844 275.417969 11.148438 275.886719 8.253906 C 276.175781 6.457031 276.703125 3.738281 278.855469 3.347656 C 280.148438 3.109375 281.507812 3.789062 282.605469 4.378906 C 283.734375 4.988281 284.835938 5.664062 285.933594 6.328125 C 287.984375 7.566406 290.011719 8.859375 291.917969 10.316406 C 295.484375 13.039062 298.773438 16.480469 300.226562 20.8125 C 303.125 29.4375 297.988281 38.796875 290.902344 43.6875 C 290.078125 44.253906 289.222656 44.75 288.355469 45.210938 C 287.8125 37.058594 286.210938 28.980469 283.550781 21.226562 C 282.195312 17.28125 280.570312 13.425781 278.703125 9.695312 C 278.117188 8.523438 276.304688 9.121094 276.304688 10.34375 C 276.304688 16.671875 276.308594 23 276.3125 29.328125 C 275.632812 29.394531 274.953125 29.511719 274.28125 29.667969 C 274.328125 25.445312 274.523438 21.222656 274.886719 17.011719 Z M 268.679688 35.441406 C 269.589844 34.585938 270.609375 33.867188 271.707031 33.292969 C 271.761719 38.480469 272.066406 43.667969 272.601562 48.828125 C 267.628906 48.875 262.597656 48.164062 257.882812 47.15625 C 258.609375 46.242188 259.347656 45.335938 260.105469 44.445312 C 262.792969 41.289062 265.652344 38.277344 268.675781 35.441406 Z M 255.890625 49.746094 C 260.71875 55.199219 267.269531 58.796875 274.253906 60.722656 C 274.367188 61.371094 274.5 62.015625 274.621094 62.660156 C 269.589844 63.796875 264.554688 65.167969 259.453125 65.945312 C 255.234375 66.585938 250.367188 66.667969 246.9375 63.851562 C 249.566406 58.933594 252.554688 54.210938 255.890625 49.746094 Z M 191.554688 60.828125 C 192.324219 61.46875 193.101562 62.097656 193.890625 62.710938 C 193.917969 62.769531 193.945312 62.832031 193.976562 62.890625 C 192.902344 63.121094 191.839844 63.386719 190.78125 63.679688 C 190.789062 62.675781 191.035156 61.691406 191.554688 60.828125 Z M 211.046875 64.476562 C 212.464844 64.6875 213.839844 65.058594 215.140625 65.605469 C 213.882812 66.4375 212.605469 67.238281 211.296875 67.984375 C 211.222656 66.816406 211.136719 65.644531 211.046875 64.476562 Z M 208.460938 64.246094 C 208.59375 65.929688 208.707031 67.613281 208.808594 69.300781 C 206.003906 67.824219 203.277344 66.203125 200.648438 64.4375 C 203.242188 64.183594 205.855469 64.125 208.460938 64.246094 Z M 206.007812 70.695312 C 204.546875 71.367188 203.0625 71.984375 201.554688 72.550781 C 200.433594 70.351562 199.339844 68.132812 198.265625 65.910156 C 200.769531 67.632812 203.351562 69.230469 206.007812 70.695312 Z M 190.109375 75.734375 C 188.269531 76.070312 186.414062 76.324219 184.546875 76.492188 C 183.09375 76.621094 180.710938 76.972656 179.902344 75.359375 C 179.355469 74.265625 180.136719 72.875 180.742188 71.980469 C 181.636719 70.65625 182.914062 69.539062 184.304688 68.757812 C 185.695312 67.976562 187.269531 67.4375 188.816406 66.953125 C 189.75 69.585938 191.792969 71.804688 194.65625 72.421875 C 196.273438 72.769531 196.964844 70.289062 195.339844 69.9375 C 193.421875 69.523438 191.980469 68.027344 191.269531 66.230469 C 192.542969 65.875 193.828125 65.558594 195.121094 65.292969 C 196.414062 68.015625 197.746094 70.722656 199.109375 73.414062 C 196.171875 74.390625 193.167969 75.171875 190.109375 75.730469 Z M 209.230469 82.152344 C 208.796875 82.105469 208.355469 82.074219 207.921875 82.058594 C 208.1875 81.863281 208.457031 81.671875 208.734375 81.5 C 208.894531 81.398438 209.058594 81.308594 209.222656 81.222656 C 209.222656 81.53125 209.230469 81.839844 209.230469 82.152344 Z M 212.648438 85.558594 C 212.363281 85.507812 212.082031 85.464844 211.796875 85.429688 C 211.796875 85.390625 211.796875 85.351562 211.796875 85.316406 C 212.082031 85.390625 212.367188 85.472656 212.648438 85.558594 Z M 192.148438 97.660156 C 192.429688 97.355469 192.738281 97.070312 193.039062 96.78125 C 192.140625 98.980469 191.59375 101.332031 191.488281 103.6875 C 190.878906 104.328125 190.316406 105.003906 189.796875 105.703125 C 190.050781 103.546875 190.433594 101.414062 190.992188 99.34375 C 191.035156 99.183594 191.085938 99.023438 191.128906 98.867188 C 191.453125 98.453125 191.789062 98.046875 192.148438 97.660156 Z M 204.941406 84.800781 C 205 84.792969 205.0625 84.785156 205.121094 84.777344 C 205.285156 85.070312 205.449219 85.359375 205.613281 85.652344 C 204.992188 85.785156 204.378906 85.953125 203.78125 86.15625 C 204.148438 85.695312 204.539062 85.242188 204.941406 84.800781 Z M 191.742188 107.40625 C 191.917969 108.371094 192.1875 109.3125 192.542969 110.214844 C 192.441406 114.542969 192.957031 118.921875 194.105469 123.113281 C 192.925781 124.683594 192.078125 126.550781 191.601562 128.53125 C 190.527344 125.273438 189.925781 121.835938 189.652344 118.457031 C 189.476562 116.289062 189.394531 114.082031 189.414062 111.867188 C 189.589844 111.367188 189.777344 110.867188 190.003906 110.382812 C 190.476562 109.355469 191.066406 108.355469 191.742188 107.40625 Z M 208.425781 90.582031 C 208.714844 91.082031 209 91.585938 209.292969 92.082031 C 209.953125 93.207031 211.652344 92.691406 211.691406 91.433594 C 211.695312 91.285156 211.699219 91.140625 211.703125 90.996094 C 214.320312 91.597656 216.75 92.863281 218.691406 94.871094 C 222.707031 99.023438 223.648438 104.839844 222.886719 110.390625 C 222.746094 111.414062 222.542969 112.421875 222.316406 113.429688 C 221.902344 112.34375 221.4375 111.285156 220.917969 110.257812 C 217.84375 104.1875 212.519531 98.46875 205.382812 97.824219 C 202.34375 97.550781 199.382812 98.296875 196.726562 99.695312 C 197.46875 97.15625 198.460938 94.695312 199.695312 92.355469 C 201.519531 91.566406 203.445312 91.011719 205.40625 90.742188 C 206.410156 90.605469 207.421875 90.554688 208.425781 90.582031 Z M 221.484375 128.367188 C 221.324219 128.582031 221.171875 128.804688 221.003906 129.015625 C 219.3125 131.1875 217.402344 133.292969 215.347656 135.25 C 215.746094 134.644531 216.121094 134.042969 216.46875 133.464844 C 218.449219 130.152344 220.289062 126.675781 221.816406 123.082031 C 221.898438 124.851562 221.804688 126.625 221.484375 128.367188 Z M 194.292969 128.414062 C 194.507812 127.703125 194.789062 127.007812 195.132812 126.347656 C 196.808594 130.921875 199.304688 135.167969 202.6875 138.703125 C 203.570312 139.625 204.570312 140.472656 205.703125 141.074219 C 205.402344 141.195312 205.097656 141.308594 204.785156 141.398438 C 202.550781 142.019531 200.574219 141.320312 198.882812 140.054688 C 197.863281 139.175781 196.929688 138.210938 196.109375 137.164062 C 195.234375 136.046875 194.46875 134.855469 193.789062 133.621094 C 193.597656 131.890625 193.777344 130.097656 194.292969 128.414062 Z M 216.582031 128.007812 C 215.128906 130.742188 213.605469 133.492188 211.699219 135.9375 C 210.796875 137.09375 209.765625 138.277344 208.59375 139.265625 C 206.300781 139.015625 204.472656 136.980469 202.984375 135.117188 C 200.296875 131.75 198.316406 127.855469 197.003906 123.753906 C 198.453125 122.28125 200.339844 121.316406 202.578125 121.320312 C 204.234375 121.324219 204.238281 118.75 202.578125 118.746094 C 200.089844 118.742188 197.953125 119.574219 196.222656 120.941406 C 196.144531 120.625 196.058594 120.3125 195.988281 119.996094 C 195.601562 118.199219 195.347656 116.371094 195.203125 114.535156 C 195.789062 115.179688 196.4375 115.785156 197.15625 116.328125 C 198.476562 117.332031 199.761719 115.09375 198.457031 114.105469 C 196.910156 112.933594 195.816406 111.492188 195.097656 109.898438 C 195.171875 107.660156 195.421875 105.421875 195.855469 103.226562 C 197.976562 101.679688 200.429688 100.628906 203.042969 100.402344 C 209.472656 99.839844 214.558594 104.488281 217.652344 109.671875 C 219.160156 112.195312 220.332031 114.996094 221.050781 117.90625 C 219.863281 121.402344 218.292969 124.78125 216.582031 128.007812 Z M 227.183594 99.691406 C 227.625 100.515625 228 101.351562 228.324219 102.195312 C 228.589844 103.125 228.824219 104.0625 229.035156 105.003906 C 229.292969 107.296875 229.21875 109.648438 228.839844 111.980469 C 228.152344 116.230469 226.558594 120.261719 224.402344 123.972656 C 224.378906 121.980469 224.136719 119.980469 223.703125 118.023438 C 224.097656 116.792969 224.460938 115.554688 224.753906 114.300781 C 226.207031 108.128906 226.277344 101.253906 222.683594 95.769531 C 220.109375 91.84375 216.207031 89.296875 211.761719 88.378906 C 211.761719 88.261719 211.765625 88.144531 211.769531 88.027344 C 212.570312 88.148438 213.371094 88.324219 214.152344 88.5625 C 219.777344 90.261719 224.4375 94.570312 227.183594 99.691406 Z M 206.949219 88.027344 C 206.867188 88.03125 206.785156 88.035156 206.707031 88.039062 C 206.78125 88.027344 206.859375 88.019531 206.9375 88.003906 Z M 209.222656 85.257812 C 208.9375 85.257812 208.652344 85.273438 208.371094 85.289062 C 208.257812 85.089844 208.144531 84.894531 208.03125 84.699219 C 208.429688 84.722656 208.828125 84.757812 209.222656 84.808594 C 209.222656 84.957031 209.222656 85.109375 209.222656 85.257812 Z M 200.574219 86.125 C 200.519531 86.199219 200.460938 86.273438 200.40625 86.347656 C 199.777344 87.203125 199.195312 88.09375 198.640625 89 C 198.308594 89.269531 197.984375 89.554688 197.667969 89.855469 C 197.273438 90.234375 196.90625 90.640625 196.542969 91.050781 C 195.523438 91.613281 194.542969 92.242188 193.609375 92.929688 C 195.265625 90.078125 197.539062 87.640625 200.574219 86.128906 Z M 186.839844 111.574219 C 186.621094 112.28125 186.449219 113.003906 186.3125 113.730469 C 186.359375 111.859375 186.570312 109.964844 186.96875 108.113281 C 186.894531 109.277344 186.851562 110.433594 186.839844 111.574219 Z M 225.234375 137.070312 C 223.644531 139.789062 221.496094 142.191406 218.671875 143.652344 C 216.230469 144.914062 213.445312 145.324219 210.726562 145.125 C 210.113281 145.078125 209.503906 144.996094 208.898438 144.890625 C 209.644531 144.730469 210.382812 144.53125 211.097656 144.285156 C 216.738281 142.359375 220.960938 138.121094 222.988281 132.617188 C 225.875 129.421875 228.296875 125.753906 229.953125 121.773438 C 229.355469 127.097656 227.914062 132.488281 225.234375 137.070312 Z M 217.300781 82.816406 C 218.65625 84.027344 219.84375 85.433594 220.921875 86.921875 C 218.164062 84.898438 215.046875 83.371094 211.804688 82.601562 C 211.800781 81.902344 211.789062 81.203125 211.78125 80.503906 C 213.746094 80.414062 215.644531 81.332031 217.300781 82.816406 Z M 208.976562 72.371094 C 209.070312 74.390625 209.128906 76.40625 209.171875 78.425781 C 208.582031 78.640625 208 78.921875 207.433594 79.277344 C 206.84375 79.644531 206.285156 80.0625 205.738281 80.507812 C 204.722656 78.628906 203.71875 76.746094 202.738281 74.851562 C 204.382812 74.226562 206.011719 73.554688 207.605469 72.808594 C 208.019531 72.617188 208.421875 72.398438 208.832031 72.199219 C 208.878906 72.222656 208.925781 72.246094 208.972656 72.269531 C 208.972656 72.304688 208.976562 72.339844 208.976562 72.371094 Z M 219.320312 68.234375 C 221.191406 69.929688 222.886719 72.488281 221.363281 74.730469 C 218.050781 73.589844 214.808594 72.257812 211.652344 70.738281 C 213.734375 69.59375 215.757812 68.347656 217.714844 66.996094 C 218.269531 67.371094 218.808594 67.773438 219.320312 68.234375 Z M 215.585938 62.984375 C 216.292969 62.9375 217 62.871094 217.710938 62.773438 C 218.332031 62.683594 218.945312 62.5625 219.546875 62.421875 C 218.886719 62.945312 218.210938 63.453125 217.53125 63.949219 C 216.871094 63.574219 216.214844 63.25 215.585938 62.984375 Z M 204.550781 24.335938 C 204.292969 23.3125 204.023438 22.289062 203.753906 21.265625 C 209.816406 33.832031 215.875 46.398438 221.933594 58.964844 C 218.460938 60.386719 214.503906 60.707031 210.671875 60.21875 C 209.515625 48.128906 207.476562 36.125 204.550781 24.335938 Z M 205.105469 61.617188 C 203.777344 61.636719 202.445312 61.699219 201.117188 61.816406 C 199.914062 61.921875 198.714844 62.066406 197.519531 62.246094 C 197.003906 61.867188 196.496094 61.484375 195.992188 61.097656 C 194.90625 58.75 193.847656 56.386719 192.8125 54.015625 C 196.273438 57.480469 200.503906 60.113281 205.109375 61.617188 Z M 205.105469 61.617188 " fill-opacity="1" fill-rule="nonzero"/></g></svg>