<svg xmlns="http://www.w3.org/2000/svg" xmlns:xlink="http://www.w3.org/1999/xlink" width="500" zoomAndPan="magnify" viewBox="0 0 375 374.999991" height="500" preserveAspectRatio="xMidYMid meet" version="1.0"><defs><clipPath id="724618f42d"><path d="M 0 10.417969 L 375 10.417969 L 375 364.582031 L 0 364.582031 Z M 0 10.417969 " clip-rule="nonzero"/></clipPath><clipPath id="ab934007f2"><path d="M 298.609375 38.195312 L 229.167969 163.195312 L 375 163.195312 L 375 211.804688 L 229.167969 211.804688 L 298.609375 336.804688 L 256.945312 364.582031 L 187.5 232.640625 L 111.109375 364.582031 L 69.445312 336.804688 L 145.832031 211.804688 L 0 211.804688 L 0 163.195312 L 145.832031 163.195312 L 69.445312 38.195312 L 111.109375 10.417969 L 187.5 142.359375 L 256.945312 10.417969 Z M 298.609375 38.195312 " clip-rule="nonzero"/></clipPath><clipPath id="fac793c407"><path d="M 0 0.417969 L 375 0.417969 L 375 354.582031 L 0 354.582031 Z M 0 0.417969 " clip-rule="nonzero"/></clipPath><clipPath id="b07ce75700"><path d="M 298.609375 28.195312 L 229.167969 153.195312 L 375 153.195312 L 375 201.804688 L 229.167969 201.804688 L 298.609375 326.804688 L 256.945312 354.582031 L 187.5 222.640625 L 111.109375 354.582031 L 69.445312 326.804688 L 145.832031 201.804688 L 0 201.804688 L 0 153.195312 L 145.832031 153.195312 L 69.445312 28.195312 L 111.109375 0.417969 L 187.5 132.359375 L 256.945312 0.417969 Z M 298.609375 28.195312 " clip-rule="nonzero"/></clipPath><clipPath id="1ea23ab4e4"><rect x="0" width="375" y="0" height="355"/></clipPath><clipPath id="2c19e2edb4"><path d="M 93.75 93.75 L 281.25 93.75 L 281.25 281.25 L 93.75 281.25 Z M 93.75 93.75 " clip-rule="nonzero"/></clipPath><clipPath id="4b46b034b0"><path d="M 187.5 93.75 C 135.722656 93.75 93.75 135.722656 93.75 187.5 C 93.75 239.277344 135.722656 281.25 187.5 281.25 C 239.277344 281.25 281.25 239.277344 281.25 187.5 C 281.25 135.722656 239.277344 93.75 187.5 93.75 Z M 187.5 93.75 " clip-rule="nonzero"/></clipPath><clipPath id="733ba411ff"><path d="M 0.75 0.75 L 188.25 0.75 L 188.25 188.25 L 0.75 188.25 Z M 0.75 0.75 " clip-rule="nonzero"/></clipPath><clipPath id="9d9c2e4e44"><path d="M 94.5 0.75 C 42.722656 0.75 0.75 42.722656 0.75 94.5 C 0.75 146.277344 42.722656 188.25 94.5 188.25 C 146.277344 188.25 188.25 146.277344 188.25 94.5 C 188.25 42.722656 146.277344 0.75 94.5 0.75 Z M 94.5 0.75 " clip-rule="nonzero"/></clipPath><clipPath id="aff7313913"><rect x="0" width="189" y="0" height="189"/></clipPath><clipPath id="a3f9dbb229"><path d="M 189 125.585938 L 248.457031 125.585938 L 248.457031 186 L 189 186 Z M 189 125.585938 " clip-rule="nonzero"/></clipPath><clipPath id="a9f101d728"><path d="M 126.207031 142 L 233 142 L 233 249.335938 L 126.207031 249.335938 Z M 126.207031 142 " clip-rule="nonzero"/></clipPath></defs><g clip-path="url(#724618f42d)"><g clip-path="url(#ab934007f2)"><g transform="matrix(1, 0, 0, 1, 0, 10)"><g clip-path="url(#1ea23ab4e4)"><g clip-path="url(#fac793c407)"><g clip-path="url(#b07ce75700)"><path fill="#000000" d="M 0 0.417969 L 374.917969 0.417969 L 374.917969 354.582031 L 0 354.582031 Z M 0 0.417969 " fill-opacity="1" fill-rule="nonzero"/></g></g></g></g></g></g><g clip-path="url(#2c19e2edb4)"><g clip-path="url(#4b46b034b0)"><g transform="matrix(1, 0, 0, 1, 93, 93)"><g clip-path="url(#aff7313913)"><g clip-path="url(#733ba411ff)"><g clip-path="url(#9d9c2e4e44)"><path fill="#ffffff" d="M 0.75 0.75 L 188.25 0.75 L 188.25 188.25 L 0.75 188.25 Z M 0.75 0.75 " fill-opacity="1" fill-rule="nonzero"/></g></g></g></g></g></g><path fill="#000000" d="M 173.632812 174.785156 C 173.34375 174.011719 172.882812 173.402344 172.253906 172.964844 C 171.625 172.527344 170.921875 172.308594 170.144531 172.308594 C 169.371094 172.261719 168.65625 172.457031 168.003906 172.894531 C 167.347656 173.328125 166.875 173.960938 166.585938 174.785156 L 148.128906 219.492188 C 147.984375 219.929688 147.914062 220.316406 147.914062 220.65625 C 147.914062 221.578125 148.179688 222.34375 148.710938 222.949219 C 149.246094 223.558594 150.066406 223.859375 151.183594 223.859375 C 151.910156 223.859375 152.5625 223.640625 153.144531 223.203125 C 153.726562 222.769531 154.160156 222.160156 154.453125 221.382812 L 158.757812 211.046875 L 181.042969 211.046875 L 185.402344 221.382812 C 185.695312 222.113281 186.140625 222.707031 186.75 223.167969 C 187.351562 223.628906 188.019531 223.859375 188.746094 223.859375 C 189.617188 223.859375 190.40625 223.53125 191.109375 222.878906 C 191.808594 222.222656 192.160156 221.359375 192.160156 220.292969 C 192.160156 219.808594 192.0625 219.324219 191.871094 218.835938 L 173.636719 174.785156 Z M 161.671875 204.054688 L 169.832031 184.464844 L 178.09375 204.054688 L 161.667969 204.054688 Z M 161.671875 204.054688 " fill-opacity="1" fill-rule="nonzero"/><path fill="#000000" d="M 205.492188 173.65625 C 204.742188 172.953125 203.882812 172.601562 202.914062 172.601562 C 201.75 172.601562 200.808594 172.953125 200.078125 173.65625 C 199.351562 174.363281 198.992188 175.25 198.992188 176.316406 L 198.992188 219.855469 C 198.992188 220.921875 199.328125 221.808594 200.007812 222.511719 C 200.683594 223.21875 201.605469 223.570312 202.769531 223.570312 C 203.785156 223.570312 204.667969 223.21875 205.421875 222.511719 C 206.171875 221.808594 206.570312 220.925781 206.621094 219.855469 L 206.621094 176.316406 C 206.621094 175.25 206.242188 174.363281 205.492188 173.65625 Z M 205.492188 173.65625 " fill-opacity="1" fill-rule="nonzero"/><g clip-path="url(#a3f9dbb229)"><path fill="#000000" d="M 247.398438 154.179688 L 247.398438 154.175781 C 247.398438 154.175781 247.289062 154.160156 247.289062 154.160156 L 246.921875 154.109375 C 246.921875 154.109375 246.914062 154.109375 246.910156 154.109375 L 246.855469 154.101562 L 246.855469 154.105469 C 242.9375 153.800781 239.195312 152.828125 235.800781 151.152344 C 232.972656 149.832031 230.375 148.046875 228.105469 145.773438 C 223.082031 140.738281 220.4375 134.089844 219.96875 126.886719 C 219.96875 126.859375 219.964844 126.832031 219.964844 126.800781 C 219.957031 126.710938 219.949219 126.621094 219.945312 126.527344 C 219.820312 126.015625 219.359375 125.628906 218.808594 125.628906 C 218.195312 125.628906 217.695312 126.105469 217.648438 126.707031 L 217.644531 126.707031 C 217.644531 126.707031 217.632812 126.800781 217.632812 126.800781 L 217.578125 127.191406 C 217.578125 127.191406 217.578125 127.199219 217.578125 127.203125 L 217.570312 127.261719 L 217.570312 127.257812 C 217.101562 133.472656 215 139.257812 211.136719 143.929688 C 210.550781 144.652344 209.925781 145.355469 209.257812 146.023438 C 204.234375 151.058594 197.601562 153.710938 190.410156 154.179688 C 190.382812 154.179688 190.355469 154.183594 190.328125 154.183594 C 190.238281 154.191406 190.144531 154.199219 190.054688 154.207031 C 189.539062 154.328125 189.15625 154.789062 189.15625 155.34375 C 189.15625 155.957031 189.632812 156.457031 190.234375 156.507812 L 190.234375 156.511719 C 190.234375 156.511719 190.328125 156.523438 190.328125 156.523438 L 190.714844 156.578125 C 190.714844 156.578125 190.722656 156.578125 190.726562 156.578125 L 190.785156 156.585938 L 190.78125 156.582031 C 197.828125 157.121094 204.320312 159.761719 209.257812 164.707031 C 210.890625 166.34375 212.265625 168.152344 213.40625 170.089844 C 215.925781 174.164062 217.316406 178.855469 217.644531 183.820312 C 217.648438 183.84375 217.648438 183.863281 217.652344 183.886719 C 217.660156 183.980469 217.667969 184.078125 217.671875 184.171875 C 217.796875 184.679688 218.257812 185.058594 218.808594 185.058594 C 219.421875 185.058594 219.917969 184.589844 219.96875 183.996094 L 219.972656 183.996094 C 219.972656 183.996094 219.988281 183.886719 219.988281 183.886719 L 220.039062 183.519531 C 220.039062 183.519531 220.039062 183.511719 220.039062 183.507812 L 220.046875 183.449219 L 220.042969 183.453125 C 220.5625 176.703125 223.066406 170.464844 227.71875 165.644531 C 228.015625 165.3125 228.320312 164.984375 228.636719 164.664062 C 233.589844 159.628906 240.132812 156.980469 247.222656 156.511719 C 247.242188 156.507812 247.265625 156.507812 247.285156 156.503906 C 247.382812 156.496094 247.476562 156.488281 247.574219 156.484375 C 248.078125 156.359375 248.457031 155.898438 248.457031 155.347656 C 248.457031 154.730469 247.988281 154.230469 247.398438 154.183594 Z M 247.398438 154.179688 " fill-opacity="1" fill-rule="nonzero"/></g><g clip-path="url(#a9f101d728)"><path fill="#000000" d="M 225.6875 184.4375 L 225.6875 234.882812 C 225.6875 238.863281 222.46875 242.089844 218.496094 242.089844 L 140.589844 242.089844 C 136.617188 242.089844 133.398438 238.863281 133.398438 234.882812 L 133.398438 156.8125 C 133.398438 152.832031 136.617188 149.605469 140.589844 149.605469 L 189.730469 149.605469 C 191.714844 149.605469 193.324219 147.992188 193.324219 146.003906 C 193.324219 144.011719 191.714844 142.398438 189.730469 142.398438 L 140.589844 142.398438 C 132.644531 142.398438 126.207031 148.851562 126.207031 156.8125 L 126.207031 234.882812 C 126.207031 242.84375 132.644531 249.296875 140.589844 249.296875 L 218.496094 249.296875 C 226.4375 249.296875 232.878906 242.84375 232.878906 234.882812 L 232.878906 184.4375 C 232.878906 182.445312 231.269531 180.832031 229.285156 180.832031 C 227.296875 180.832031 225.6875 182.445312 225.6875 184.4375 Z M 225.6875 184.4375 " fill-opacity="1" fill-rule="nonzero"/></g></svg>