<svg xmlns="http://www.w3.org/2000/svg" xmlns:xlink="http://www.w3.org/1999/xlink" width="500" zoomAndPan="magnify" viewBox="0 0 375 374.999991" height="500" preserveAspectRatio="xMidYMid meet" version="1.0"><defs><clipPath id="e10e34b3d0"><path d="M 19 53.671875 L 205 53.671875 L 205 111 L 19 111 Z M 19 53.671875 " clip-rule="nonzero"/></clipPath><clipPath id="02ec854d12"><path d="M 244 53.671875 L 357 53.671875 L 357 111 L 244 111 Z M 244 53.671875 " clip-rule="nonzero"/></clipPath><clipPath id="0166190319"><path d="M 0 116 L 375 116 L 375 321.324219 L 0 321.324219 Z M 0 116 " clip-rule="nonzero"/></clipPath><clipPath id="6f2ba3dbcd"><path d="M 219.410156 185 L 349.160156 185 L 349.160156 297 L 219.410156 297 Z M 219.410156 185 " clip-rule="nonzero"/></clipPath></defs><path fill="#000000" d="M 198.183594 162.015625 L 229.984375 54.074219 L 173.5625 54.074219 L 132.078125 194.890625 C 151.75 183.519531 174.011719 172.394531 198.183594 162.015625 " fill-opacity="1" fill-rule="nonzero"/><path fill="#ffffff" d="M 123.046875 225.542969 L 101.628906 298.246094 L 158.046875 298.246094 L 192.003906 182.984375 C 165.230469 196.808594 141.863281 211.292969 123.046875 225.542969 " fill-opacity="1" fill-rule="nonzero"/><g clip-path="url(#e10e34b3d0)"><path fill="#000000" d="M 204.871094 53.675781 L 75.457031 53.675781 C 44.296875 53.675781 19.039062 78.933594 19.039062 110.09375 L 188.25 110.09375 L 204.871094 53.675781 " fill-opacity="1" fill-rule="nonzero"/></g><g clip-path="url(#02ec854d12)"><path fill="#ffffff" d="M 261.289062 53.675781 L 244.667969 110.09375 L 299.789062 110.09375 C 330.949219 110.09375 356.207031 84.832031 356.207031 53.675781 L 261.289062 53.675781 " fill-opacity="1" fill-rule="nonzero"/></g><g clip-path="url(#0166190319)"><path fill="#000000" d="M 31.296875 306.578125 C 17.023438 267.6875 107.578125 198.683594 233.554688 152.453125 C 284.664062 133.699219 333.75 121.574219 375 116.382812 C 329.734375 114.882812 263.417969 127.519531 193.007812 153.355469 C 73.785156 197.105469 -12.007812 262.144531 1.375 298.621094 C 5.9375 311.046875 21.421875 318.554688 44.570312 321.324219 C 38.019531 317.453125 33.488281 312.542969 31.296875 306.578125 " fill-opacity="1" fill-rule="nonzero"/></g><path fill="#ffffff" d="M 249.945312 231.234375 C 245.730469 231.234375 242.3125 234.652344 242.3125 238.871094 C 242.3125 243.085938 245.730469 246.503906 249.945312 246.503906 C 254.160156 246.503906 257.578125 243.085938 257.578125 238.871094 C 257.578125 234.652344 254.160156 231.234375 249.945312 231.234375 Z M 234.679688 238.871094 C 234.679688 230.4375 241.511719 223.601562 249.945312 223.601562 C 258.378906 223.601562 265.214844 230.4375 265.214844 238.871094 C 265.214844 247.300781 258.378906 254.136719 249.945312 254.136719 C 241.511719 254.136719 234.679688 247.300781 234.679688 238.871094 Z M 234.679688 238.871094 " fill-opacity="1" fill-rule="evenodd"/><path fill="#ffffff" d="M 318.648438 231.234375 C 314.433594 231.234375 311.015625 234.652344 311.015625 238.871094 C 311.015625 243.085938 314.433594 246.503906 318.648438 246.503906 C 322.863281 246.503906 326.28125 243.085938 326.28125 238.871094 C 326.28125 234.652344 322.863281 231.234375 318.648438 231.234375 Z M 303.382812 238.871094 C 303.382812 230.4375 310.21875 223.601562 318.648438 223.601562 C 327.082031 223.601562 333.917969 230.4375 333.917969 238.871094 C 333.917969 247.300781 327.082031 254.136719 318.648438 254.136719 C 310.21875 254.136719 303.382812 247.300781 303.382812 238.871094 Z M 303.382812 238.871094 " fill-opacity="1" fill-rule="evenodd"/><path fill="#ffffff" d="M 269.03125 265.585938 C 271.136719 265.585938 272.847656 267.296875 272.847656 269.402344 L 272.847656 269.425781 C 272.847656 269.425781 272.855469 269.460938 272.871094 269.496094 C 272.902344 269.570312 272.976562 269.714844 273.144531 269.910156 C 273.492188 270.320312 274.144531 270.855469 275.207031 271.386719 C 277.335938 272.453125 280.546875 273.222656 284.296875 273.222656 C 288.050781 273.222656 291.257812 272.453125 293.386719 271.386719 C 294.449219 270.855469 295.101562 270.320312 295.449219 269.910156 C 295.617188 269.714844 295.691406 269.570312 295.722656 269.496094 C 295.738281 269.460938 295.746094 269.425781 295.746094 269.425781 L 295.746094 269.402344 C 295.746094 267.296875 297.457031 265.585938 299.566406 265.585938 C 301.671875 265.585938 303.382812 267.296875 303.382812 269.402344 C 303.382812 273.738281 299.96875 276.632812 296.800781 278.214844 C 293.402344 279.914062 288.976562 280.855469 284.296875 280.855469 C 279.617188 280.855469 275.191406 279.914062 271.792969 278.214844 C 268.625 276.632812 265.214844 273.738281 265.214844 269.402344 C 265.214844 267.296875 266.921875 265.585938 269.03125 265.585938 Z M 269.03125 265.585938 " fill-opacity="1" fill-rule="evenodd"/><g clip-path="url(#6f2ba3dbcd)"><path fill="#ffffff" d="M 314.832031 189.25 L 314.832031 204.515625 L 253.761719 204.515625 L 253.761719 189.25 C 253.761719 187.140625 252.054688 185.433594 249.945312 185.433594 C 247.835938 185.433594 246.128906 187.140625 246.128906 189.25 L 246.128906 204.515625 L 238.496094 204.515625 C 227.953125 204.515625 219.410156 213.0625 219.410156 223.601562 L 219.410156 277.039062 C 219.410156 287.578125 227.953125 296.121094 238.496094 296.121094 L 330.101562 296.121094 C 340.640625 296.121094 349.183594 287.578125 349.183594 277.039062 L 349.183594 223.601562 C 349.183594 213.0625 340.640625 204.515625 330.101562 204.515625 L 322.464844 204.515625 L 322.464844 189.25 C 322.464844 187.140625 320.757812 185.433594 318.648438 185.433594 C 316.542969 185.433594 314.832031 187.140625 314.832031 189.25 Z M 238.496094 212.152344 C 232.171875 212.152344 227.042969 217.277344 227.042969 223.601562 L 227.042969 277.039062 C 227.042969 283.363281 232.171875 288.488281 238.496094 288.488281 L 330.101562 288.488281 C 336.421875 288.488281 341.550781 283.363281 341.550781 277.039062 L 341.550781 223.601562 C 341.550781 217.277344 336.421875 212.152344 330.101562 212.152344 Z M 238.496094 212.152344 " fill-opacity="1" fill-rule="evenodd"/></g></svg>