<svg xmlns="http://www.w3.org/2000/svg" xmlns:xlink="http://www.w3.org/1999/xlink" width="500" zoomAndPan="magnify" viewBox="0 0 375 374.999991" height="500" preserveAspectRatio="xMidYMid meet" version="1.0"><defs><clipPath id="010e5b1cde"><path d="M 93.75 93.75 L 281.25 93.75 L 281.25 281.25 L 93.75 281.25 Z M 93.75 93.75 " clip-rule="nonzero"/></clipPath><clipPath id="6a78e6d1fd"><path d="M 187.5 93.75 C 135.722656 93.75 93.75 135.722656 93.75 187.5 C 93.75 239.277344 135.722656 281.25 187.5 281.25 C 239.277344 281.25 281.25 239.277344 281.25 187.5 C 281.25 135.722656 239.277344 93.75 187.5 93.75 Z M 187.5 93.75 " clip-rule="nonzero"/></clipPath><clipPath id="c3d8ab0f02"><path d="M 0.75 0.75 L 188.25 0.75 L 188.25 188.25 L 0.75 188.25 Z M 0.75 0.75 " clip-rule="nonzero"/></clipPath><clipPath id="9249b01481"><path d="M 94.5 0.75 C 42.722656 0.75 0.75 42.722656 0.75 94.5 C 0.75 146.277344 42.722656 188.25 94.5 188.25 C 146.277344 188.25 188.25 146.277344 188.25 94.5 C 188.25 42.722656 146.277344 0.75 94.5 0.75 Z M 94.5 0.75 " clip-rule="nonzero"/></clipPath><clipPath id="81d86a9e53"><rect x="0" width="189" y="0" height="189"/></clipPath><clipPath id="c0cfaa9032"><path d="M 0 10.417969 L 375 10.417969 L 375 364.582031 L 0 364.582031 Z M 0 10.417969 " clip-rule="nonzero"/></clipPath><clipPath id="da27d2813a"><path d="M 298.609375 38.195312 L 229.167969 163.195312 L 375 163.195312 L 375 211.804688 L 229.167969 211.804688 L 298.609375 336.804688 L 256.945312 364.582031 L 187.5 232.640625 L 111.109375 364.582031 L 69.445312 336.804688 L 145.832031 211.804688 L 0 211.804688 L 0 163.195312 L 145.832031 163.195312 L 69.445312 38.195312 L 111.109375 10.417969 L 187.5 142.359375 L 256.945312 10.417969 Z M 298.609375 38.195312 " clip-rule="nonzero"/></clipPath><clipPath id="541592879b"><path d="M 0 0.417969 L 375 0.417969 L 375 354.582031 L 0 354.582031 Z M 0 0.417969 " clip-rule="nonzero"/></clipPath><clipPath id="3c27c13530"><path d="M 298.609375 28.195312 L 229.167969 153.195312 L 375 153.195312 L 375 201.804688 L 229.167969 201.804688 L 298.609375 326.804688 L 256.945312 354.582031 L 187.5 222.640625 L 111.109375 354.582031 L 69.445312 326.804688 L 145.832031 201.804688 L 0 201.804688 L 0 153.195312 L 145.832031 153.195312 L 69.445312 28.195312 L 111.109375 0.417969 L 187.5 132.359375 L 256.945312 0.417969 Z M 298.609375 28.195312 " clip-rule="nonzero"/></clipPath><clipPath id="1db5fe9c93"><rect x="0" width="375" y="0" height="355"/></clipPath></defs><g clip-path="url(#010e5b1cde)"><g clip-path="url(#6a78e6d1fd)"><g transform="matrix(1, 0, 0, 1, 93, 93)"><g clip-path="url(#81d86a9e53)"><g clip-path="url(#c3d8ab0f02)"><g clip-path="url(#9249b01481)"><path fill="#ffffff" d="M 0.75 0.75 L 188.25 0.75 L 188.25 188.25 L 0.75 188.25 Z M 0.75 0.75 " fill-opacity="1" fill-rule="nonzero"/></g></g></g></g></g></g><g clip-path="url(#c0cfaa9032)"><g clip-path="url(#da27d2813a)"><g transform="matrix(1, 0, 0, 1, 0, 10)"><g clip-path="url(#1db5fe9c93)"><g clip-path="url(#541592879b)"><g clip-path="url(#3c27c13530)"><path fill="#737373" d="M 0 0.417969 L 374.917969 0.417969 L 374.917969 354.582031 L 0 354.582031 Z M 0 0.417969 " fill-opacity="1" fill-rule="nonzero"/></g></g></g></g></g></g></svg>