<svg xmlns="http://www.w3.org/2000/svg" xmlns:xlink="http://www.w3.org/1999/xlink" width="500" zoomAndPan="magnify" viewBox="0 0 375 374.999991" height="500" preserveAspectRatio="xMidYMid meet" version="1.0"><defs><clipPath id="c279598127"><path d="M 19 53.671875 L 205 53.671875 L 205 111 L 19 111 Z M 19 53.671875 " clip-rule="nonzero"/></clipPath><clipPath id="44683016ea"><path d="M 244 53.671875 L 357 53.671875 L 357 111 L 244 111 Z M 244 53.671875 " clip-rule="nonzero"/></clipPath><clipPath id="d7e37a6810"><path d="M 0 116 L 375 116 L 375 321.324219 L 0 321.324219 Z M 0 116 " clip-rule="nonzero"/></clipPath></defs><path fill="#000000" d="M 198.183594 162.015625 L 229.984375 54.074219 L 173.5625 54.074219 L 132.078125 194.890625 C 151.75 183.519531 174.011719 172.394531 198.183594 162.015625 " fill-opacity="1" fill-rule="nonzero"/><path fill="#ffffff" d="M 123.046875 225.542969 L 101.628906 298.246094 L 158.046875 298.246094 L 192.003906 182.984375 C 165.230469 196.808594 141.863281 211.292969 123.046875 225.542969 " fill-opacity="1" fill-rule="nonzero"/><g clip-path="url(#c279598127)"><path fill="#000000" d="M 204.871094 53.675781 L 75.457031 53.675781 C 44.296875 53.675781 19.039062 78.933594 19.039062 110.09375 L 188.25 110.09375 L 204.871094 53.675781 " fill-opacity="1" fill-rule="nonzero"/></g><g clip-path="url(#44683016ea)"><path fill="#ffffff" d="M 261.289062 53.675781 L 244.667969 110.09375 L 299.789062 110.09375 C 330.949219 110.09375 356.207031 84.832031 356.207031 53.675781 L 261.289062 53.675781 " fill-opacity="1" fill-rule="nonzero"/></g><g clip-path="url(#d7e37a6810)"><path fill="#000000" d="M 31.296875 306.578125 C 17.023438 267.6875 107.578125 198.683594 233.554688 152.453125 C 284.664062 133.699219 333.75 121.574219 375 116.382812 C 329.734375 114.882812 263.417969 127.519531 193.007812 153.355469 C 73.785156 197.105469 -12.007812 262.144531 1.375 298.621094 C 5.9375 311.046875 21.421875 318.554688 44.570312 321.324219 C 38.019531 317.453125 33.488281 312.542969 31.296875 306.578125 " fill-opacity="1" fill-rule="nonzero"/></g></svg>